<?xml version="1.0" standalone="no"?>
<!DOCTYPE svg PUBLIC "-//W3C//DTD SVG 1.1//EN" "http://www.w3.org/Graphics/SVG/1.1/DTD/svg11.dtd" >
<svg>
<metadata>
Created by FontForge 20120731 at Sun Aug 25 07:47:13 2019
 By www
Copyright (C) 2015 by Font Diner, Inc DBA Sideshow. All rights reserved.
</metadata>
<defs>
<font id="Snackbar-WideBoldItalic" horiz-adv-x="422" >
  <font-face 
    font-family="Snackbar-WideBoldItalic"
    font-weight="400"
    font-style="italic"
    font-stretch="normal"
    units-per-em="1000"
    panose-1="0 0 5 0 0 0 0 0 0 0"
    ascent="621"
    descent="-379"
    x-height="413"
    cap-height="752"
    bbox="-395.714 -472 1607.63 977.522"
    underline-thickness="50"
    underline-position="-25"
    unicode-range="U+0020-FB02"
  />
<missing-glyph horiz-adv-x="500" 
d="M0 0v700h500v-700h-500zM250 395l170 255h-340zM280 350l170 -255v510zM80 50h340l-170 255zM50 605v-510l170 255z" />
    <glyph glyph-name="fi" unicode="fi" horiz-adv-x="524" 
d="M499 136q4 -6 -20 -48q-32 -57 -88 -94q-31 -21 -70 -21q-67 0 -79 70q-9 49 10 139l5 23q-32 -26 -55 -39q-33 -18 -81 -25q34 -75 35 -169q0 -69 -15 -140q-8 -39 -26 -89q-23 -64 -57 -104q-45 -50 -97 -50q-56 0 -78 67q-19 60 -10 163q6 85 31 200q30 145 90 335
q55 176 125 359q4 11 16.5 20t28.5 13.5t31 4.5q17 0 26 -5t7 -16l-0.5 -1.5t-1.5 -3.5t-2 -5t-2.5 -7t-3.5 -8.5t-4 -10.5l-4 -12q-38 -95 -108 -302q-23 -70 -54 -170q26 17 46 17q12 0 27 -11q3 -3 16 -3q33 0 77 27q52 33 78 77v2q5 21 12 37q4 11 35 25q22 10 44 10
q17 0 23.5 -7t1.5 -18q-50 -130 -68 -215q-12 -54 2 -83t41 -29q3 0 13 3q20 5 55 40q19 19 42 53q4 3 6 1zM385 441q-24 0 -36 12.5t-8 31.5q3 14 12.5 26t22.5 20t28.5 12.5t30.5 4.5q23 0 36.5 -10.5t8.5 -32.5q-5 -23 -33 -43.5t-62 -20.5zM79 -163q20 95 12 180
q-10 96 -59 141q-1 -3 -3 -12q-24 -73 -44 -167q-23 -107 -24 -197q0 -44 8 -74q7 -30 25 -30q15 0 41.5 39t43.5 120z" />
    <glyph glyph-name="fl" unicode="fl" horiz-adv-x="574" 
d="M488 419q-71 -112 -150 -177q-11 -65 -7 -121q5 -84 47 -84q33 0 82 49q17 17 38 43q7 7 18 21q2 4 7 10.5t7 8.5q10 16 16 18l2 1q5 0 2 -11q-32 -70 -77 -126q-71 -84 -127 -84q-61 0 -85 77q-16 49 -14 143q-41 -13 -65 -13q-6 0 -20 2q-10 1 -23 3q53 -129 14 -315
q-11 -51 -26 -91q-27 -76 -62 -121q-47 -60 -104 -60q-147 0 -55 431q33 156 89 334q56 179 125 360q4 11 16.5 20t28.5 13.5t31 4.5q18 0 26 -5.5t6 -16.5q-49 -126 -91 -247q-43 -122 -75 -224q27 15 47 15q11 0 15 -5q25 -32 74 -32q26 0 55 11q5 38 13 77q18 81 48 166
q40 114 85 181q57 84 114 84q29 0 46.5 -15.5t22 -45t-4.5 -73.5q-21 -97 -89 -206zM400 482q-23 -63 -46 -157q67 86 106.5 165.5t51.5 137.5q5 21 4 41.5t-8 22.5q-8 -3 -24 -27q-40 -56 -84 -183zM80 -135q22 104 16 190q-7 104 -52 150q-38 -125 -59 -222
q-26 -121 -24 -210q2 -42 10 -66q8 -25 23 -25q7 1 19 15q25 30 47 94q11 29 20 74z" />
    <glyph glyph-name="a_r.liga" unicode="ar" horiz-adv-x="793" 
d="M460 440q18 0 21 -20q5 -22 6 -28q2 -12 1 -32q21 -13 43 -13q32 0 91 30q8 6 21 6q24 0 39.5 -20t10.5 -42q-3 -15 -18 -28q-21 -17 -56 -80q-39 -68 -49 -117q-4 -17 1 -33q6 -22 29 -22q25 0 69 44q23 24 33 37q12 16 25 31q6 7 8 12l5 5l4 3l1 2q3 -6 1 -12
q-28 -65 -70 -116q-58 -69 -108 -69q-54 0 -72 40q-16 34 -5 86q8 37 31 81q9 21 20 41q14 23 25 46q-27 -7 -51 -7t-49 7q-25 -70 -45 -113q-38 -78 -80 -124q-54 -58 -117 -58q-36 0 -53 22t-23 59q-36 -39 -67.5 -60t-69.5 -21q-54 0 -82 42q-32 47 -14 131
q26 121 108 200q33 32 69.5 50t66.5 18q10 0 19 -3t14.5 -6t12.5 -10t10 -11t10 -13l4 19q0 7 1 17q-1 5 -1 12q43 -13 59 -23q25 -15 20 -40q-1 -3 -5 -13l-31 -104q-16 -52 -23 -84q-14 -66 -8 -87q3 -24 13 -24q17 0 36 27q36 48 79 153q16 44 30 88q-26 34 -21 61
q4 18 32 41q29 22 49 22zM150 351q-41 0 -88 -68q-19 -28 -33 -59t-19 -55q-9 -44 3 -76q11 -34 36 -34t62 42q30 34 52 77l2 11q3 12 5 19q2 4 4 11.5t3 11.5q2 8 7 20q2 44 -7 74q-9 26 -27 26z" />
    <glyph glyph-name="a_s.liga" unicode="as" horiz-adv-x="769" 
d="M569 445q-9 -21 -15 -51q-10 -44 1 -78q3 -13 14 -29q2 -4 8 -13t8 -14q10 -14 16 -25t11 -24t8 -27t5 -32q18 -2 28 -2q31 0 59 6q9 1 24 5q4 -1 5 -3.5t-1 -6.5t-6 -7q-55 -26 -115 -38q-19 -60 -67 -97.5t-105 -37.5q-68 0 -118 63q-18 -26 -40 -41q-25 -18 -60 -18
q-39 0 -57 21.5t-24 60.5q-18 -19 -32 -32.5t-29 -23.5q-36 -25 -74 -25q-55 0 -82 42q-32 47 -14 131q25 122 107 201q34 32 71 50t67 18q15 0 28 -7.5t18.5 -14t16.5 -20.5q5 18 8 26l3 15q41 -3 59.5 -22t12.5 -38q-2 -5 -10.5 -31.5t-15.5 -47.5q-21 -66 -32 -119
q-14 -65 -9 -88q5 -24 14.5 -24t23.5 15q11 13 31 43q-3 30 3 62q6 27 33 27q1 0 19 -2q59 108 87 165q1 14 1 17l3 14q4 18 30 36q34 22 83 21zM149 351q-41 0 -86 -68q-41 -63 -52 -114q-10 -45 2 -77q12 -33 36 -33q31 0 75 57q15 19 27 40q14 24 23 59l10 35
q2 57 -10 83q-9 18 -25 18zM477 269q-18 -36 -53 -96q56 -14 110 -21q-7 30 -19 52q-7 11 -14 26q-12 18 -24 39zM388 118l-3 -6q1 -37 14 -60q14 -29 43 -29q22 0 44 16q30 20 45 60q-87 4 -143 19z" />
    <glyph glyph-name="a_x.liga" unicode="ax" horiz-adv-x="776" 
d="M725 139q1 0 3 -1t3 -2.5t2 -3.5t0 -5q-1 -7 -16 -31q-35 -61 -88 -98q-30 -21 -65 -21q-40 0 -75 44q-25 30 -46 81q-12 -11 -36.5 -33t-35.5 -32t-30.5 -25t-32 -21.5t-28.5 -12t-31 -5.5q-34 0 -60.5 23t-30.5 60q-35 -39 -67.5 -60t-68.5 -21q-55 0 -81 42
q-32 47 -14 131q26 123 107 201q34 32 70.5 50t65.5 18q35 0 65 -43q5 23 4 34q-1 2 0 6t0 6q39 -7 59 -19q25 -16 19 -42l-4 -13q-39 -114 -54 -187q-3 -10 -4.5 -20.5t-3 -24t-1 -25t2.5 -21.5t7.5 -16t13.5 -6t18 5.5t19.5 13t23.5 20.5t24.5 24.5t28 29.5t28.5 29
q-44 121 -59 210q-1 8 2 22q3 16 28 27q20 9 34 9q23 0 28 -25q1 -2 2.5 -8t4.5 -18.5t6 -24.5q10 -49 27 -110q74 84 118 148q15 23 54 33q21 6 69 8q-33 -60 -96 -139q-43 -53 -120 -131q18 -49 30 -74q26 -48 52 -48q22 0 47 15q38 21 76 74q2 3 6 3zM173 177l1 2
q9 41 20 70q1 57 -11 83q-8 18 -24 18q-40 0 -86 -68q-41 -59 -52 -114q-10 -45 2 -77q11 -33 36 -33q27 0 68 49q31 38 46 70z" />
    <glyph glyph-name="e_r.liga" unicode="er" horiz-adv-x="699" 
d="M367 441q20 0 27 -48q2 -20 1 -32q15 -13 42 -13q37 0 90 30q10 6 23 6q23 0 38.5 -19.5t10.5 -42.5q-4 -17 -17 -28q-17 -14 -56 -80t-50 -117q-3 -15 4 -31q8 -24 32 -24q35 0 83 57q34 39 52 77l1 -2q6 -2 4 -11q0 -1 -6 -14q-18 -38 -47 -78q-38 -54 -78 -78
q-23 -14 -47 -14q-48 0 -69 34t-8 92q8 38 32 85q16 31 21 40q8 13 22 43q-31 -7 -53 -7q-29 0 -49 8q-58 -138 -114 -203q-81 -93 -196 -93q-97 0 -134 64q-31 54 -14 137q20 94 86 166q70 77 147 77q57 0 84 -34t14 -91q-15 -72 -77 -134q-62 -65 -152 -81
q10 -22 24.5 -31.5t40.5 -9.5q74 0 138 94q41 60 90 183q-27 31 -22 59q4 18 33 42q29 22 49 22zM134 359q-34 0 -72 -60q-18 -27 -31 -58.5t-20 -61.5q-1 -8 -6 -44q63 16 103 53.5t52 91.5q6 29 1 52q-9 27 -27 27z" />
    <glyph glyph-name="e_s.liga" unicode="es" horiz-adv-x="687" 
d="M476 446q-12 -32 -16 -52q-10 -46 2 -79q8 -26 30 -56q20 -29 30 -51q11 -25 15 -60q22 0 62 8q31 6 46 13q7 3 12 3q3 0 4 -2l1 -1q-3 -12 -24 -25q-51 -27 -112 -38q-19 -61 -67 -96q-49 -38 -106 -38q-48 0 -80 24t-51 76q-42 -42 -78 -65q-48 -30 -99 -30
q-74 0 -109 45q-45 54 -23 155q20 96 83 167q68 77 147 77q57 0 84 -34t15 -91q-15 -70 -74 -132q-64 -67 -157 -83q12 -19 25.5 -27.5t34.5 -8.5q35 0 78 34q26 21 68 69q2 16 3 22q10 25 40 24q68 81 98 161q1 14 2 18l3 15q4 18 30 36q34 23 83 22zM133 358
q-34 0 -73 -60q-37 -56 -50 -120q-2 -8 -7 -44q64 16 104 53.5t51 91.5q6 28 1 51q-8 28 -26 28zM385 266q-28 -49 -63 -90q54 -14 119 -24q-3 16 -11 33q-8 19 -27 51q-5 8 -9 17q-1 1 -4 5.5zM291 119q2 -37 14 -63q14 -33 44 -33q22 0 44 16q27 19 45 61q-31 0 -69 5
t-78 14z" />
    <glyph glyph-name="g_s.liga" unicode="gs" horiz-adv-x="752" 
d="M554 443q-11 -28 -17 -52q-9 -45 3 -78q3 -13 14 -29q2 -4 7.5 -13t8.5 -14q26 -41 30 -51q10 -25 12 -60q44 0 93 16q3 1 8 1h5q7 0 6 -3q0 -4 -5 -8q-8 -8 -19 -14q-37 -20 -92 -28q-20 -62 -69 -100t-109 -38q-80 0 -118 74q-57 -47 -95 -68q-8 -60 -22 -125
q-34 -161 -98.5 -238t-163.5 -77q-66 0 -93 47q-24 42 -11 101q19 90 111 168q43 35 88 64q15 11 48 31l47 32q0 8 2 11l3 16q-53 -44 -97 -44q-26 0 -50.5 13.5t-42.5 39.5q-42 62 -19 168q20 96 83 164q69 74 157 74q27 0 44 -12.5t35 -39.5l7 21q28 14 50 14q28 0 31 -21
q-32 -79 -53 -154t-43 -183q44 34 65 56q-3 27 4 61q6 26 29 28q9 0 22 -3q49 84 87 166q0 10 1 16l3 14q4 18 30 36q35 22 83 21zM151 370q-34 0 -72 -42q-51 -56 -71 -150q-32 -152 51 -152q35 0 86 69q23 112 45 177q-6 7 -6 23q0 19 -2.5 35.5t-10.5 28t-20 11.5z
M463 267q-18 -35 -54 -95q59 -14 110 -21q-6 27 -19 51q-13 26 -37 65zM375 116l-5 -4q0 -29 10 -55q15 -34 48 -34q24 0 49 18.5t40 57.5q-57 2 -142 17zM112 -94q-4 -4 -37 -28q-23 -18 -61 -51q-10 -9 -28 -27q-58 -62 -72 -125q-7 -34 2.5 -53t35.5 -19q39 0 73 41
q48 58 75 187q7 29 8 41z" />
    <glyph glyph-name="i_r.liga" unicode="ir" horiz-adv-x="540" 
d="M111 553q24 0 37.5 -13t9.5 -31q-5 -24 -34.5 -44t-61.5 -20q-24 0 -35.5 12.5t-7.5 32.5q5 24 33 43q29 20 59 20zM227 442q14 0 19 -12l0.5 -1t0.5 -2q0 -3 1 -4q8 -33 6 -61q21 -13 43 -13q40 0 90 31q11 6 23 6q23 0 38.5 -20t11.5 -42q-4 -16 -19 -29
q-24 -23 -56 -80q-40 -71 -49 -116q-4 -17 -2 -32q3 -23 21 -23q22 0 58 41q29 34 59 86q10 18 25 18q19 0 16 -23q-2 -3 -22 -43q-14 -27 -39 -61q-62 -81 -118 -81q-48 0 -68.5 34t-8.5 92q8 34 23 64l16 31q2 4 6.5 13.5t7.5 14.5q11 20 22 44q-4 0 -8.5 -1l-9 -2
t-7.5 -1q-14 -2 -25 -2q-18 0 -47 6q-24 -76 -41 -115q-34 -77 -77 -125q-54 -59 -118 -59q-74 0 -82 83q-5 47 11 121q19 88 53 181q5 14 35 26q25 10 44 10q16 0 22.5 -6t4.5 -19l-2 -5q0 -2 -1.5 -5.5t-2.5 -5.5q-4 -13 -13 -36q-22 -57 -36 -108q-10 -30 -16 -57
q-10 -49 -7 -77q3 -30 16 -30t30 19q37 42 75 139q21 53 38 112q-27 35 -22 62q4 18 32 41q28 22 49 22z" />
    <glyph glyph-name="i_s.liga" unicode="is" horiz-adv-x="533" 
d="M112 553q15 0 26.5 -6t16.5 -16t3 -22q-5 -24 -34 -44q-29 -21 -62 -21q-24 0 -36 12.5t-7 32.5q5 25 33 44q29 20 60 20zM334 447q-10 -21 -16 -51q-9 -43 2 -78q7 -22 30 -59q22 -33 31.5 -56t11.5 -57q59 0 99 17q14 3 14 -1q-2 -8 -22 -20q-33 -19 -99 -33
q-19 -59 -68 -97q-47 -38 -105 -38q-41 0 -66 15.5t-45 43.5q-27 -29 -50.5 -44t-53.5 -15q-112 0 -68 205q18 88 53 181q5 14 34 25q25 10 44 10q17 0 24 -9q7 -6 3 -17q-52 -134 -70 -216q-13 -60 -10 -86q2 -25 25 -25q4 0 15 8t32 41q-9 38 0 78q6 28 34 28q2 0 17 -2
q38 67 59 108l27 57q2 8 2 15q1 6 3 15q3 18 29 36q35 22 84 21zM242 271q-10 -18 -13 -25q-2 -4 -6 -11.5t-6.5 -11t-6.5 -10.5t-6 -11l-15 -26q24 -7 61 -13q3 0 6.5 -0.5t6 -1.5t6 -1.5t6 -0.5t6 -0.5t6 -1.5t6.5 -1.5t7 -0.5q-6 23 -16 41q-4 10 -20 37q-3 5 -8 17z
M149 121q3 -36 14 -61q14 -35 45 -35q21 0 43 16q27 19 46 62q-64 1 -148 18z" />
    <glyph glyph-name="k_s.liga" unicode="ks" horiz-adv-x="751" 
d="M145 750q14 0 32 -9q-11 -55 -36 -153q-10 -37 -44 -158q-7 -27 -12 -45q-4 -14 -10 -34.5t-7 -23.5q-1 -4 -3.5 -13t-3.5 -14q52 52 95 84q66 48 104 48q36 0 55 -29q18 -26 10 -64q-11 -49 -85 -94q-68 -41 -159 -59q15 -28 24 -50q26 -63 51 -89q16 -17 35 -17
q42 0 98 80q-3 30 3 61q6 27 33 27h8q1 0 10 -2q39 68 59 108l29 57q-1 8 1 16l3 15q4 17 30 35q34 23 83 22q-9 -21 -16 -51q-3 -24 -4 -40t4.5 -33t10.5 -28t15 -25q17 -26 32 -54q14 -25 20 -75q46 1 102 17q11 4 12 -1q0 -2 -9 -7q-45 -26 -117 -41q-16 -53 -61 -92
q-51 -42 -111 -42q-70 0 -116 64q-29 -32 -58 -48q-37 -20 -80 -20q-68 0 -102 54q-24 34 -48 122q-7 -25 -15 -63l-9 -43q-4 -20 -5 -26l-3 -15q-4 -22 -41 -22q-40 0 -38 28q6 47 31 165q21 100 42 180l42 168q27 102 40 164l6 25q0 2 0.5 6.5t-0.5 6.5q40 27 73 27z
M232 368q-91 -44 -175 -139q82 19 126.5 57t48.5 82zM456 274q-19 -38 -53 -96q65 -16 110 -22q-8 33 -21 55q-4 9 -15 27q-11 17 -21 36zM367 123l-3 -5q1 -31 14 -57q15 -33 44 -33q22 0 44 16q28 19 44 61q-64 3 -143 18z" />
    <glyph glyph-name="l_s.liga" unicode="ls" horiz-adv-x="598" 
d="M210 758q44 0 61 -34.5t4 -98.5q-21 -96 -93 -214q-69 -111 -146 -168q-12 -79 -6 -140q4 -77 38 -77q13 0 34 21q19 21 46 60q-4 27 4 61q5 27 32 27q3 0 19 -2q53 97 86 166q0 10 1 15l4 15q3 18 31 36q35 22 82 21q-1 -2 -2.5 -5.5t-2.5 -5.5q-8 -24 -8 -25
q-2 -5 -4 -15q-9 -40 -1.5 -66.5t27.5 -57.5q2 -4 8 -12q1 -2 4 -6.5t4 -6.5q20 -31 28 -59q4 -21 5 -42q22 -1 45 3q10 1 23 5q8 1 27 5q7 1 9 -3q-2 -7 -13 -13q-42 -23 -98 -35q-19 -55 -63 -91q-51 -42 -111 -42q-73 0 -115 63q-29 -31 -56 -48.5t-59 -17.5
q-46 0 -71 37q-23 30 -31 75q-18 100 15 255q40 187 115 309q21 36 44 61t44.5 37.5t39.5 12.5zM206 690q-38 -32 -80 -133q-42 -102 -75 -237q68 89 108 169t52 138q10 44 -5 63zM315 270q-4 -8 -21 -41q-23 -40 -32 -54q58 -14 111 -21q-7 23 -20 49q-5 9 -14 26zM226 119
l-4 -4q1 -33 13 -57q15 -33 45 -33q23 0 48.5 20t41.5 57q-51 1 -90 8z" />
    <glyph glyph-name="n_s.liga" unicode="ns" horiz-adv-x="743" 
d="M552 449q-1 -2 -2 -6l-2 -5q-8 -24 -8 -25q-3 -5 -5 -15q-9 -43 2 -76q8 -24 29 -55q25 -39 31 -55q10 -25 13 -66h24q16 0 45 7q7 1 29 7q4 1 6 0.5t1 -2.5q-1 -7 -14 -15q-38 -21 -99 -34q-16 -53 -62 -92q-51 -42 -111 -42q-74 0 -116 64q-26 -27 -48.5 -41t-49.5 -14
q-40 0 -61 31q-25 34 -12 95q8 35 29 99q20 54 24 73q7 33 1 43q-7 9 -18 9q-39 0 -88 -67q-41 -53 -57 -97q-5 -13 -13 -43q-2 -7 -4.5 -15l-5 -16t-4.5 -13q-3 -11 -14 -48q-4 -16 -12 -33q-38 -12 -50 -12q-4 0 -8 2q-2 1 -7 3q-7 46 18 160q28 132 57 222q5 14 32 25
q23 9 41 9q10 0 15.5 -3.5t7 -7.5t0.5 -9q-5 -24 -18 -65q35 35 66 55q42 28 84 28q96 0 73 -108q-6 -25 -14 -48q-3 -8 -6.5 -17.5t-7 -19.5t-6.5 -18q-21 -50 -30 -95q-6 -26 -2 -39q5 -14 13 -14q12 0 27 17.5t28 40.5q-3 28 4 62q6 27 31 27h10q1 0 10 -2q37 67 54 100
q25 52 33 66q0 10 1 16l3 15q4 18 29 35q34 23 84 22zM461 272q-19 -36 -54 -95q28 -7 64 -14q7 -1 22.5 -3.5t23.5 -4.5q-9 36 -35 79q0 2 -1.5 4t-2.5 4t-2.5 4.5t-2.5 4.5q-2 3 -12 21zM371 121l-4 -5q1 -33 13 -57q15 -32 45 -32q24 0 49 19.5t41 56.5q-63 3 -144 18z
" />
    <glyph glyph-name="p_s.liga" unicode="ps" horiz-adv-x="798" 
d="M594 443q-11 -28 -16 -51q-9 -43 2 -76q3 -13 14 -28l35 -53q13 -22 21 -55q3 -19 4 -34q51 0 108 17q9 2 9.5 -0.5t-6.5 -7.5q-50 -34 -120 -50q-18 -54 -63 -92q-50 -42 -109 -42q-61 0 -97 39t-42 110q-34 -15 -70 -23q-33 -46 -73 -72q-52 -36 -112 -36q-53 0 -87 35
q-21 -76 -23 -85l-16 -59q-9 -34 -11 -43q-1 -5 -3 -11t-3.5 -12t-2.5 -11q-4 -11 -9 -35l-25 -103q-3 -8 -7 -23.5t-8 -31.5t-8 -31q-42 -10 -58 -10q-22 0 -29 9.5t-2 30.5q1 4 3 11t5.5 19t6.5 22l26 93l34 120q23 83 72 273q21 90 29 128q4 18 16 87q3 15 33 30
q29 14 55 14q13 0 19.5 -4.5t4.5 -15.5q-3 -14 -7 -29l-5 -15t-5.5 -18.5t-4.5 -17.5q47 53 74 72q46 32 96 32q66 0 88 -54q19 -46 4 -117q-7 -37 -23 -67q41 25 70 54q46 49 99 127q0 10 1 16l4 17q4 18 29 36q35 22 83 21zM219 343q-45 0 -107 -72q-36 -44 -76 -106
q22 2 28 2q22 0 64 -7q53 -9 89 -9q27 51 36.5 96t0.5 70.5t-35 25.5zM495 285q-15 -22 -22 -31l-19 -24q-18 -22 -40 -47q69 -22 146 -32q-11 40 -38 83q-1 3 -4.5 8.5t-4.5 8.5q-8 10 -12 22q-2 2 -6 12zM411 118q0 -37 14 -65q14 -30 44 -30q23 0 48 19.5t41 56.5
q-70 1 -147 19zM66 99q-9 -1 -12 -4t-5 -13q-4 -18 8 -32t30 -14q41 0 90 55q-40 1 -77 5q-30 1 -34 3z" />
    <glyph glyph-name="r_s.liga" unicode="rs" horiz-adv-x="691" 
d="M498 446q-11 -28 -16 -51q-10 -46 0 -78q9 -28 29 -56q22 -32 31 -54t11 -55q49 5 84 18q20 8 26 -5q5 -13 -15 -24h-1q-36 -21 -99 -35q-8 -23 -21 -44t-29.5 -37.5t-36 -28t-41.5 -18t-45 -6.5q-45 0 -72 19t-46 51q-63 -64 -108 -64q-48 0 -68.5 34t-8.5 92
q6 30 21 62q10 22 30 60q9 19 25 46q-28 -7 -50 -7q-26 0 -48 15q-38 -123 -46 -164q-16 -74 -12 -105q-4 -13 -30 -27q-24 -13 -42 -13q-21 0 -24 16q2 23 13 75q15 68 43 160q13 39 17 54l12 46q-24 42 -21 55q4 19 33 41q30 22 49 22q17 0 25 -29q2 -7 3 -51
q16 -13 42 -13q40 0 90 30q9 6 21 6q24 0 40 -20t11 -42q-3 -15 -19 -28q-22 -21 -55 -80q-40 -71 -50 -117v-9q-5 -22 3 -37q3 -8 14 -8q6 0 24 11q19 11 49 49q-5 36 2 65q6 28 32 28q8 0 12 -1q10 -4 12 -4q14 21 41 72q30 61 42 94q-2 8 4 33q4 20 34 38q37 23 79 19z
M409 266q-17 -31 -26 -46l-27 -47q41 -9 55 -12q10 -3 51 -9q-6 21 -12 39q-3 8 -9 18q-10 16 -13 22q-4 6 -19 35zM318 118l-5 -7q1 -33 14 -57q15 -30 44 -30q22 0 44 16q29 19 44 60q-33 0 -63 4q-41 5 -78 14z" />
    <glyph glyph-name="s_s.liga" unicode="ss" horiz-adv-x="712" 
d="M496 446q-11 -24 -17 -52q-8 -39 -0.5 -66t27.5 -58q20 -28 31 -51q15 -33 17 -66q49 0 75 7q29 8 32 9q4 0 6 -4t0 -10t-8 -9q-48 -28 -113 -40q-19 -60 -67 -97q-49 -38 -106 -38q-59 0 -94 36.5t-42 105.5q-8 -3 -10 -3q-4 -2 -10 -3q-19 -59 -67 -97
q-51 -39 -106 -39q-72 0 -116 64q-29 -35 -50 -52q-23 5 -30.5 14.5t-2.5 28.5q28 29 62 80q-4 35 2 61q6 27 34 27q4 0 19 -2q48 84 87 166q0 10 1 15l3 15q4 18 31 37q34 22 82 21q-9 -21 -16 -52q-9 -44 2 -78q7 -23 29 -55q22 -35 28 -49q8 -17 12 -54q6 2 8 3q2 0 3 1
q2 1 7 4q5 15 12.5 21.5t24.5 6.5q67 61 101 159q1 10 2 17l4 18q4 19 30 37q34 22 83 21zM74 269q-22 -47 -54 -95q50 -14 112 -22q-6 24 -15 42q-1 2 -10 18q-2 5 -9.5 17.5t-10.5 18.5q-6 7 -13 21zM406 266q-22 -37 -29 -47q-19 -25 -36 -43q51 -14 119 -24
q-9 32 -17 48q-1 3 -3.5 7.5t-5 9.5t-5.5 9q-7 11 -23 40zM312 119q0 -37 14 -65q14 -31 43 -31q23 0 48 20t42 57q-70 1 -147 19zM-14 118q-3 -4 -4 -6q2 -35 12 -56q15 -33 45 -33q23 0 45 16q26 19 45 61q-74 2 -143 18z" />
    <glyph glyph-name="u_r.liga" unicode="ur" horiz-adv-x="795" 
d="M465 441q18 0 24 -29q2 -8 3 -50q20 -14 44 -14q40 0 89 31q12 6 22 6q24 0 39.5 -20t10.5 -42q-3 -16 -19 -29q-23 -22 -54 -77q-39 -68 -48 -113q-13 -61 32 -61q25 0 55 22q35 25 77 91q3 6 6 6q0 -1 1 -1v-2q-4 -11 -20 -40t-37 -57q-64 -82 -118 -82q-48 0 -68.5 34
t-8.5 92q9 43 32 90q19 39 43 77q-35 -7 -51 -7q-27 0 -48 8q-43 -116 -90 -184q-70 -100 -143 -100q-38 0 -56 29q-15 22 -16 52q-21 -26 -38 -41.5t-41.5 -26.5t-52.5 -11q-72 0 -99 48t-7 143q19 92 67 197q6 15 26.5 25t40.5 10q9 0 15.5 -2t10 -6t4 -9.5t-2.5 -12.5
q-21 -44 -32 -78q-24 -68 -34 -113q-29 -138 39 -138q29 0 59 32.5t57 90.5q8 29 27 89q12 39 21 79q4 20 6 42q25 24 66 24q40 0 39 -27q-21 -48 -47 -122q-28 -81 -37 -124q-6 -27 -4 -53q0 -12 4 -21q2 -9 7 -9q15 0 34 23q37 46 77 145q21 52 33 93q-26 33 -20 60
q4 18 32 41q28 22 49 22z" />
    <glyph glyph-name="u_s.liga" unicode="us" horiz-adv-x="764" 
d="M575 446q-11 -28 -15 -51q-10 -44 2 -77q10 -30 29 -57q20 -29 31 -58q10 -28 9 -65q37 0 64 6l21 4q15 4 15 0q1 -2 -5 -7q-42 -24 -101 -35q-16 -53 -61 -92q-51 -42 -111 -42q-72 0 -117 64q-48 -52 -97 -52q-26 0 -42 12t-22 29t-9 43q-14 -17 -26.5 -30t-26.5 -23
q-34 -25 -77 -25q-73 0 -100.5 48t-7.5 143q19 88 68 197q7 15 27.5 25.5t40.5 10.5q15 0 22 -6.5t6 -17.5l-2 -7q-20 -44 -33 -78q-22 -61 -32 -112q-30 -138 37 -138q59 0 117 123l4 13q34 108 44 153q3 14 7 44q23 23 65 23q41 0 39 -27q-27 -67 -48 -128
q-29 -84 -39 -130q-7 -35 -5 -54q2 -20 17 -20q9 0 24 15q17 19 30 39q-3 30 3 61q6 27 32 27h9q3 0 8 -2q3 5 8 13.5l10 17t11.5 20t12.5 22.5q28 52 47 93q0 10 2 16l3 15q4 18 30 36q34 22 82 21zM484 269q-4 -6 -7.5 -13t-8 -14.5t-7.5 -13.5q-23 -40 -31 -54
q29 -7 65 -14q7 -1 22 -3.5t23 -4.5q-4 19 -11 34q-9 19 -27 51q-1 2 -9 17q-4 5 -9 15zM394 118l-1 -5q0 -35 12 -57q14 -32 44 -32q22 0 44 16q28 19 46 60q-66 3 -145 18z" />
    <glyph glyph-name=".notdef" horiz-adv-x="500" 
d="M0 0v700h500v-700h-500zM250 395l170 255h-340zM280 350l170 -255v510zM80 50h340l-170 255zM50 605v-510l170 255z" />
    <glyph glyph-name=".null" horiz-adv-x="0" 
 />
    <glyph glyph-name="nonmarkingreturn" horiz-adv-x="333" 
 />
    <glyph glyph-name="space" unicode=" " horiz-adv-x="180" 
 />
    <glyph glyph-name="exclam" unicode="!" horiz-adv-x="214" 
d="M146 737q37 0 38 -16q-25 -73 -58 -187q-42 -147 -62 -241q-16 -73 -19 -112q-22 -23 -52 -23q-16 0 -25.5 7t-8.5 17q12 56 23.5 156t24.5 164q22 102 55 195q7 19 32 29.5t52 10.5zM-4 97q15 0 25.5 -6t14.5 -16.5t2 -22.5q-4 -16 -16.5 -30.5t-30.5 -23t-37 -8.5
q-22 0 -33 12.5t-7 32.5q5 24 28.5 43t53.5 19z" />
    <glyph glyph-name="quotedbl" unicode="&#x22;" horiz-adv-x="284" 
d="M100 746q10 0 16.5 -2t9.5 -6.5t4 -9.5t-1 -13.5t-3.5 -14.5t-5.5 -17t-5 -18q-10 -32 -17 -65q-18 -83 -17 -131q-29 -24 -69 -24q-25 0 -31 15q1 19 24 129l27 124q4 14 24.5 23.5t43.5 9.5zM246 746q17 0 24.5 -5.5t6.5 -14.5q-22 -70 -35 -129q-17 -79 -17 -128
q-28 -24 -63 -24q-29 0 -36 15q2 18 9 50l7 37l9 40l27 125q3 15 23.5 24.5t44.5 9.5z" />
    <glyph glyph-name="numbersign" unicode="#" horiz-adv-x="510" 
d="M380 635q31 0 29 -18l-1 -2q-3 -7 -16 -40q-15 -35 -34 -90h57q45 -3 38 -39q-4 -18 -22 -44q-5 -1 -21 -1h-37h-46l-35 -100q71 -4 94 -8l-1 -11q-11 -49 -34 -58q-7 -4 -31 -4h-23q-19 0 -32 1q-5 -19 -17 -57q-11 -29 -15 -54l-2 -12q-32 -23 -65 -23q-26 0 -29 16
q4 18 21 67q2 6 6.5 19t6.5 20q5 19 8 27q-6 1 -16 1h-16h-17q-13 0 -21 -1q-23 -65 -31 -111l-3 -15q-32 -23 -67 -23q-22 0 -29 16q0 2 7 22q0 2 4.5 13.5t6.5 19.5q3 12 13 38q1 4 2 7.5t2.5 7t2.5 7l2 7t2 6.5q-44 -5 -80 -14q-31 10 -20 60q1 6 3 9l2 8q18 4 39 8
q17 3 82 8q7 18 17 49q6 17 19 51q-18 -1 -46 -5q-23 -3 -24 -3q-39 0 -29 50q3 15 10 33q27 2 34 2q7 1 29 1q7 0 53 2l29 79q12 36 16 45q5 14 25.5 23.5t42.5 9.5q14 0 21.5 -4.5t5.5 -13.5l-1 -3q0 -1 -7 -21q-13 -34 -16 -43q-3 -7 -17 -44q-8 -22 -9 -24h26q15 0 23 1
h20q2 4 13 34l13 37q3 7 6.5 18t4.5 14q1 4 2.5 7.5t2 5.5t1.5 3q5 14 25.5 23.5t42.5 9.5zM241 402h-71q-6 -19 -19.5 -56.5t-15.5 -43.5q13 1 36 1t36 1q12 35 34 98z" />
    <glyph glyph-name="dollar" unicode="$" horiz-adv-x="466" 
d="M305 720q20 0 34 -13l-20 -90q55 -17 78 -53q20 -30 12 -67q-4 -19 -14.5 -35t-28.5 -26.5t-38 -10.5q-17 0 -27 11t-6 30q22 12 27 34q4 23 -19 42q-14 -64 -21.5 -95t-21.5 -95q102 -39 84 -122q-10 -46 -48 -80t-101 -52q-18 -59 -29 -80q-12 -16 -32 -16
q-35 0 -29 31q5 23 15 53q-7 -1 -25 -1q-19 0 -24 1q-10 -38 -24 -68q-9 -17 -30 -17q-16 0 -27 9t-8 22q7 33 19 70q-66 26 -89 93q2 12 10.5 21.5t22.5 15t30 5.5q10 0 20 -3q0 -2 2 -5q0 -1 1 -2v-2t1 -2q0 -1 2 -5q5 -11 23 -28q21 93 35 143q-60 20 -82 53.5t-11 87.5
q10 48 55 85q38 31 97 50q1 14 2 20q3 13 3 20q1 14 3 20v17q1 5 5 10t9.5 9t12.5 7t15 5t16 2q25 0 32 -14l-17 -79q6 1 23 1h21q3 19 8 42l6 32q23 19 48 19zM230 564q-22 0 -44 -2q-26 -123 -42 -184q3 -1 11 -1.5t12 -0.5q5 -1 13.5 -2.5l8.5 -1.5q15 58 23 96
q7 36 18 96zM76 407l27 127q-43 -28 -52 -70q-8 -35 25 -57zM129 315q-26 -116 -41 -166q19 -5 46 -5l20 80q3 12 10.5 40.5t11.5 44.5q-7 1 -23.5 3t-23.5 3zM243 275q-14 -57 -26 -99q38 27 43 53q5 22 -17 46z" />
    <glyph glyph-name="percent" unicode="%" horiz-adv-x="720" 
d="M225 746q69 -1 104 -69h12q47 0 101 20q51 17 70 33q11 9 28 9q26 0 48 -22q21 -23 16 -50q-3 -12 -12 -22l-77 -92l-163 -198l-79 -97l-139 -164q-53 -62 -86 -94q-14 -14 -35 -14q-22 0 -36 16t-9 42l163 182l183 213q111 131 155 191q-66 -29 -127 -37q-2 -23 -5 -36
q-21 -99 -94 -165q-69 -63 -146 -61q-64 1 -96 58q-33 53 -16 133q18 87 83 153q70 72 157 71zM188 672q-35 -16 -67 -63q-29 -43 -38 -88q-8 -36 -1 -68q9 -41 45 -45q36 0 76 52q40 53 52 108q2 11 2 25q-73 15 -69 79zM482 379q55 0 89 -53q35 -54 16.5 -140t-77.5 -147
q-64 -68 -142 -68q-54 0 -87 49q-36 55 -17 144q17 83 77 148q63 67 141 67zM471 309q-29 0 -63 -44q-37 -46 -49 -104q-8 -39 0 -73q8 -42 38 -42q28 0 63 44q36 47 48 104q8 39 1 75q-3 12 -8 20.5t-13 14t-17 5.5z" />
    <glyph glyph-name="ampersand" unicode="&#x26;" horiz-adv-x="686" 
d="M392 747q91 0 144 -47q50 -43 39 -97q-14 -63 -93 -109q-17 -11 -40 -11q-24 0 -39.5 12t-9.5 36l1 5q1 1 2 5q22 10 39.5 23.5t26.5 26.5t12 26v1q6 29 -35 49q-33 16 -77 16q-85 0 -163 -56q-80 -56 -95 -128q-9 -42 15.5 -65t88.5 -34q33 7 66 12q29 3 37 3
q15 0 23 -19q5 -13 2 -27q-4 -19 -20 -34t-36 -14q-6 1 -16.5 1t-16.5 1q-37 2 -50 2q-61 -18 -127 -73q-30 -26 -50.5 -53.5t-25.5 -52.5q-8 -37 14 -59t67 -22q89 0 190 59q90 52 130 117q-35 -4 -74 -15q-21 0 -30 13t-6 26q6 27 83 43q50 10 90 10q25 0 55 -2
q22 -3 44 -3h17q4 0 19 2q17 0 25 -12.5t5 -28.5q-6 -29 -36 -33q-35 -5 -65 -5h-11q-9 0 -14 1l-6 -29q-3 -9 -7 -29q-26 -120 -21 -182q-30 -21 -65 -21q-41 0 -40 28q6 40 14 79l3 13q0 4 5 17q-165 -123 -310 -123q-96 0 -140 47q-39 41 -26 101q12 57 68 119
q55 61 128 97q-64 20 -88 49q-32 37 -20 95q12 52 54 98t105 81q58 33 122.5 51.5t118.5 18.5z" />
    <glyph glyph-name="quotesingle" unicode="'" horiz-adv-x="150" 
d="M101 746q15 0 23.5 -5t6.5 -14q-1 -7 -3.5 -14t-7.5 -28q-1 -6 -4.5 -19t-5.5 -20q-4 -15 -11 -46q-18 -85 -18 -131q-30 -24 -69 -24q-25 0 -30 15q1 19 21 117l10 46q6 28 10 41l7 31l3 18q2 10 13 17.5t26 11.5t29 4z" />
    <glyph glyph-name="parenleft" unicode="(" horiz-adv-x="301" 
d="M313 780q11 0 16 -11.5t2 -26.5q-5 -26 -24 -36q-96 -64 -159 -159q-62 -93 -84 -198q-23 -105 1 -188q23 -92 94 -144q12 -11 7 -33q-4 -18 -14.5 -30.5t-23.5 -12.5q-5 0 -7 2q-114 45 -160 160q-41 103 -12 237q29 141 120 256q98 124 230 180q8 4 14 4z" />
    <glyph glyph-name="parenright" unicode=")" horiz-adv-x="302" 
d="M22 782q6 0 12 -4q110 -57 155 -180q40 -118 11 -256q-28 -134 -112 -237q-93 -114 -228 -160q-9 -2 -10 -2q-13 0 -18 13t-1 31q4 22 21 33q92 52 156 143q60 87 81 188q22 103 -1 198t-92 159q-14 10 -8 36q3 15 13 26.5t21 11.5z" />
    <glyph glyph-name="asterisk" unicode="*" horiz-adv-x="439" 
d="M244 736q15 0 23 -5t5 -16q-1 -6 -4 -15q-1 -4 -2.5 -9t-3 -11.5t-3.5 -11.5l-11 -41q-2 -6 -4 -14l-4 -16t-4 -13l65 39q6 4 13 8t13 7t9 5q11 6 15 7t10 1q22 0 40 -16q17 -15 14 -30q-2 -8 -12 -14q-37 -17 -161 -88q63 -46 121 -80q2 -7 -1 -18q-4 -22 -19 -39
t-35 -17q-3 0 -3 1h-4q-9 5 -20 13q-11 7 -26 18q-11 8 -33.5 25t-23.5 18q-15 -76 -16 -124q-30 -30 -70 -30q-23 0 -30 17q1 11 6 27l7 34l16 76q-46 -28 -69 -45l-38 -27h-3q-27 0 -46 15q-18 15 -15 32q1 4 5 10q1 1 23 16l44 27q12 7 31.5 18.5t32.5 19.5t21 13l-61 48
q-5 5 -12.5 10.5t-11 8t-8.5 7t-6.5 6.5t-4 6.5t-1.5 7.5t1 9q2 10 8 19.5t13.5 17t15.5 12t15 4.5q9 0 12 -4q2 -1 34 -28l54 -48q15 58 18 75q2 7 4 18t3 15.5t3.5 11.5t5.5 10.5t8 7.5t12 8q23 11 45 11z" />
    <glyph glyph-name="plus" unicode="+" horiz-adv-x="434" 
d="M194 545q24 0 40 -18l-4 -19q-2 -5 -5 -16.5t-4 -17.5q-2 -5 -4 -12.5t-3.5 -15t-3.5 -13t-3.5 -12.5t-3 -12.5t-2.5 -9.5q15 -1 41 -1h32q30 0 53 2q6 1 16 2.5t13 1.5q6 -24 1 -44q-7 -32 -37 -38q-16 0 -32 1h-56h-23q-16 0 -25 -1q-11 -51 -18 -123q-30 -26 -65 -26
q-27 0 -36 18q2 16 6 37l8 37l12 55q-71 -2 -120 -8q-18 0 -27 6t-9.5 17t1.5 25q4 15 10 33q36 6 64 7q40 2 84 2h14l14 65q1 3 2 9.5t2 9.5t2.5 8.5t2.5 9t3.5 8t5 8t6.5 7t8 6.5q18 12 40 12z" />
    <glyph glyph-name="comma" unicode="," horiz-adv-x="203" 
d="M-26 96q26 0 39.5 -19t8.5 -43q-6 -31 -30 -61q-10 -14 -33 -32q-15 -10 -29 -10q-12 0 -21 7t-7 16q1 5 8 12q6 4 10 9l5 5l5 8q-18 5 -26.5 18t-4.5 31q5 24 27 41.5t48 17.5z" />
    <glyph glyph-name="hyphen" unicode="-" horiz-adv-x="478" 
d="M361 364q1 -23 -4 -47q-14 -62 -58 -62q-7 0 -8 1q-45 3 -60 3q-50 0 -145 -6q-86 -7 -112 -7q-8 0 -14.5 5.5t-9 15.5t0.5 24q7 31 37 57l2 -3q3 -3 6 -5q8 -4 44 -4q10 0 23 1q29 0 48 1q10 0 122 3q8 0 24.5 0.5t23.5 1.5q22 0 34 2q10 0 21 4q4 1 12 6q7 6 13 9z" />
    <glyph glyph-name="period" unicode="." horiz-adv-x="203" 
d="M-19 110q24 0 37.5 -15.5t8.5 -38.5q-4 -17 -16 -32t-30 -23.5t-37 -8.5q-24 0 -36 15t-8 38q6 26 30 45.5t51 19.5z" />
    <glyph glyph-name="slash" unicode="/" horiz-adv-x="453" 
d="M412 745q21 0 31 -10.5t7 -28.5l-2 -9l-3 -4l-138 -192l-134 -189q-166 -235 -192 -268q-32 -40 -46 -51q-16 -14 -27 -14h-1q-22 0 -36 16t-9 39l2 6l2 3q-1 0 1 3q127 157 330 440q146 200 183 244q11 15 32 15z" />
    <glyph glyph-name="zero" unicode="0" horiz-adv-x="659" 
d="M346 756h2q49 0 90 -33q11 2 13 2q15 0 28 -17l4 -4v-1q104 -138 63 -332q-16 -75 -53 -148t-88 -132q-115 -131 -240 -131q-137 0 -187 132q-41 109 -9 255q18 89 72 183q59 101 131 158q86 68 174 68zM318 682q-33 0 -70.5 -29t-72.5 -79q-76 -108 -104 -238
q-12 -57 -13 -105q-3 -82 20 -129q31 -62 103 -66q59 -1 118 60q51 53 91 142q40 87 55 157q29 128 -23 227q-10 -4 -18 -4q-19 0 -26 17q-7 18 -15 28t-18.5 14.5t-26.5 4.5z" />
    <glyph glyph-name="one" unicode="1" horiz-adv-x="278" 
d="M173 740q31 -4 44 -17.5t13 -39.5q-27 -79 -64 -203q-51 -164 -75 -276q-26 -124 -30 -221l-116 -28q12 79 14 86q9 59 31 163q37 174 83 315q-65 -51 -118 -79q-23 0 -30.5 14t0.5 33q111 98 173 161q51 54 75 92z" />
    <glyph glyph-name="two" unicode="2" horiz-adv-x="570" 
d="M377 758q75 0 111 -36.5t24 -96.5q-38 -175 -503 -586q143 34 275 34q67 0 103 -10q19 -5 27.5 -13t6.5 -18q-4 -15 -27 -34q-14 -12 -21 -17q-5 -3 -12 -8t-8 -6q-35 11 -139 11q-71 0 -160 -7q-84 -8 -124 -22q-29 0 -50 23q-21 20 -16 45q3 14 15 23q113 96 219 197
q130 124 215 225q100 121 113 183q5 26 -7 36t-45 13q-51 0 -126 -44q-67 -38 -98 -68q-16 -16 -37 -16q-11 0 -22 6t-20 21.5t-10 37.5q71 58 155.5 92.5t160.5 34.5z" />
    <glyph glyph-name="three" unicode="3" horiz-adv-x="564" 
d="M359 755q69 0 102 -35t20 -93q-10 -48 -57 -101q-53 -60 -150 -111q122 0 161 -55q26 -35 15 -88q-15 -67 -88 -138q-72 -70 -175 -116q-110 -49 -218 -49q-53 0 -72 7q-35 12 -27 46q7 37 44 50q34 -11 77 -11q118 0 232 64q35 19 62 41.5t45.5 48t23.5 50.5
q7 31 -14 51q-29 26 -108 26q-37 0 -71 -6t-49 -14q-10 -6 -25 -6q-26 0 -44 21q-19 21 -15 42q7 29 45 40q109 29 206 85q110 63 123 129q5 23 -6.5 35.5t-37.5 12.5q-46 0 -122 -35t-147 -88q-13 -9 -30 -9q-24 0 -39.5 18t-9.5 44q8 38 61 75q2 2 6 4.5t5 3.5q7 4 11 7
q2 -8 9 -20q61 36 140 57q64 17 117 17z" />
    <glyph glyph-name="four" unicode="4" horiz-adv-x="580" 
d="M449 752q21 0 42 -7q0 -2 -0.5 -4.5t-0.5 -5v-4.5q-2 -16 -5 -33l-7 -29q-18 -86 -47 -181l-59 -189q48 -1 83 -10q29 -7 50 -19q-6 -29 -28 -48.5t-53 -19.5q-16 4 -37 5q-3 0 -6.5 0.5t-7.5 1t-7 0.5q-14 0 -20 1q-11 -39 -25 -105q-18 -82 -19 -117q-25 -25 -58 -25
q-35 0 -41 24q5 36 9 55l12 57l12 57q4 18 14 56q-180 -6 -270 -15q-1 -1 -4 -1q-26 0 -41 30q-12 25 -10 61q51 48 116 101q161 133 233 200q53 49 97 104q21 60 78 60zM351 557q-84 -82 -167 -150q-83 -70 -170 -130v-3q-1 -3 2 -3h4q2 0 11 1.5t18 3.5q91 12 134 16t91 6
q13 49 39 132q27 89 38 127z" />
    <glyph glyph-name="five" unicode="5" horiz-adv-x="543" 
d="M418 734q99 0 122 -11q1 -15 -2 -31q-11 -53 -76 -65q-31 15 -87 22q-42 5 -96 5q-67 0 -130 -12q-52 -128 -81 -240q103 29 183 29q97 0 144 -42.5t32 -116.5q-11 -51 -55.5 -103t-110.5 -94q-69 -43 -149.5 -68t-161.5 -25h-2q-29 0 -43 27q-12 23 -8 42q2 11 10 19
q9 12 33 11q2 -2 36 -2q43 0 100.5 14t111.5 39q130 60 148 145q10 46 -26 70q-29 19 -80 19q-80 0 -191 -55q-13 -5 -22 -5q-25 0 -41 19q-18 19 -13 43q37 151 57 216q24 77 51 119q68 15 176 24q86 7 171 7z" />
    <glyph glyph-name="six" unicode="6" horiz-adv-x="603" 
d="M203 517q-105 -95 -145 -202q58 79 126 115q61 33 132 33q100 0 144 -69q41 -64 23 -153q-23 -108 -114 -192q-99 -91 -218 -91q-128 0 -185 91q-53 82 -26 210q33 153 156 283q140 151 342 208q4 2 10 2q20 0 34.5 -18t9.5 -38q-2 -9 -10 -16.5t-17 -10.5
q-137 -37 -262 -152zM120 244q-9 -16 -34 -16q-31 0 -46 23q-14 -84 13 -143q35 -76 125 -76q22 0 52.5 14t59.5 40q71 63 90 153q12 55 0 92q-19 53 -84 58q-57 -1 -110 -54q-36 -36 -66 -91z" />
    <glyph glyph-name="seven" unicode="7" horiz-adv-x="529" 
d="M455 736l13 1q30 1 43 -25q11 -23 7 -45q-5 -21 -24 -34q-40 -31 -139 -160q-90 -119 -183 -263q-98 -151 -131 -232q-20 -10 -49 -10q-25 0 -43 9.5t-20 29.5q111 192 270 394l123 148l94 111q-23 -3 -75 -11q-85 -14 -153 -20q-33 -4 -67 -4q-67 0 -89 20
q-18 14 -13 39q4 17 22 36q2 5 7 8q50 -6 128 -6q23 0 140 4q109 4 139 10z" />
    <glyph glyph-name="eight" unicode="8" horiz-adv-x="543" 
d="M524 773q9 -11 6 -27q-14 -65 -80 -143q-50 -60 -186 -180q70 -55 109 -124q43 -80 27 -155q-18 -84 -101 -140q-82 -56 -193 -56q-105 0 -163 53q-57 52 -39 135q14 69 91 152q41 44 145 128q-53 59 -73 106t-12 91q13 59 81 110q72 53 161 53h2q53 0 93 -14.5t56 -33.5
q4 -4 6 -9q10 17 19 37q11 23 31 23q8 0 20 -6zM206 466q136 103 204 187q-8 -3 -18 -3q-21 0 -38 14q-38 32 -86 32q-40 0 -75 -26q-34 -27 -42 -64q-7 -33 7.5 -70.5t47.5 -69.5zM278 276q-16 23 -40 45q-10 9 -44 40q-87 -77 -119 -113q-55 -60 -64 -104q-14 -57 28 -97
q38 -37 97 -37q64 0 112 46q44 41 55 97q15 68 -25 123z" />
    <glyph glyph-name="nine" unicode="9" horiz-adv-x="577" 
d="M470 673q51 -82 24 -212q-33 -153 -144 -280q-114 -131 -277 -203q-14 -5 -23 -5q-30 0 -39.5 22.5t-2.5 56.5q125 33 231 137q79 78 124 174q-19 -27 -54 -48q-66 -40 -140 -40q-90 0 -141 59q-57 66 -35 172q21 100 103 172q88 79 207 78q114 -1 167 -83zM402 471
q22 106 -25 168q-19 25 -45 37.5t-52 12.5q-50 0 -105 -46q-67 -57 -85 -148q-13 -61 20 -101q29 -39 77 -39q39 0 84 25q34 18 74 52q37 0 37 -25q13 33 20 64z" />
    <glyph glyph-name="colon" unicode=":" horiz-adv-x="210" 
d="M31 324q26 0 39.5 -15.5t8.5 -38.5q-5 -25 -30 -43.5t-54 -18.5q-25 0 -39 15.5t-9 37.5q5 25 30 44t54 19zM-21 103q25 0 38.5 -15.5t8.5 -37.5q-5 -25 -29 -43.5t-52 -18.5q-26 0 -38.5 14.5t-7.5 36.5q5 26 30 45q23 19 50 19z" />
    <glyph glyph-name="semicolon" unicode=";" horiz-adv-x="213" 
d="M33 321q25 0 39 -14.5t10 -36.5q-5 -24 -27 -42t-49 -21q-7 -2 -10 -2q-24 0 -37 15.5t-8 38.5q3 15 13.5 28.5t26.5 22t35 10.5q1 1 7 1zM-24 100q25 0 39 -19t9 -42q-7 -35 -30 -60q-19 -23 -34 -31q-12 -10 -28 -10q-14 0 -21.5 7t-5.5 16l1 5q0 2 3 4l1 2l3 1
q10 8 18 21q-39 11 -31 47q5 23 27.5 41t48.5 18z" />
    <glyph glyph-name="equal" unicode="=" horiz-adv-x="406" 
d="M299 465q23 0 35.5 -11t7.5 -31q-3 -17 -20 -41q-55 0 -125 4l-50 3q-17 1 -57 1q-55 0 -109 -8q-20 0 -30 12.5t-6 31.5q3 15 14 29q38 4 172 8q67 2 168 2zM146 344q86 0 166 -12q1 -12 -2 -29q-6 -25 -26 -40q-9 -3 -28 -3q-24 0 -61 3q-49 2 -84 2q-89 0 -163 -15
q-36 7 -26 55q2 10 7 19q96 20 217 20z" />
    <glyph glyph-name="greater" unicode="&#x3e;" horiz-adv-x="407" 
d="M-4 515q78 -50 185 -94q50 -20 79 -29q34 -11 66 -26q1 -15 0 -22q-3 -15 -13.5 -25t-20.5 -13q-19 -4 -48 -12q-65 -17 -135 -37q-39 -11 -131 -41q-7 -3 -23 -8.5t-23 -8.5q-16 0 -23 13t-4 30q2 6 3.5 11t4.5 9t5 7t6.5 6t7 4.5t8.5 4t8.5 3.5t10 3t9.5 3q20 7 116 35
l61 17q-53 20 -105 43q-44 18 -60 28q-24 15 -18 41q5 21 34 58z" />
    <glyph glyph-name="question" unicode="?" horiz-adv-x="515" 
d="M281 732q101 0 155 -60q48 -55 33 -130q-21 -90 -125 -166q-104 -77 -222 -90q-2 -24 -5 -42q-5 -36 -9 -55q-1 -1 -2 -5.5t-1 -5.5t-1 -5t-1.5 -5t-2 -4.5t-3 -5t-3.5 -4t-4.5 -4t-5.5 -3.5t-7 -4q-18 -10 -38 -10q-31 0 -27 27q4 20 6 39q0 5 0.5 12.5l1 15t0.5 12.5
q0 3 0.5 10t1 10t0 9t-0.5 8q3 24 5 32q5 26 22.5 38t51.5 14q124 6 204 54q71 41 85 105q14 65 -30 101q-36 28 -97 28q-50 0 -111 -26q-57 -26 -83 -51q-10 -10 -12 -19l-2 -7q0 -1 1 -2l-1 -4q-21 -10 -41 -10q-27 0 -42.5 16t-10.5 40q11 25 43 51t78 48q102 48 200 48z
M55 104q26 0 40 -13.5t8 -39.5q-6 -28 -37 -44q-28 -14 -51 -14q-26 0 -39.5 15t-8.5 38q6 26 33 43q24 15 55 15z" />
    <glyph glyph-name="at" unicode="@" horiz-adv-x="768" 
d="M430 715q140 0 208 -88q67 -88 37 -231q-28 -130 -110 -209q-33 -32 -69.5 -49.5t-65.5 -17.5q-38 0 -56 28.5t-15 72.5q-85 -76 -156 -76q-63 0 -90 41.5t-12 114.5q26 119 118 203q41 38 86.5 59t85.5 21q41 0 70 -45q3 6 5 9q0 1 3 7q17 7 26 7q17 0 33 -20q2 -3 4 -4
q1 -2 3.5 -4t2.5 -3q1 -1 1.5 -2t0.5 -2q5 -7 2 -19q0 -1 -5 -15q-3 -6 -4 -10q-2 -3 -5 -11q-17 -36 -43 -98q-33 -80 -44 -132q-12 -56 12 -56q9 0 28 16q42 35 79 110q17 36 28 84q21 101 -18 173q-45 79 -154 79q-118 0 -237 -112q-51 -49 -87.5 -109.5t-48.5 -117.5
q-21 -100 25 -162q42 -62 140 -62q68 0 149 34q23 -2 32.5 -11t7.5 -20q-3 -12 -13 -17q-35 -25 -87 -39.5t-108 -14.5q-139 0 -203 81q-64 82 -36 216q25 116 112 215q76 85 182 137q101 49 186 49zM381 522q-21 0 -47.5 -18t-51.5 -48q-57 -69 -74 -148q-7 -33 -2 -57
q5 -33 33 -33q35 0 89 58q49 52 66 95q11 36 12 40q9 45 6 75q-6 36 -31 36z" />
    <glyph glyph-name="A" unicode="A" horiz-adv-x="797" 
d="M461 744q25 0 47.5 -7t31.5 -18l-24 -25q-1 -17 -1.5 -50.5t-0.5 -48.5q-6 -117 3 -235q3 -52 15 -118q53 -2 60 -2q44 0 73 5q26 5 45 13l-78 -90q-23 -2 -42 -2h-18q-6 0 -23 2q36 -118 107 -157q29 -16 65 -22q16 -4 28 -5l28 -6l-151 -43q-80 4 -129 86
q-35 57 -54 160q-94 12 -209 12h-38q-13 -1 -39 -1q-119 -147 -181 -194q-8 -6 -22 -6q-52 0 -82 27l-3 4q0 1 -1 2l-2 1l10 6q7 4 12 8q34 22 83 71q27 26 67 73q-87 -9 -141 -26q-53 -18 -56 -33q-1 -5 2.5 -7.5t8.5 -2.5q24 0 78 30l-1 -6q-2 -5 -3 -8q-5 -16 -14 -27
q-28 -35 -89 -35q-37 0 -60 22q-20 20 -15 45q7 33 75 60q43 16 137 32q24 3 125 13l112 144q84 115 131 188q62 99 79 155q19 16 54 16zM421 561q-105 -165 -219 -313q27 0 40 1h37q99 0 154 -3q-17 131 -12 315z" />
    <glyph glyph-name="B" unicode="B" horiz-adv-x="791" 
d="M146 760q22 0 39 -7q22 -9 19 -24l-3 -12q115 20 229 20q206 0 304 -76q40 -31 55 -68.5t7 -72.5q-13 -62 -92 -116q-66 -45 -156 -73q133 -43 113 -138q-15 -72 -92 -123q-65 -43 -174 -67q-96 -21 -192 -21q-74 0 -130 9q0 -5 2 -6l-1 -2q-1 -7 -6.5 -13t-14 -9.5
t-17.5 -3.5q-18 0 -30 13t-13 38q-73 20 -114 54q-20 18 -14 45q5 26 36 45q1 1 6 3q0 1 2 2l2 1q40 -26 91 -47q9 76 28 219q17 138 43 269q-40 -11 -66 -22q-18 -9 -44 -9q-33 0 -50 22q-14 16 -12 28q2 10 14 18q41 29 182 61q5 24 14 47q2 4 9 10q6 6 26 6zM429 655
q-108 0 -252 -30l-8 -38q-24 -113 -46 -252q-8 -47 -19 -129q-3 -16 -9 -58l-9 -63q85 -18 171 -18q121 0 213 31q90 31 98 66q4 18 -9 38.5t-41 37.5q-67 39 -179 39q-84 0 -178 -22q-2 16 3 39q4 22 16.5 36t29.5 15q188 13 329 59q151 50 165 119q12 53 -71 92
q-81 38 -204 38z" />
    <glyph glyph-name="C" unicode="C" horiz-adv-x="951" 
d="M536 739q136 0 220 -44q98 -51 79 -139q-14 -66 -89 -112q-72 -44 -163 -44q-63 0 -98 28q-41 32 -30 82q10 48 62 81q50 32 106 32q20 0 28 -24q5 -17 0 -43q-2 -8 -3 -11q-1 -1 -2.5 -4.5t-3.5 -9.5t-5 -11q-1 2 -3.5 4.5t-4.5 5t-4 4.5q-15 17 -32 23q-10 4 -25 4
q-34 0 -39 -25q-6 -28 22 -41q24 -11 62 -11q49 0 93 19q45 21 52 53q5 24 -15.5 42.5t-58.5 31.5q-69 23 -151 23q-178 0 -327 -101q-70 -47 -116 -109t-61 -130q-11 -51 4.5 -100t53.5 -88q87 -87 242 -87q125 0 227 41q123 49 287 182l33 27q-5 -18 -11 -45
q-6 -20 -9 -32q-11 -25 -34 -51q-93 -95 -223 -151q-134 -57 -259 -57q-99 0 -183.5 25t-141.5 72q-129 105 -91 282q26 123 134 223q93 84 234 138q126 47 244 47z" />
    <glyph glyph-name="D" unicode="D" horiz-adv-x="900" 
d="M195 771q22 0 33 -5q7 -5 10 -12q-2 -5 -3 -12q-2 -4 -7 -19q94 17 192 17q216 0 332 -95q56 -46 78 -108t7 -135q-26 -119 -139 -215q-105 -91 -258 -145q-150 -53 -293 -53q-97 0 -126 25q-28 24 -29 101q-4 136 35 320q22 104 41 161q-16 -6 -18 -7t-4.5 -2t-5.5 -2
t-5 -2q-47 -20 -76 -20q-24 0 -35 10.5t-7 31.5l1 7q86 49 178 78q4 13 7 21q1 2 2 4.5t1.5 4.5t1.5 4q1 1 1.5 3t1 3.5t1.5 2.5q1 5 3 8q31 30 80 30zM387 661q-94 0 -188 -22q-57 -183 -82 -300q-42 -197 -15 -266q7 -22 51 -22q82 0 203 38q135 43 230 114
q115 86 137 190q27 126 -78 202q-96 66 -258 66z" />
    <glyph glyph-name="E" unicode="E" horiz-adv-x="888" 
d="M526 743q128 0 228 -54q45 -25 68 -55.5t17 -59.5q-6 -25 -30 -47q-26 -23 -55 -23q-12 0 -22.5 5t-15.5 9.5t-16 15.5l-8 11q2 -1 14 -1q24 0 28 16q4 18 -16 35.5t-55 30.5q-75 28 -164 28q-142 0 -273 -51q-62 -24 -101.5 -53.5t-45.5 -58.5q-8 -36 33 -64
q30 -22 81 -35q171 64 300 64q54 0 86 -17q31 -16 26 -38q-3 -15 -21.5 -31t-47.5 -28q-69 -29 -164 -29q-75 0 -170 15q-67 -32 -107 -66q-55 -47 -64 -92q-13 -59 65 -88q67 -25 167 -25q131 0 255 36q139 39 250 113q12 -28 7 -54q-6 -26 -25.5 -48t-43.5 -32
q-217 -90 -447 -90q-167 0 -255 52q-87 49 -68 138q21 99 173 181q-64 22 -94 53q-36 36 -26 85v1q0 1 2 2q17 77 113 139q86 55 206 83q112 27 216 27zM444 403q-51 0 -130 -30q39 -6 63 -6q58 0 126 23q-2 1 -5 2l-5 2l-2 1t-3 1q-1 1 -2.5 1.5t-2.5 0.5q-4 0 -5 1
q-13 4 -34 4z" />
    <glyph glyph-name="F" unicode="F" horiz-adv-x="769" 
d="M370 741q153 0 244 -40q106 -47 88 -135q-16 -75 -105 -191h27q7 -1 20 -1q15 0 22 1q16 0 26 1q32 0 86 4q-3 -3 -5 -8q-12 -16 -24 -25q-8 -7 -19 -11q-23 -10 -66 -18q-42 -8 -119 -9q-50 -59 -107 -115q-82 -82 -158 -144q-91 -75 -145 -93q-33 4 -50 18q-6 7 -15 28
q92 57 205 161q87 79 150 151h-27q-87 0 -192 -15q-83 -12 -171 -36q-19 2 -28 23q-11 20 -8 34q4 19 23 26q128 48 281 48q82 0 180 -11q98 118 113 186q11 54 -53 75q-44 14 -133 14h-8q-163 0 -318 -43q-71 -20 -116 -45q-48 -26 -53 -50q1 -1 0.5 -4t0.5 -4q2 -3 3 -5
q1 -4 2 -5q13 -12 52 -12q68 0 122 38q45 31 91 92q28 -5 40.5 -21.5t7.5 -40.5q-10 -48 -74 -88q-74 -46 -188 -47q-89 0 -119 36q-21 25 -13 64q15 73 111 126q77 43 206 70q103 21 213 21z" />
    <glyph glyph-name="G" unicode="G" horiz-adv-x="1033" 
d="M571 739q191 0 334 -105q3 -4 2 -10q-4 -16 -34 -33q-29 -16 -58 -24q-100 90 -277 90q-185 0 -316 -88q-59 -39 -96.5 -91.5t-49.5 -110.5q-30 -139 71 -223q93 -78 256 -78q98 0 200 57q50 29 84.5 65.5t42.5 76.5q4 16 6 38q-40 -1 -102 -9q-58 -7 -128 -7
q-58 0 -106 9q-28 5 -71 21l14 63q3 -1 10 -3t10 -3q17 -6 48 -11q20 -2 35 -2q32 0 80 6q120 13 222 23q66 5 116 5q62 0 82 -10q29 -14 20 -56q-4 -17 -14 -35q-2 -5 -7 -10q-1 -2 -3 -4t-3.5 -4t-2.5 -3q-2 1 -5 5l-2.5 1.5t-3.5 2.5t-4.5 3t-4.5 3q-3 2 -10 6
q-27 13 -59 13q-6 0 -10 -2q-18 -74 -24 -104q-25 -118 -23 -177q-30 -28 -73 -28q-19 0 -35 7q-4 39 6 91q-69 -46 -153 -74q-91 -32 -180 -32q-96 0 -192 37q-109 41 -165 118q-66 90 -39 213q16 77 77 148q53 64 141 120q89 55 191.5 85t202.5 30z" />
    <glyph glyph-name="H" unicode="H" horiz-adv-x="875" 
d="M752 741q21 0 32 -14l-55 -223l-21 -83l-19 -75q51 6 87 22q15 8 19 12q3 1 6 4q1 0 2 2t2 2q10 -5 14.5 -8t9 -10t2.5 -16q-3 -14 -12 -22q-74 -51 -148 -67q-13 -44 -27 -107q-19 -89 -23 -163q-26 -13 -44 -13q-16 0 -25 11.5t-11 33t-1 42t5 49.5q6 55 15 95
q3 15 5 22l5 22q-70 0 -144 10q-34 4 -52 7q-61 10 -119 13q-50 2 -91 2h-33q-10 0 -32 -2q-14 -51 -24 -97q-12 -57 -15 -95q-1 -12 -7 -54q-5 -25 -34 -45q-27 -19 -50 -19q-9 0 -16 5q-3 3 -4 7q-2 6 0 27q2 26 8 63q6 42 22 116l16 76q-12 -3 -23 -6q-3 -1 -7 -2
t-9 -2.5t-9 -2.5q-22 0 -33.5 17.5t-7.5 37.5q3 16 13.5 23.5t38.5 18.5q26 10 62 17q15 62 21 91q14 65 21 116q6 49 19 109v1q4 20 31 36q23 13 50 13q38 0 36 -29q-2 -25 -7 -57q-10 -58 -20 -104q-15 -71 -41 -161h14q68 0 221 -25q9 -1 30.5 -5t31.5 -5.5t28.5 -4.5
t30.5 -4t27.5 -3t29 -2.5t26.5 -0.5h17q13 59 19 84l14 68l27 132q8 42 10 82q16 13 42 25q29 13 54 13z" />
    <glyph glyph-name="I" unicode="I" horiz-adv-x="837" 
d="M521 752q50 0 99 -27t84 -76q78 -118 41 -292q-17 -82 -65 -153.5t-118 -124.5q-68 -51 -148 -79.5t-160 -28.5q-75 0 -143.5 26.5t-119.5 69.5q-50 42 -74.5 90t-15.5 89q16 78 117 78q50 0 110 -21q58 -20 90 -54q7 -7 4 -19q-2 -11 -14 -19.5t-31 -9.5l-17 7
q-17 5 -84 23q-37 7 -40 7h-5q-23 0 -26 -15l-1 -3l1 -1q2 -23 17.5 -52.5t43.5 -54.5q72 -68 182 -68q148 1 254 90q105 87 135 237q27 126 -16 221q-13 29 -31 50t-42 32.5t-51 11.5q-42 0 -90 -47q-62 -61 -85 -167q-19 -89 1 -161q17 -62 65 -131q10 -13 8 -25
q-3 -14 -17 -23.5t-31 -9.5q-20 0 -34 12q-139 115 -94 330q28 130 125 214q86 74 176 74z" />
    <glyph glyph-name="J" unicode="J" horiz-adv-x="713" 
d="M321 745q171 -1 239 -123q59 -110 23 -279q-16 -74 -44 -149h5q38 0 65 -16q10 -11 7 -26q-6 -28 -46 -50q-20 10 -25 12q-11 5 -36 7q-79 -168 -209 -293q-113 -107 -238 -167q-110 -54 -185 -54q-83 0 -120 37t-22 104q21 100 153 207q128 104 320 173
q-112 29 -175 111q-74 96 -43 240q26 122 122 197q90 71 209 69zM330 681q-93 0 -159 -66q-59 -57 -77 -141q-17 -82 15 -153q27 -64 83 -105q54 -39 109 -39q22 0 42.5 7.5t32.5 18t14 20.5v1q2 9 15 18q1 1 2.5 2t2.5 2t2 1q1 -1 4 -2t4 -2q13 -9 16 -14q3 -6 4 -21
q22 66 31 106q40 187 -8 285q-21 42 -56 62t-77 20zM405 118q-99 -20 -224 -78q-141 -65 -237 -141q-113 -89 -130 -169q-5 -21 3 -36q12 -24 50 -24q49 0 120 32t146 90q178 136 272 326z" />
    <glyph glyph-name="K" unicode="K" horiz-adv-x="704" 
d="M675 746q21 -6 35.5 -17.5t20.5 -26t2 -30.5q-3 -14 -10.5 -26t-21.5 -25.5t-43 -37.5q-95 -80 -225 -168q-81 -53 -142 -85q57 -47 89 -111q81 -151 142 -205q69 -61 185 -62q-23 -38 -44 -56q-29 -27 -57 -27q-7 0 -17 3q-77 21 -139 79q-52 49 -98 125l-50 88
q-42 77 -99 125q-52 -22 -121 -35q-7 -28 -10 -41l-9 -41q-10 -46 -19 -100q-2 -11 -5 -25.5t-5.5 -29t-4.5 -24.5q-39 -24 -65 -24q-19 0 -27 13q0 30 10 88q13 70 17 88q6 30 11 46l11 53q-59 12 -49 59q9 42 81 71l27 110q16 66 21 89q13 63 19 115q22 12 58 21
q13 3 24 3q39 0 30 -41l-2 -7q-8 -38 -26 -110q-5 -19 -22 -78l-25 -89q52 -6 89 -20q140 83 198 121q143 93 202 147q35 31 49 57q2 3 6 11q0 2 1.5 5.5t2.5 4.5q1 7 3 10z" />
    <glyph glyph-name="L" unicode="L" horiz-adv-x="494" 
d="M390 740q61 0 92 -52q31 -53 15 -127q-15 -70 -74 -135t-157 -118q-11 -53 -28 -109q-28 -87 -56 -131q58 -66 120 -104q83 -50 166 -50h5q83 0 122 10q51 12 117 51q4 -9 5 -10q4 -16 6 -26q0 -10 -1 -16q-5 -21 -30 -38q-23 -15 -70 -30q-65 -22 -133 -22
q-113 0 -204 50q-67 37 -155 120q-80 -77 -189 -77q-74 0 -125 41q-55 44 -42 103q6 26 21.5 47.5t39 36t56 22.5t70.5 8q49 0 83.5 -13t72.5 -43q16 34 45 131q-55 -24 -85 -24q-37 0 -49 36l-5 15l19 3q4 0 10.5 1.5t18.5 4t22 4.5q37 8 85 27l19 88q18 93 42 173
q18 66 47 100q31 35 70 48q20 5 34 5zM363 674q-4 -3 -9 -10q-5 -6 -12 -25q-16 -42 -33 -122l-9 -42q-5 -24 -11 -62l-6 -29q94 74 113 161q9 44 -4 90q-4 11 -9.5 20t-10.5 13.5t-9 5.5zM-69 110q-32 0 -61 -11q-36 -14 -42 -41q-6 -28 31 -46q29 -17 77 -17q76 0 134 59
q-25 19 -40 28.5t-42 18.5t-57 9z" />
    <glyph glyph-name="M" unicode="M" horiz-adv-x="1006" 
d="M879 745q28 0 41 -30l12 -5q6 -21 -6 -113q-8 -63 -21 -122q-6 -28 -10 -43q-1 -5 -11 -43.5t-16 -63.5q-5 -22 -17 -76q-17 -82 -22 -132q-8 -71 11 -112q-1 -1 -6.5 -4t-7.5 -4.5t-7 -4t-8 -4.5t-7.5 -4t-8.5 -4q-30 -15 -49 -15q-20 0 -30 16q-3 46 1 90q5 44 27 149
q4 21 18 75l20 82l21 83q7 27 17 76l5 21l-34 -60l-37 -66q-6 -10 -45 -78.5t-53.5 -93.5t-43 -71.5t-51.5 -78.5q-60 -88 -106 -124q-30 -25 -54 -25q-21 0 -32 20q-11 21 -26 90q-6 26 -14 74q-4 21 -20 93q-12 51 -23 117q-5 30 -10 63q-9 55 -11 69q-10 -47 -14 -68
l-14 -64q-36 -172 -81 -267q-64 -130 -153 -130q-77 0 -101 84q-20 70 -2 157q26 119 102 192q14 14 39 14q19 0 33 -5t20 -13t3 -18q-3 -15 -24 -24q-20 -8 -50 -50q-36 -51 -47 -108q-11 -50 -2 -99q9 -56 37 -57q16 3 33 33q32 56 64 170q31 117 50 201l15 70l2 7
q12 57 18 115q5 29 4 50q-1 19 -2 22q15 22 45 34q23 10 47 10q21 0 31 -9q17 -57 31 -131q24 -125 33 -181l16 -95q16 -105 29 -169q4 -33 12 -63q17 15 35 40t27.5 40t31.5 52l101 172q72 125 101 168l34 51l25 35q10 18 15 29q14 30 25 38l2 2q5 1 8 6q14 18 35 18z" />
    <glyph glyph-name="N" unicode="N" horiz-adv-x="838" 
d="M813 785l46 -73q-19 -16 -36 -32q-37 -33 -56 -80q-11 -30 -20 -69q-12 -57 -22.5 -135t-29.5 -169q-24 -112 -52 -169q-43 -86 -102 -86q-47 0 -86 50q-39 48 -80 135q-31 62 -57 138q-29 88 -62 252q-19 -119 -31 -178q-22 -102 -47 -172q-33 -95 -75 -145
q-50 -62 -114 -62q-74 0 -100 81q-20 67 -3 148q25 117 103 193q13 14 40 14q25 0 42 -10q19 -12 16 -28q-3 -14 -23 -24v-1h-2q-27 -14 -53 -54q-34 -50 -44 -103q-10 -49 -2 -98q10 -55 36 -56q24 4 57 69q32 63 61 196l43 213q20 99 21 136q0 4 1 10v4.5v5.5q5 21 40 40
q33 18 63 18q19 0 27 -11q6 -8 7 -17l20 -74q12 -46 33 -147q26 -134 72 -253q49 -132 107 -178q26 38 49 148q21 94 33.5 192t25.5 160q14 65 51 122q37 59 103 99z" />
    <glyph glyph-name="O" unicode="O" horiz-adv-x="885" 
d="M470 735q29 0 47 -2t35.5 -9.5t24.5 -22.5q56 -8 104 -37q61 -37 96 -105q63 49 124 116l10 -11q29 -28 22 -63q-5 -23 -26 -40q-12 -10 -19 -15l-24 -20q-31 -26 -65 -48q7 -54 -6 -116q-16 -76 -60 -145t-112 -122q-147 -116 -350 -116q-86 0 -155 27t-113 76
q-96 103 -63 256v2q9 41 28 81t46.5 75t60.5 66.5t71 58.5q76 54 162 84t162 30zM341 627q-116 -44 -193 -115q-83 -77 -103 -170q-30 -143 48 -223q68 -72 192 -72q152 0 270 92q52 41 87 93.5t46 106.5q8 35 6 74q-118 -58 -213 -58q-107 0 -159 58q-47 52 -32 124
q10 47 51 90zM501 624q-54 0 -93 -31q-36 -30 -45 -71q-6 -28 8 -49t45.5 -32.5t75.5 -11.5q78 0 184 61q-23 62 -70.5 98t-104.5 36z" />
    <glyph glyph-name="P" unicode="P" horiz-adv-x="836" 
d="M212 749q6 0 8 -1l-2 -13q-1 -1 -1.5 -2.5l-1 -3t-1 -3.5t-1.5 -4q106 22 219 22q207 0 305 -88q43 -39 58 -89.5t4 -103.5q-21 -97 -115 -166q-81 -59 -203 -91q-102 -28 -211 -28q-99 0 -162 23q-11 8 -8 22q3 16 17 30.5t32 14.5q3 0 11 -2q36 -15 109 -15
q76 0 168 22q97 23 163 67q74 51 89 119q9 44 -9 84t-58 71q-85 65 -222 65q-38 0 -75 -4q-74 -8 -133 -22q-38 -133 -73 -296q-24 -112 -33 -181q-20 -127 -10 -179q-1 -1 -2.5 -2t-2.5 -1l-5 -4q-33 -23 -56 -23q-16 0 -26 11q-15 16 -12 53q24 236 78 488l20 95
q-68 -30 -112 -61q-12 -10 -18 -14q-19 -13 -28 -21q-1 -2 -4.5 -5.5t-5.5 -4.5l-7 9l-3.5 3.5t-3.5 4.5q-7 6 -11 15q-10 14 -7 26q3 16 21.5 29.5t72.5 42.5q50 26 126 51l3 15q14 18 44.5 31.5t65.5 13.5h9z" />
    <glyph glyph-name="Q" unicode="Q" horiz-adv-x="970" 
d="M515 736q197 0 298 -101q45 -45 61 -104.5t3 -124.5l-1 -2q-20 -94 -91.5 -175.5t-190.5 -144.5q52 -33 58 -37q53 -36 111 -51q31 -8 61 -8q47 0 101 18q2 0 5 1l2 1q16 0 26 -24q9 -21 4 -41q-3 -15 -16 -18q-73 -22 -123 -22q-76 0 -162 45q-35 17 -77 44
q-26 16 -85 49q-146 -56 -255 -56q-71 0 -114 25q-49 28 -38 82q11 50 71 79q54 26 119 26q121 0 248 -74q197 95 235 276q27 125 -47 198q-73 73 -224 73q-140 0 -256 -76q-130 -85 -158 -213q-22 -104 51 -181q-9 -25 -39 -37q-24 -11 -49 -11q-3 0 -4 1q-1 0 -3.5 0.5
t-3.5 0.5q-3 0 -4 1q-91 96 -63 229q14 67 58.5 130t113.5 112q156 110 378 110zM284 109q-37 0 -69 -8q-31 -8 -34 -21q-2 -10 15 -17q16 -9 58 -9q70 0 160 25q-68 30 -130 30z" />
    <glyph glyph-name="R" unicode="R" horiz-adv-x="849" 
d="M144 730q35 0 37 -21q-1 -1 -1 -3v-4.5v-5.5q-2 -8 -3 -27q52 19 134 37q92 19 172 19q145 0 237 -56q48 -29 71 -70t13 -91q-16 -75 -85 -137q-100 -91 -301 -146q44 -24 80 -56q6 -6 19 -18t15 -14q10 -9 34 -34l28 -27l27 -27q32 -28 57 -47q63 -46 127 -46
q15 0 36 -4q1 -9 -2 -22q-7 -31 -38 -59q-23 -6 -53 -6q-75 0 -149 58q-44 34 -119 124q-54 66 -88 98q-50 46 -96 57q-40 -5 -73 -5q-22 0 -36 3t-21.5 8.5t-16.5 15.5q6 27 21 45q17 23 42 23q28 -8 47 -8q56 0 159 31q116 35 199 85q100 61 114 127q11 51 -34 80
q-38 24 -99 33q-43 6 -89 6q-171 0 -350 -75l-10 -49q-29 -136 -46 -200q-26 -99 -47 -200q-9 -42 -17 -88q-4 -23 -8 -45l-1 -2q-2 -12 -16 -19.5t-34.5 -7.5t-31.5 9t-10 24q7 43 25 136l41 200q7 36 11 50l8 37q5 21 8 31l6 30l10 45q-18 -6 -38 -16q-22 -10 -32 -13
q-31 -12 -63 -12h-15q-5 0 -14 2l-13 98h29q30 0 62 8q31 8 96 33q3 29 4 47q1 19 2 22q3 14 29 28q22 11 50 11z" />
    <glyph glyph-name="S" unicode="S" horiz-adv-x="898" 
d="M495 734q132 0 237 -36q121 -42 107 -108q-8 -39 -53.5 -65t-107.5 -26q-69 0 -117 33q-53 35 -40 96l2 10q40 -33 79 -51.5t88 -18.5q52 7 56 25q-1 4 -13 18q-32 29 -117 47q-48 9 -113 9q-141 0 -240 -30q-127 -38 -153 -108q-2 -22 25.5 -40.5t78.5 -34.5
q41 -13 105 -28q15 -3 36.5 -8t40.5 -9.5t35 -8.5q75 -17 122 -31q72 -21 116 -42q57 -29 84 -64t17 -83q-20 -92 -126 -145q-108 -54 -275 -54q-151 0 -278 42q-148 49 -213 140q6 25 27.5 37t49.5 12q26 0 36 -14q56 -71 181 -108q105 -31 227 -31q89 0 164 23
q92 28 102 83q8 39 -46 74q-50 30 -129 53q-63 18 -141 35q-221 50 -289 87q-42 22 -56 51t-5 72q20 85 190 146q149 51 306 51z" />
    <glyph glyph-name="T" unicode="T" horiz-adv-x="413" 
d="M-211 742q92 -43 261 -43q60 0 152 8q91 9 206 17q83 6 139 6q51 0 84 -5q13 -3 10 -19q-5 -21 -28 -44q-25 -26 -41 -26h-1q-23 0 -45 1t-78 1q-150 0 -223 -7q-27 -93 -57 -235q-24 -112 -35 -196q-17 -129 -3 -192q-11 -14 -32 -22t-42 -8q-37 0 -38 28q-1 37 10 129
q10 91 40 235q30 139 66 251q-80 -11 -169 -11q-134 0 -189 29q-21 10 -14 44q6 27 27 59z" />
    <glyph glyph-name="U" unicode="U" horiz-adv-x="858" 
d="M774 742q29 0 33 -22q-34 -98 -66 -216q-28 -101 -50 -208q-9 -39 -14 -95q-6 -68 0 -122q6 -63 28 -81q-15 -23 -38 -35.5t-44 -12.5q-22 0 -31 11q-13 13 -17 68q-5 56 1 133q-80 -108 -183 -154q-73 -33 -153 -33q-192 0 -250 152q-48 124 -3 338q23 104 76 247
q43 27 79 27q16 0 41 -9l-48 -142q-29 -83 -47 -168q-35 -163 -1 -252q42 -112 192 -112q79 0 156 68q61 54 120 155q47 83 76 164q6 43 21 112q18 87 40 158q46 29 82 29z" />
    <glyph glyph-name="V" unicode="V" horiz-adv-x="678" 
d="M67 755q64 -4 92 -113q7 -29 20 -113q1 -10 3 -31t3 -31q6 -77 14 -133q15 -100 44 -178q16 -45 40 -77q25 33 53 99q7 16 29 71q50 130 104 237q82 158 203 226q64 36 152 38q22 0 39 -5t28 -14.5t15 -22.5t1 -28q-7 -28 -25.5 -49t-41.5 -21q-4 0 -14 2q-4 44 -40 43
q-49 -1 -107 -56q-45 -43 -95 -119q-36 -53 -66 -116l-32 -68q-40 -90 -86 -176q-24 -43 -49 -80q-22 -30 -43 -51q-28 -27 -56 -27q-12 0 -23.5 7.5t-16.5 14.5t-13 20q-41 61 -71 157q-39 121 -45 247q-3 43 -4 82q-2 91 -14 138q-8 25 -23 29q-13 0 -32 -23
q-22 -27 -30 -63q-28 -132 50 -240q-41 -18 -67 -18q-53 0 -73 59q-19 55 -13 116q1 25 7 52q16 77 62 141q54 75 121 74z" />
    <glyph glyph-name="W" unicode="W" horiz-adv-x="1024" 
d="M186 751q23 0 33 -22q8 -20 3 -45q-2 -8 -7 -24q-51 -92 -81 -232q-32 -151 -15 -255q20 -127 112 -131q57 -1 128 109q-15 93 14 230q13 59 33 123q22 71 51 134q32 69 56 86q43 24 69 24t34 -20q12 -29 2 -113q-6 -54 -15 -96q-23 -106 -58 -201q-47 -123 -100 -197
q23 -78 102 -78q87 0 156 87q52 66 91 171q23 64 36 128q25 115 29 277q18 17 41.5 28.5t42.5 11.5q20 0 29 -15q1 -146 -32 -298q-25 -118 -67 -210q-54 -115 -124 -175q-84 -74 -192 -74q-115 0 -166 82q-82 -85 -175 -85q-146 0 -189 154q-37 131 2 318q19 87 52 174
q-96 -60 -144 -84q-76 -37 -112 -37q-33 0 -45 30q-10 22 -7 62h13q5 -1 10 -1q57 0 145 39q56 25 144 75q11 6 25 13.5t23 12.5t15 8q28 13 38 16zM522 634q-20 -30 -48 -111q-23 -68 -39 -143q-18 -85 -14 -130q31 63 51 124q27 85 39 142q14 67 11 118z" />
    <glyph glyph-name="X" unicode="X" horiz-adv-x="823" 
d="M114 744q14 0 26.5 -3t23.5 -9t21 -15t19.5 -21.5t17.5 -28t16 -34.5q2 -7 11 -25l23 -48l64 -143l282 242l66 59q24 22 25 24q28 -1 47 -18t14 -40l-1 -4q-1 -1 -2 -4q-4 -4 -19 -18l-38 -33l-50 -44l-59 -50l-126 -106l-56 -48l-47 -39l32 -64q26 -56 53 -105
q3 -7 18 -34q2 -4 7 -11t5 -8q14 -25 23 -38q8 -12 12 -17q31 -36 72 -36q39 0 94 58q18 18 42 51q12 16 16 23q2 3 7 10t7 11q51 -18 40 -67q-4 -19 -24 -46.5t-50 -52.5q-79 -64 -164 -64q-65 0 -108 32q-31 23 -67 82q-7 11 -20 35q-16 27 -21 36q-33 58 -65 127
l-147 -124q-95 -80 -131 -105q-41 -30 -85 -50q-20 -8 -27 -8q-24 0 -26 19q-3 13 2 38l2 3h6q14 0 48 30l34 29q3 2 7.5 6.5t13.5 12t16 13.5l153 131l99 85q-32 72 -73 176q-21 55 -54 132q-13 30 -33 30q-22 0 -45 -26q-21 -26 -28 -57q-7 -26 -2 -60q7 -40 26 -40
q1 0 2 1h1q-8 -33 -29 -49t-45 -16q-34 0 -44 49q-12 44 -3 86q18 83 77 134q52 44 118 44z" />
    <glyph glyph-name="Y" unicode="Y" horiz-adv-x="786" 
d="M710 737q25 0 31 -20q-30 -87 -51 -166q-8 -27 -21 -79l-44 -172q-24 -89 -51 -162q-17 -43 -36 -82q95 -2 146 -16q12 -11 8 -30q-6 -29 -42 -58q-33 18 -59 23q-29 5 -94 11q-97 -152 -237 -230q-135 -75 -277 -75q-85 0 -128 31q-37 26 -29 64q15 71 124 133
q90 51 239 94q129 36 249 49q18 34 37 74q-114 -89 -254 -89q-183 0 -246 130q-53 111 -13 301q25 117 76 245q40 23 79 23q18 0 41 -8q-21 -62 -49 -133q-28 -72 -46 -158q-30 -140 4 -220q43 -109 193 -109q188 0 277 246q22 96 45 182q30 114 50 175q49 26 78 26z
M395 -15q-165 -18 -312 -87q-63 -29 -102 -59.5t-44 -53.5q-4 -17 23 -28q25 -10 51 -10q85 0 188 60q114 67 196 178z" />
    <glyph glyph-name="Z" unicode="Z" horiz-adv-x="709" 
d="M-11 746q43 -23 123 -32q56 -6 134 -6q62 0 205 13q133 12 181 12q39 0 60 -5q5 -2 11 -4t11 -3.5t9 -2.5v-4v-4q0 -3 -1 -8q-5 -27 -39 -55q-8 -8 -21 -16l-66 -57l-117 -101q-162 -139 -281 -231q-107 -81 -210 -177q125 27 213 27q83 0 179 -24q124 -31 215 -46
l-13 -20q-16 -25 -33 -40q-25 -24 -43 -24h-2q-12 2 -40 12q-5 1 -10.5 3t-12 4t-10.5 4q-37 12 -39 13q-114 32 -192 32q-139 0 -279 -41q-9 -2 -14 -2q-29 0 -47 29q-15 26 -10 49q1 6 4 12q26 33 97 92l142 114l109 81q204 149 371 321h-10q-59 0 -224.5 -24t-236.5 -24
q-58 0 -97 14q-41 15 -28 79q5 22 12 40z" />
    <glyph glyph-name="bracketleft" unicode="[" horiz-adv-x="210" 
d="M46 777q5 0 19 -1.5t22 -2.5q22 -3 56 -3q50 0 88 3q1 1 3 1q14 0 20 -15t2 -33q-6 -29 -31 -29q-26 0 -73 -6q-9 -32 -60 -252q-46 -198 -65 -289l-13 -59q-8 -36 -10 -51q22 -2 34 -2h35q11 0 16 -9.5t2 -23.5q-4 -18 -15.5 -32t-25.5 -16q-56 -7 -94 -7q-32 0 -51 4
q-18 5 -28 6q15 41 46 171q18 78 58 263q28 136 47 238q18 96 18 145z" />
    <glyph glyph-name="backslash" unicode="\" horiz-adv-x="452" 
d="M57 742q19 0 26 -15q29 -67 93 -288q81 -278 130 -406q-5 -22 -27 -38.5t-43 -16.5q-15 0 -22 10q-12 19 -34 88q-22 68 -48 168q-87 324 -128 458q4 18 19.5 29t33.5 11z" />
    <glyph glyph-name="bracketright" unicode="]" horiz-adv-x="205" 
d="M192 776q-14 -46 -45 -179q-28 -115 -57 -252l-47 -229q-20 -104 -25 -156q-12 -3 -29 -6q-18 -4 -53 -4q-38 0 -93 7q-13 2 -18 15.5t-2 31.5q8 34 33 34h35q12 0 34 2q13 45 26 109q19 90 58 290l26 141q4 26 19 111q-40 6 -71 6q-12 0 -16.5 9t-1.5 22q4 18 16 31.5
t27 13.5h4q52 -3 84 -3q40 0 96 6z" />
    <glyph glyph-name="asciicircum" unicode="^" horiz-adv-x="395" 
d="M226 751q14 0 25 -9t13 -23q1 -12 18 -113q11 -65 27 -150q4 -16 6 -37q1 -1 1 -2.5v-2.5q1 -2 0 -5q-1 0 2 -3q0 -10 -23 -19q-5 -3 -25 -3q-17 0 -25 4h-3q-13 6 -19 24q-1 3 -5 47q-6 45 -9 70q-1 5 -3 21.5t-3 25.5q-2 15 -7 49q-18 -35 -57 -93q-69 -107 -110 -146
q-12 -9 -36 -9q-23 0 -35 11q-7 5 -6 15q16 16 52 63q26 35 69 99l34 49l28 44q28 42 35 58l1 1q6 14 23 24t32 10z" />
    <glyph glyph-name="underscore" unicode="_" horiz-adv-x="485" 
d="M341 87q6 -23 1 -46q-6 -27 -26 -42.5t-40 -15.5h-5q-19 4 -58 4q-34 0 -110 -2q-30 -2 -104 -5.5t-116 -5.5q-13 -1 -20.5 12t-3.5 33q6 29 37 58q4 -5 6 -6q4 -7 21 -7h30q13 0 30 1q37 0 61 1q10 0 152 3q10 0 30.5 0.5t29.5 1.5q35 0 56 6q6 1 14 5q9 4 15 5z" />
    <glyph glyph-name="grave" unicode="`" horiz-adv-x="223" 
d="M32 804l20 -18q42 -37 65 -67q13 -16 21 -38q3 -10 -19 -26q-23 -14 -29 0v-2q-19 24 -59 57q-19 16 -56 40q-19 10 9 39q29 31 48 15z" />
    <glyph glyph-name="a" unicode="a" 
d="M228 420q39 -7 59 -19q25 -16 19 -42l-4 -13q-39 -114 -54 -187q-15 -67 -9 -92q5 -20 18 -20q25 0 63 27q36 26 63 67q6 -1 5 -7q0 -1 -14 -28q-36 -64 -91 -106q-31 -24 -65 -24q-63 0 -71 80q-35 -39 -67.5 -60t-68.5 -21q-55 0 -81 42q-32 47 -14 131q26 123 107 201
q34 32 70.5 50t65.5 18q35 0 65 -43q5 23 4 34q-1 2 0 6t0 6zM148 350q-40 0 -86 -68q-41 -59 -53 -114q-9 -45 3 -77q11 -33 36 -33q27 0 67 49q32 38 47 70l1 2q9 41 20 70q1 57 -11 83q-8 18 -24 18z" />
    <glyph glyph-name="b" unicode="b" horiz-adv-x="416" 
d="M134 718q11 0 15.5 -6.5t2.5 -16.5q-2 -27 -12 -74q-18 -83 -70 -261q-31 -94 -42 -143q-40 -187 57 -187q32 0 65 35q29 31 40 81q17 78 -31 135q-19 4 -38 9q-23 7 -24 7q-14 7 -11 23q5 21 36 43q31 21 59 21q37 0 65 -45q29 -17 84 -26q44 -7 85 -9q9 0 11 -3
q2 -4 2 -6q-3 -11 -20 -15q-79 -15 -134 -11q11 -60 0 -110q-17 -78 -88 -131q-64 -48 -140 -48q-94 0 -114 86q-15 61 5 153q2 13 12 51q2 6 8 27.5t10 34.5q55 182 80 296q3 16 3.5 23t2.5 18q7 31 34 40l9 2q4 1 14.5 3t15 3t8.5 1z" />
    <glyph glyph-name="c" unicode="c" horiz-adv-x="342" 
d="M149 423q48 0 73.5 -27.5t16.5 -68.5t-51 -79q-38 -34 -58 -34q-14 0 -22.5 10.5t-9.5 20.5q59 41 69 90q7 32 -22 31q-40 0 -83 -58q-42 -57 -55 -116q-13 -62 3 -103q19 -47 72 -47q43 0 104 48q39 31 84 85q16 18 25 10q3 -3 2 -9q-9 -28 -33 -63.5t-56 -65.5
q-81 -76 -159 -76t-114 60t-16 156q23 107 94 174q66 62 136 62z" />
    <glyph glyph-name="d" unicode="d" horiz-adv-x="457" 
d="M382 739q24 0 25 -17q0 -2 -0.5 -3.5t-0.5 -4.5v-5q0 -6 -6 -31q-10 -47 -35 -140l-47 -176q-36 -124 -51 -191q-12 -58 -8 -91t27 -33q28 0 63 44q32 39 49 79q4 10 15 10q7 0 6 -11v-1q-5 -24 -29 -73q-29 -62 -71 -94q-30 -25 -68 -25q-43 0 -60 31q-13 22 -13 60
q-37 -46 -63 -64q-39 -27 -88 -27q-77 0 -102 60q-23 51 -7 130q24 111 107 187q36 32 74 50t70 18q23 0 36.5 -9t27.5 -27q13 52 21 78l38 143q5 21 13 55q4 23 5 30q0 10 -1 11q3 17 45 31q16 6 28 6zM148 368q-12 0 -30.5 -13t-36.5 -36q-47 -56 -63 -133q-13 -61 5 -100
q15 -36 43 -36q37 0 77 46q38 44 51 105q5 25 6 57q-16 -5 -20 -5q-19 0 -18 20q3 31 2 54q-3 41 -16 41z" />
    <glyph glyph-name="e" unicode="e" horiz-adv-x="348" 
d="M145 420q57 0 83.5 -33.5t13.5 -91.5q-14 -69 -75 -132q-64 -67 -153 -83q8 -17 21.5 -26.5t43.5 -9.5q61 0 131 56q59 47 81 95q4 10 9 11q4 2 5 2q9 0 5 -19q-21 -74 -86 -138q-78 -74 -171 -74q-76 0 -115 45q-46 53 -25 155q23 107 96 179q66 64 136 64zM134 357
q-34 0 -70 -56q-38 -55 -53 -125q-3 -13 -3 -20q0 -2 -0.5 -5.5t-1 -6t-1 -5.5t-0.5 -6q63 16 102.5 53.5t51.5 91.5q6 29 0 54q-8 25 -25 25z" />
    <glyph glyph-name="f" unicode="f" horiz-adv-x="331" 
d="M300 268q15 0 12 -14q-1 -5 -5 -11q-25 -35 -62.5 -54.5t-79.5 -19.5h-11q-8 0 -12 1l-12 3l7 -10q23 -56 26 -136.5t-16 -168.5q-11 -51 -25 -91q-27 -74 -62 -120q-46 -60 -103 -60q-149 0 -58 430q33 155 89 335q58 186 127 360q5 11 23 24q2 1 3.5 1.5t3.5 1.5t5 2
q1 0 4.5 1.5t6.5 2.5q17 5 35 5q12 0 20.5 -7.5t6.5 -16.5q-1 -3 -3 -7q-1 -2 -2 -6t-2 -6t-2.5 -6.5t-2.5 -6.5t-2 -5l-2 -2q-43 -113 -84 -233q-34 -95 -67 -198q21 14 42 14q16 0 27 -10q28 -24 73 -24q41 0 82 25q9 7 20 7zM74 -140q24 113 17 191q-7 86 -52 151
q-37 -119 -60 -225q-33 -155 -21 -237q5 -35 15 -48q8 -14 16 -16h1q16 5 41 52q24 46 43 132z" />
    <glyph glyph-name="g" unicode="g" horiz-adv-x="419" 
d="M157 421q21 0 37 -8.5t26 -18.5t22 -29l6 27q27 12 47 12q27 0 31 -21q-31 -75 -51 -146.5t-42 -175.5l43 33q10 8 29 23q23 18 52 43q2 2 3 2l1 1q6 0 10.5 -6.5t2.5 -14.5q-1 -4 -17 -24q-31 -35 -91 -94l-50 -46q-6 -32 -18 -103q-7 -42 -9 -51q-19 -90 -56 -155
t-88.5 -99t-111.5 -34q-65 0 -94 47q-24 40 -11 101q19 90 113 170q35 29 88 63l46 30q44 28 47 31q2 9 2 12q-1 5 0 15q-52 -43 -94 -43q-74 0 -103 77q-25 66 -8 144q24 114 98 181q65 57 140 57zM150 368q-37 0 -78 -50q-46 -56 -64 -142q-14 -65 -6 -101q10 -51 55 -51
q35 0 85 69q11 50 23.5 90t22.5 86v2q-3 4 -3 11q0 2 -1 6t-1 5q0 19 -3 35.5t-10.5 28t-19.5 11.5zM110 -96l-68 -54q-34 -28 -58 -52q-58 -62 -72 -125q-7 -34 3 -53.5t36 -19.5q47 0 87 61q40 62 60 159q9 38 12 84z" />
    <glyph glyph-name="h" unicode="h" horiz-adv-x="421" 
d="M127 754q16 0 23.5 -6.5t5.5 -17.5q-2 -51 -19 -131q-11 -52 -31 -124l-44 -144q36 41 69 66q39 31 78 31q105 0 72 -156q-9 -43 -26 -98q-17 -50 -25 -88q-4 -19 -3 -30q1 -21 15 -21q23 0 70 49q30 33 59 75q4 3 8 3.5t6.5 -1.5t1.5 -5q-22 -61 -68 -119
q-58 -71 -111 -71q-89 0 -65 116q8 38 28 96q19 56 26 92q6 25 4 49q-3 31 -26 31q-24 0 -61 -37q-33 -34 -61 -72q-16 -22 -20 -30q-9 -13 -10 -16q-30 -118 -34 -196q-17 -25 -53 -25q-13 0 -21.5 5t-9.5 14q7 82 34 212q14 61 30 123q33 135 54 211q15 58 20 82
q9 43 11 67q2 27 2 28q4 15 26.5 26.5t44.5 11.5z" />
    <glyph glyph-name="i" unicode="i" horiz-adv-x="205" 
d="M113 551q23 0 36 -13t9 -31q-5 -23 -33 -43.5t-61 -20.5q-25 0 -37 12.5t-8 31.5q5 25 34 44q30 20 60 20zM62 394q29 0 25 -26q-53 -140 -69 -217q-10 -46 -6 -74q4 -38 35 -38q22 0 42 14q29 21 62 70q5 9 12 7t4 -12q-35 -72 -78 -109t-89 -37q-59 0 -76 50t5 155
q19 88 54 181q3 9 30 24q24 12 49 12z" />
    <glyph glyph-name="j" unicode="j" horiz-adv-x="240" 
d="M106 537q25 0 38 -13t9 -33q-5 -24 -34 -44q-29 -21 -60 -21q-24 0 -36.5 13t-8.5 32q5 26 33 46t59 20zM78 406q15 0 24 -8t4 -20q-33 -93 -56 -202q-12 -57 -19 -103q45 37 71 61q52 46 74 63q11 9 18 12q5 3 10 3q12 0 14.5 -10t-8.5 -25q-2 -3 -22 -23
q-44 -46 -105 -102q-23 -21 -67 -59q-33 -184 -50 -238q-34 -102 -100 -164q-67 -63 -142 -63q-64 0 -96.5 37.5t-19.5 98.5q18 86 119 183q71 68 196 151q6 53 26 143q20 94 61 231q4 15 29 25q20 9 39 9zM-87 -77q-188 -135 -216 -268q-12 -60 39 -60q32 0 62.5 31
t55.5 82q46 98 59 215z" />
    <glyph glyph-name="k" unicode="k" horiz-adv-x="393" 
d="M146 748q19 0 29 -9q-18 -86 -37 -154q-3 -13 -10 -39t-11 -40q-6 -25 -22 -84q-7 -25 -12 -42q-4 -14 -9.5 -33.5t-6.5 -21.5q-1 -4 -3.5 -13t-4.5 -14q58 55 97 85q64 47 102 47q47 0 63 -40q13 -33 -5 -75q-21 -40 -87 -78q-65 -37 -149 -54q14 -25 25 -51
q22 -55 51 -82q13 -15 36 -14.5t45 18.5q45 35 79 90l22 34q6 9 19 9q7 0 11.5 -4.5t2.5 -12.5q-1 -3 -2 -4t-8 -18q-14 -32 -51 -86q-40 -56 -92 -83q-27 -14 -58 -14q-55 0 -91 57q-15 22 -27 56q-3 9 -22 68q-13 -52 -18 -73q-4 -22 -13 -72q-5 -23 -42 -23q-18 0 -28 8
t-10 20q5 34 13 76l19 89q25 115 83 347q32 119 42 165q6 29 5 38q40 27 75 27zM232 366q-90 -44 -175 -138q69 12 120 52q52 39 55 86z" />
    <glyph glyph-name="l" unicode="l" horiz-adv-x="248" 
d="M193 761q53 0 66 -51q7 -35 -3 -82q-19 -93 -86 -206q-73 -119 -152 -176q-15 -98 -5 -153q9 -56 42 -56q34 0 83 52q27 30 65 85q1 1 4 5.5t5 6.5l5 6q3 4 5 5q0 1 2 3q3 -3 2 -7q0 -4 -3 -14q-39 -80 -83 -135q-59 -76 -115 -76q-69 0 -89 92q-15 63 -4 173q4 40 9 70
q3 19 6 33q10 47 34 122q20 66 55 142q78 161 157 161zM186 692q-42 -38 -88 -159q-44 -117 -65 -209q68 89 107.5 169t51.5 138q6 24 5 38t-11 23z" />
    <glyph glyph-name="m" unicode="m" horiz-adv-x="617" 
d="M206 426q51 0 62 -68q3 -17 4 -35q34 44 58 63q38 30 72 30q52 0 68 -40.5t-3 -129.5q-9 -42 -14 -63q-11 -42 -15 -59q-6 -30 -5 -54q1 -38 26 -38q22 0 63 40q23 23 50 59q10 13 15 11q5 0 1 -8q-35 -79 -83.5 -125t-95.5 -46q-56 0 -66 51q-8 37 7 107q4 21 16 65
q5 22 14 63q9 44 7 70q-3 24 -23 24q-22 0 -58 -51q-38 -54 -67 -138q-18 -51 -32 -115q-3 -17 -4 -31q-1 -12 0 -20q-39 -9 -60 -9q-30 0 -35 25q-3 14 3 44q5 25 22 80q17 53 27 103q14 66 8 93q-3 11 -9 16q-4 4 -9 4q-24 0 -64 -63q-42 -62 -60 -128q-5 -16 -17 -58
q-2 -8 -6 -23.5t-6 -22.5q-7 -26 -8 -32q-1 -1 -2 -5t-1 -4.5t-1 -3.5t-1.5 -3.5t-1.5 -2.5t-2 -3l-2.5 -2.5t-3.5 -2.5l-4 -2t-5 -2q-16 -5 -29 -5q-27 0 -28 14q0 32 8 77q2 15 9 45l9 43q20 92 49 207q2 11 34 26q29 14 45 14q5 0 9 -2t6 -5.5t1 -7.5q-1 -11 -5 -31
l-8 -37q36 43 68 69q40 33 73 33z" />
    <glyph glyph-name="n" unicode="n" horiz-adv-x="410" 
d="M63 409q21 0 23 -7q3 -7 2 -13q-7 -33 -18 -66q79 84 148 84q96 0 73 -109q-5 -24 -32.5 -101t-31.5 -96q-10 -51 17 -51q19 0 60 50q28 34 62 85q7 9 12 7q6 0 3 -8q-31 -81 -72 -136q-49 -65 -100 -65q-45 0 -61.5 32t-3.5 93q10 46 27.5 92t24.5 80q8 34 0.5 43
t-18.5 9q-36 0 -88 -68q-39 -51 -55 -96q-19 -52 -28 -87q-7 -22 -8 -29q-2 -6 -12 -39q-2 -5 -6 -13q-3 -1 -12 -3q-2 -1 -6 -2t-7 -2q-17 -5 -25 -5q-4 0 -4 1l-12 3q-6 48 19 162q11 55 27 114q19 74 30 108q4 13 28 23q22 10 44 10z" />
    <glyph glyph-name="o" unicode="o" horiz-adv-x="415" 
d="M178 431q23 0 46 -12.5t40 -35.5q38 -55 29 -147q35 21 59 33q25 13 43 23q15 8 18 0q1 -3 -2 -8q-21 -30 -58 -58.5t-72 -44.5q-32 -92 -82 -141q-62 -61 -147 -61q-73 0 -110 52q-43 61 -21 166q26 119 120 192q7 8 20 8q6 0 19 -6q48 40 98 40zM159 361q-19 0 -30 -18
q-8 -12 -12 -30q-8 -39 13 -66q24 -30 73 -30h7q5 0 9 1q7 67 -14 108q-19 35 -46 35zM36 271q-20 -52 -24 -73q-17 -76 11 -120q25 -39 70 -39q38 0 71 46q26 37 41 81h-14q-5 -1 -15 -1q-114 0 -140 106z" />
    <glyph glyph-name="p" unicode="p" horiz-adv-x="435" 
d="M220 406q54 0 79 -39t18 -112q66 -12 106 -42q6 -5 3 -12q0 -1 -2 -3q-2 -1 -7 1q-46 11 -109 16q-34 -115 -116 -178q-67 -53 -130 -53q-50 0 -90 35q-3 -11 -8 -29.5t-8.5 -31t-5.5 -22.5l-15 -58q-10 -34 -11 -42q-2 -5 -3.5 -11l-3 -12t-3.5 -11q-2 -10 -18 -78
q-3 -9 -8 -30t-7 -32q-2 -6 -10 -36.5t-13 -50.5q-9 -2 -30 -6q-14 -4 -30 -4q-44 0 -29 45q1 4 13 46l62 214q23 82 73 277q21 90 28 124q11 53 15 86q3 11 14 18q9 7 22 13t26.5 9.5t25.5 3.5t19 -4.5t4 -15.5q-2 -13 -7 -28q-1 -5 -6.5 -22.5t-7.5 -28.5q41 49 73 71
q45 33 97 33zM200 340q-31 0 -74 -39q-43 -40 -93 -115q56 33 97 49q45 17 107 23q4 82 -37 82zM229 214q-76 -13 -142 -60q-28 -20 -46 -41.5t-22 -37.5q-3 -17 7.5 -30.5t28.5 -13.5q41 0 90 47q55 52 84 136z" />
    <glyph glyph-name="q" unicode="q" 
d="M145 425q45 0 78 -24q9 -6 14.5 -14t7.5 -15.5t1 -13.5q-4 -19 -21 -33q-2 -1 -7 -5t-7 -5q-7 -3 -12 -7q-2 4 -4 12q-1 1 -2.5 5t-3.5 6l-6 12q-4 8 -7 11q-16 23 -38 23q-43 0 -82 -67q-31 -53 -44 -111q-14 -66 -3 -106t46 -40q27 0 58.5 23t55.5 66l21 84l21 83
q41 32 69 32q13 0 18 -6.5t3 -14.5q-22 -67 -79 -277q104 132 175 182q3 -5 2.5 -10.5t-6.5 -12.5q-48 -57 -108 -147q-72 -107 -110 -200v-1q-13 -61 -18 -89l-16 -76q-9 -40 -11 -54l-5 -25q-3 -14 -28 -27q-24 -13 -49 -13q-18 0 -25.5 7t-4.5 20l1.5 4t3.5 12.5t5 17.5
l48 173l24 84l41 151q-34 -29 -62 -44t-62 -15q-73 0 -92 75q-16 56 0 131q20 98 75 164q64 75 145 75z" />
    <glyph glyph-name="r" unicode="r" horiz-adv-x="370" 
d="M41 441q20 0 26 -34q5 -26 1 -45q16 -13 43 -13q42 0 91 30q15 6 22 6q23 0 38.5 -20t11.5 -42q-3 -14 -18 -28q-20 -17 -56 -80q-40 -68 -50 -117q-5 -23 2.5 -39t29.5 -16q33 0 82 64l18 24l24 34q4 5 7 5l1 1q7 -1 7 -12q-20 -52 -64 -106q-57 -73 -108 -73
q-55 0 -73 40q-15 34 -5 86q9 38 33 87q16 31 21 40q8 13 22 41q-33 -8 -50 -7q-23 1 -48 14q-27 -80 -45 -163q-16 -73 -12 -105v-1q-5 -12 -28 -26q-24 -13 -45 -13t-22 16q2 23 12 74q13 59 43 161q15 52 16 56l13 44l-13 24q-6 11 -9 20q-1 1 0 4l1 6q4 19 32 42
q27 21 49 21z" />
    <glyph glyph-name="s" unicode="s" horiz-adv-x="358" 
d="M165 444q-10 -25 -15 -51q-10 -45 0 -76q9 -26 28 -54l8 -10l6 -12l7 -12q4 -8 6 -13q13 -32 16 -66q66 6 103 21q8 -3 5 -12q-4 -10 -21 -21q-37 -23 -92 -34q-19 -59 -66 -96q-50 -38 -106 -38q-72 0 -116 63q-17 -20 -27 -30.5t-24 -21.5q-21 5 -28.5 15t-3.5 28
q18 19 62 80q-4 29 3 61q6 27 32 27q3 0 20 -2q41 73 57 106q14 30 30 60q0 12 1 17l3 14q4 18 29 35q34 23 83 22zM75 268q-8 -15 -15 -27q-3 -5 -12 -23q-13 -25 -26 -46q41 -11 63 -14q7 -1 23 -3.5t24 -4.5q-7 26 -15 42q-9 18 -15 28q-16 26 -27 48zM-14 116l-4 -5
q1 -37 14 -60q14 -29 44 -29q21 0 43 16q28 19 46 60q-71 3 -143 18z" />
    <glyph glyph-name="t" unicode="t" horiz-adv-x="250" 
d="M135 773q25 0 29 -18.5t-6 -62.5q-9 -43 -28 -108h68q23 -1 72 -1q128 0 210.5 4t147.5 18l-32 -29l-17 -17q-11 -9 -24 -13q-70 -19 -186 -29q-122 -10 -217 -10h-42l-45 -156q-26 -93 -39 -150q-11 -52 -8 -89q1 -63 40 -63q33 0 68 26q31 23 50 53q10 11 18 5
q3 -2 2 -6q-23 -64 -60 -102q-48 -50 -116 -50q-77 0 -90 78q-10 60 13 171q5 20 26 100q17 64 19 73l29 114q-122 11 -182 32q-18 7 -13 31q6 27 26 26q4 0 11 -1q24 -4 31 -4q29 -3 148 -8l12 60q14 64 10 90q48 36 75 36z" />
    <glyph glyph-name="u" unicode="u" horiz-adv-x="440" 
d="M62 414q32 0 28 -24q-48 -102 -68 -197q-12 -57 -7 -92q8 -46 47 -46q29 0 59 32.5t57 90.5q4 13 13 45t15 48q12 37 19 74q4 17 7 43q24 23 65 23q42 0 41 -27q-27 -60 -48 -122q-28 -79 -37 -123q-8 -35 -6 -57q1 -30 23 -30q16 0 53 44q32 36 56 85q3 4 7 6q1 1 3 1
q5 0 8 -4t2 -9l-2 -4q-22 -59 -60 -111q-56 -77 -109 -77q-35 0 -49.5 21t-17.5 59q-21 -25 -37 -38.5t-39.5 -23.5t-50.5 -10q-146 0 -106 190q19 85 67 198q6 15 26.5 25t40.5 10z" />
    <glyph glyph-name="v" unicode="v" horiz-adv-x="399" 
d="M58 413q16 0 21 -11q-11 -35 -25 -103q-11 -50 -15 -85q-8 -69 -3 -104q9 -49 38 -49t76 69q26 40 54 95q-33 11 -47.5 39.5t-7.5 62.5q5 22 17.5 39.5t30.5 27t39 9.5q41 0 53 -42q8 -36 -5 -87q46 4 94 27q12 6 16 0.5t-6 -14.5q-59 -57 -120 -67q-25 -74 -89 -152
q-73 -90 -132 -90q-85 0 -103 105q-14 77 10 191q12 56 25 95q5 14 32 30q26 14 47 14zM227 328q-1 7 -4 7q-6 0 -5 -10q1 -8 2 -10q1 -1 2 -4t3.5 -8.5t3.5 -9.5q0 23 -2 35z" />
    <glyph glyph-name="w" unicode="w" horiz-adv-x="570" 
d="M274 426q19 0 20 -15q-1 -14 -1 -18l-5 -21q-21 -99 -57 -172q-1 -5 -1.5 -11.5t-1.5 -15.5t-2 -17q-9 -71 1 -108q6 -22 24.5 -22.5t36.5 16.5q37 32 66 105q14 34 22 74q7 32 8 57q-53 43 -44 86q5 23 25.5 41.5t45.5 18.5q41 0 58 -41q14 -33 8 -85q53 -5 106 10
l-14 -12q-27 -22 -57 -31q-19 -7 -41 -8q-25 -107 -82 -185q-68 -94 -152 -94q-40 0 -58.5 23.5t-21.5 67.5q-34 -46 -67 -70.5t-74 -24.5q-127 0 -89 176q16 75 44 150q9 26 14 37q6 22 7 27q2 7 1 10q14 17 39.5 29t47.5 12q11 0 18 -3q-8 -43 -38 -131q-29 -90 -40 -138
q-23 -112 29 -112q23 0 45 37q23 36 48 107l8 38q6 25 9 38q13 50 14 56q5 22 5 28l3 12q-1 2 0 8q6 27 39 50q31 21 54 21z" />
    <glyph glyph-name="x" unicode="x" horiz-adv-x="375" 
d="M340 439q-33 -60 -96 -139q-43 -53 -120 -131q18 -49 30 -74q26 -48 52 -48q22 0 47 15q38 21 76 74q2 3 6 3t6.5 -3.5t1.5 -8.5q-1 -7 -16 -31q-35 -61 -88 -98q-30 -21 -65 -21q-40 0 -75 44q-25 30 -46 81q-75 -66 -155 -123q-13 -10 -28 -10q-11 0 -18.5 7t-5.5 15
q1 6 10 13l87 81q2 2 18.5 18t24.5 25l40 40q-44 121 -59 210q-1 8 2 22q3 16 28 27q20 9 34 9q23 0 28 -25q1 -2 2.5 -8t4.5 -18.5t5 -24.5q11 -49 28 -110q74 84 118 148q15 23 54 33q20 6 69 8z" />
    <glyph glyph-name="y" unicode="y" horiz-adv-x="438" 
d="M309 418q13 0 18.5 -4.5t3.5 -14.5l-5 -21q-3 -11 -10 -42l-27 -114l-30 -126q30 12 77 43q38 25 65 51l6 5q2 1 5 2q1 -8 -10 -22q-87 -95 -159 -147l-18 -70q-20 -86 -43 -149q-31 -83 -65 -130q-44 -59 -103 -80q-31 -12 -70 -12q-57 0 -89 35q-36 37 -23 100
q17 83 109 161q40 33 98 70l117 74l11 55q-48 -49 -72 -65q-43 -28 -82 -28q-125 0 -87 179q17 82 69 218q32 26 68 26q30 0 30 -22q-15 -31 -41 -102q-24 -67 -34 -114q-26 -121 31 -121q42 0 85 50q27 31 56 87l4 16q4 20 7 31l7 30l3 16l9 43q7 30 11 46q6 19 31 33
q24 13 47 13zM140 -44l-38 -26q-23 -16 -34 -24q-41 -31 -65 -54q-71 -64 -85 -131q-8 -36 5 -55.5t46 -19.5q41 0 75 39q27 32 48 90q18 48 31 102l9 45z" />
    <glyph glyph-name="z" unicode="z" horiz-adv-x="384" 
d="M196 447q51 0 84 -25q35 -29 25 -75q-9 -42 -58 -93q-45 -44 -99 -85q19 -4 32 -9.5t23 -16.5t18 -29q56 33 90 45q24 9 47 16l-1 -5q-1 -3 -3 -5q-3 -5 -8 -9q-7 -7 -38 -33l-22 -18q-20 -17 -57 -42q0 -41 -6 -72q-14 -62 -47 -131.5t-79 -127.5q-109 -137 -224 -137
q-69 0 -100.5 31t-20.5 85q19 87 154 197q96 78 239 162q-3 25 -9 33t-21 8q-24 0 -64 -19t-62 -32q-31 17 -38 27q-9 12 -5 36q104 46 196 123q88 75 97 120q3 12 -6.5 18.5t-28.5 6.5q-16 0 -54 -8q-23 -6 -50 -17q-8 -3 -9.5 -9.5t6.5 -9.5q-6 -29 -46 -53
q-39 -24 -69 -24q-21 0 -33.5 13t-8.5 32q4 20 30 44t64 44q84 44 162 44zM143 4q-126 -87 -189 -144q-110 -98 -125 -170q-10 -44 38 -44q40 0 84.5 29t83.5 78q85 107 108 251z" />
    <glyph glyph-name="braceleft" unicode="{" horiz-adv-x="242" 
d="M228 785h7q11 0 15.5 -10.5t1.5 -25.5q-6 -27 -26 -35q-65 -22 -82 -99q-7 -35 -1 -78q0 -7 1.5 -16t1.5 -16q1 -20 -3 -36q-12 -60 -77 -113q37 -38 24 -102q-6 -27 -26 -73l-6 -16q-1 -2 -2.5 -5.5l-3 -7t-2.5 -5.5q-7 -18 -11 -37q-17 -79 44 -95q11 -3 15 -13.5
t1 -23.5q-3 -15 -13 -25t-23 -10q-64 0 -97 41q-39 46 -23 120q6 27 22 67q17 47 21 65q6 30 4 46q-5 26 -31 26q-28 0 -19 43q10 44 37 48q52 8 65 70q5 21 4 36v9v8q-2 9 -2 16q-4 39 5 78q14 67 59.5 110t119.5 59z" />
    <glyph glyph-name="bar" unicode="|" horiz-adv-x="220" 
d="M131 728q17 0 47 -12q-17 -62 -25 -95l-25 -98l-23 -96q-4 -15 -11 -45t-10 -44l-35 -147q-4 -19 -12.5 -55.5t-12.5 -52.5q-20 -88 -26 -94l-2 -2v-1h-1l-4 -1q-13 -5 -29 -5q-25 0 -37 14t-7 35l2 8h-1q2 12 7 30q9 42 16 71l48 213q17 77 26 116q9 38 23 105
q13 59 19 82l9 45q30 29 64 29z" />
    <glyph glyph-name="braceright" unicode="}" horiz-adv-x="244" 
d="M44 785q5 0 6 -1q66 -15 94.5 -57.5t14.5 -108.5q-8 -35 -30 -78q-1 -2 -3.5 -7.5t-3.5 -8.5q-6 -9 -9 -17q-6 -16 -11 -37q-13 -65 36 -71q12 -2 16.5 -16t0.5 -32t-14.5 -30.5t-24.5 -12.5q-26 0 -41 -27q-10 -18 -16 -46q-6 -29 -6 -64q-3 -40 -8 -67
q-31 -142 -186 -161h-3q-9 0 -14.5 4.5t-6.5 12t1 17.5q2 13 10.5 23.5t20.5 12.5q69 18 86 98q5 23 4 39q0 5 1 17q0 3 -0.5 8t-0.5 8q-1 38 6 71q14 64 66 102q-41 50 -28 113q5 22 12 37q3 7 8.5 16t8.5 16q26 46 32 77q16 76 -40 98q-18 8 -12 36q2 10 6.5 18t12 13
t15.5 5z" />
    <glyph glyph-name="asciitilde" unicode="~" horiz-adv-x="409" 
d="M97 433q36 0 64 -22q10 -7 12 -8q13 -9 28 -13q12 -2 21 -2q28 0 79 24q21 0 31 -15t6 -34q-5 -19 -21 -27q-73 -37 -131 -36q-36 1 -59 21q-12 10 -20 14q-11 7 -33 7q-34 0 -105 -37l-5 -1q-11 0 -19 5.5t-11.5 14.5t-1.5 19q3 13 12 23.5t17 16t22 13.5q36 21 73 32
q23 5 41 5z" />
    <glyph glyph-name="exclamdown" unicode="&#xa1;" horiz-adv-x="219" 
d="M122 739q22 0 33.5 -12.5t6.5 -32.5q-5 -23 -28.5 -42.5t-54.5 -19.5q-21 0 -32.5 13t-7.5 32q5 25 29.5 43.5t53.5 18.5zM82 571q17 0 26 -7t8 -17q-10 -45 -22 -155q-16 -125 -25 -165q-20 -96 -55 -194q-7 -19 -32.5 -30t-52.5 -11q-35 0 -36 17q38 118 57 187
q19 66 35.5 127.5t26.5 112.5q15 67 18 112q21 23 52 23z" />
    <glyph glyph-name="cent" unicode="&#xa2;" horiz-adv-x="381" 
d="M234 722q31 0 46 -24q-2 -7 -6.5 -19.5t-5.5 -18.5q-9 -25 -14 -42q46 -11 66.5 -38.5t13.5 -57.5q-10 -48 -59 -48q-21 0 -34 8.5t-11 22.5q15 7 18 22t-15 27l-94 -304q36 18 64 58q5 7 24 12q1 1 7 1q16 0 31 -11q16 -14 14 -27l-2 -1l-1 -5q-13 -29 -56 -59
q-50 -34 -102 -39q-30 -102 -39 -131q-8 -24 -24 -53q-28 0 -44 8.5t-12 27.5q11 51 43 159q-57 23 -78 76t-6 123q17 80 65 137q60 69 150 89q31 86 34 94q7 4 9 6l4 4q5 3 14 3zM144 529q-81 -58 -98 -137q-15 -68 19 -122q36 125 79 259z" />
    <glyph glyph-name="sterling" unicode="&#xa3;" horiz-adv-x="507" 
d="M269 671q70 0 110 -37q40 -38 29 -92q-9 -42 -48 -84q-13 -13 -27 -13q-20 0 -35 17q-16 17 -12 33q27 26 35 61q4 18 0 30.5t-16.5 18.5t-34.5 8q-32 0 -52 -17q-31 -27 -43 -86q-5 -23 -8 -68q-4 -46 -4 -73q6 0 26 1.5t33 2.5q26 1 56 7q11 0 16.5 -6.5t3.5 -16.5
q-4 -20 -35 -42q-47 -10 -105 -14q-2 -32 -10 -67q-6 -27 -15 -52l24 -14q32 -20 66 -29q22 -5 43 -5q34 0 66 18q17 8 28 17q12 10 24 17q7 -22 4 -39q-8 -34 -48 -59q-38 -25 -89 -25q-42 0 -87 20q-19 8 -34 18q-6 4 -18 11t-13 8q-55 -68 -140 -68q-38 0 -58 21.5
t-13 54.5q8 38 45 64q37 25 84 25q24 0 43 -4q3 25 4 47q0 23 2 38q-43 0 -81 6q-10 1 -22 19q-11 17 -8 31q2 12 15 17q23 -3 100 -3q3 88 15 141q16 78 64 120t120 42zM19 156q-18 0 -36 -9.5t-21 -21.5l-1 -3h5q1 -1 8 -1q42 0 65 31q-10 4 -20 4z" />
    <glyph glyph-name="yen" unicode="&#xa5;" horiz-adv-x="421" 
d="M60 639q19 -44 41 -103q27 -76 51 -133q74 75 115.5 123.5t68.5 94.5q14 3 27 3q24 0 36.5 -10t8.5 -30l-3 -7q-32 -43 -90 -104l-102 -104q38 0 67 9q8 3 21 9q7 3 22 9l-20 -64q-8 -4 -19 -8q-5 -2 -13 -3q-24 -7 -101 -11q-2 -3 -6 -22l-5 -22q96 2 140 19l-18 -56
l-13 -6q-9 -3 -21 -6q-30 -6 -100 -10l-12 -70q-2 -10 -7 -35.5t-9 -42.5q-24 -15 -43 -15q-22 0 -42 16q1 34 9 77q2 19 8 39l7 31q-68 0 -101 10q-31 6 -14 59q16 -1 50 -3q40 -4 80 -5l8 41q-72 2 -103 10q-25 4 -15 48l2 12q0 5 2 10q2 0 44 -7q34 -6 61 -8
q-23 46 -49 108q-25 59 -38 104q11 23 28 34.5t47 18.5z" />
    <glyph glyph-name="brokenbar" unicode="&#xa6;" horiz-adv-x="199" 
d="M172 734q-28 -72 -49 -173q-7 -28 -18 -78q-5 -26 -16 -66q-3 -7 -19 -18t-48 -11q-8 0 -30 2q3 20 5 30l6 30q13 59 28 114q13 44 36 143q23 14 43 19q9 2 62 8zM24 305q12 0 18 -1q3 -1 8.5 -1.5t8.5 -0.5q-4 -19 -6 -32l-17 -93l-11 -52q-21 -98 -37 -135
q-21 -23 -59 -23q-27 0 -36 17q0 7 5 21l6 29q3 14 7 32.5t8 34t9 37t8 36.5q12 51 28 113q29 18 60 18z" />
    <glyph glyph-name="section" unicode="&#xa7;" horiz-adv-x="464" 
d="M242 741q86 0 136 -28q56 -32 44 -87q-1 -8 -4.5 -15.5t-7.5 -14.5t-9.5 -13.5t-12 -11.5t-13.5 -9.5t-15 -7.5q-23 -8 -37 -8q-45 0 -58 59q5 1 17 3q19 2 36 15q8 7 11 19q3 14 -15 30t-61 16q-51 0 -98 -19q-50 -21 -57 -55q-7 -31 14 -54q16 -17 47 -31q12 -5 37 -15
q41 -16 76 -33q24 -12 34 -19q75 -47 62 -109q-8 -40 -45.5 -73t-94.5 -50q53 -29 77 -64t16 -71q-11 -52 -82 -87q-69 -34 -144 -34q-92 0 -143 43q-23 17 -32.5 39t-5.5 41q3 17 20.5 28.5t45.5 11.5q14 0 32 -3q-10 -46 22 -74q28 -24 73 -24q33 0 67 12q40 14 46 42
q3 13 -1.5 24.5t-13.5 20t-24 19.5q-24 17 -104 51q-65 29 -100 62q-43 39 -32 92q16 74 144 107q-49 25 -75 56q-30 35 -20 82q12 60 82 99q69 38 166 38zM189 424h-7q-48 0 -83 -15q-44 -18 -50 -50q-6 -27 14 -46.5t64 -39.5q68 1 112 26q35 20 41 48q5 24 -22 46
q-22 15 -62 30q-5 0 -7 1z" />
    <glyph glyph-name="dieresis" unicode="&#xa8;" horiz-adv-x="295" 
d="M224 757q23 10 46.5 4.5t28.5 -23.5t-8 -38t-38 -30q-22 -9 -44.5 -3.5t-28.5 23.5q-6 17 7.5 37t36.5 30zM70 756q19 9 40 5t28.5 -21t-3 -34.5t-31.5 -29.5q-20 -10 -41 -6t-28.5 21t3.5 36t32 29z" />
    <glyph glyph-name="copyright" unicode="&#xa9;" horiz-adv-x="637" 
d="M323 723q60 0 109.5 -21t81.5 -59q70 -80 46.5 -192t-127.5 -192q-103 -79 -225.5 -79t-190.5 79q-70 80 -46.5 192t127.5 192t225 80zM310 662q-87 -1 -164 -65q-77 -65 -96 -151q-16 -79 26 -137q48 -64 146 -63q87 0 166 65q76 63 95 150q20 94 -35 151
q-52 52 -138 50zM312 627q46 0 72 -31q29 -34 18 -84q-7 -37 -24 -45q-13 -5 -24 -5t-20 3.5t-15 11t-7 18.5q6 8 9 24q4 20 -2.5 35.5t-27.5 18.5q-38 0 -66 -37q-24 -31 -34 -77q-8 -37 1 -67q13 -45 59 -45q27 0 60 24q24 19 46 47q5 -2 8 -2l6 -3q13 -3 18 -9.5t3 -20.5
q-12 -26 -58 -61q-53 -41 -102 -41q-61 0 -97 48q-40 53 -24 128q14 69 67 117q57 53 134 53z" />
    <glyph glyph-name="ordfeminine" unicode="&#xaa;" horiz-adv-x="437" 
d="M261 689q6 -2 19 -6q23 -8 39 -19q14 -11 13 -26q0 -5 -2 -12q-37 -102 -53 -178q-11 -53 -6 -81q3 -18 21 -18q23 0 52 24q35 28 53 68q8 4 13.5 -1t4.5 -12q-3 -15 -18.5 -39.5t-37.5 -47.5q-56 -59 -111 -59q-35 0 -51 25q-10 16 -14 47q-27 -30 -53 -48
q-34 -24 -70 -24q-48 0 -74 39q-29 43 -12 119q23 112 97 183q65 62 125 62q21 0 33.5 -10t24.5 -29q10 26 7 43zM186 622q-37 0 -79 -61q-37 -55 -48 -103q-7 -37 3 -69q9 -30 33 -30q22 0 54 36q23 25 48 71l2 10q2 10 10 38q1 3 3 8.5t3 8.5q1 37 -5 67q-7 24 -24 24z
M296 255q17 -14 13 -35q-4 -20 -20.5 -35.5t-35.5 -14.5l-2 0.5t-6.5 1t-8.5 0.5q-11 1 -43 1q-58 0 -156 -8q-45 -4 -79 -4h-1q-12 2 -17 13.5t-2 26.5q5 24 30 46l9 -3q3 -2 9 -2h49h53q80 0 154 6q32 1 54 7z" />
    <glyph glyph-name="guillemotleft" unicode="&#xab;" horiz-adv-x="443" 
d="M162 439q20 -1 27.5 -15.5t3.5 -34.5q-2 -10 -5.5 -17t-10.5 -14.5t-10.5 -11t-16 -13t-16.5 -12.5l-49 -40q-40 -32 -98 -83l8 -10q17 -24 36 -48l46 -60q10 -15 20 -26q11 -16 14 -20q2 -2 3.5 -4.5t2.5 -4l1 -1.5q-17 -54 -64 -54q-4 0 -5 1h-5q-15 21 -46 61
q-52 62 -81 108q-16 21 -22 40q1 14 2 17q2 8 6 22q6 12 16 20l30 25l74 61zM356 439q14 0 21 -16t3 -36q-2 -8 -5 -15t-10.5 -14.5t-11.5 -11t-17 -13.5t-16 -13l-101 -82l-46 -40q37 -51 81.5 -105t50.5 -69q-17 -54 -65 -54q-3 0 -4 1h-5q-17 24 -34 46q-55 67 -89 115
q-21 30 -28 48l4 14q6 26 13 37l22 18l108 88l59 48l45 37q18 15 19 15q1 1 4 1q1 1 2 1z" />
    <glyph glyph-name="registered" unicode="&#xae;" horiz-adv-x="636" 
d="M322 723q59 0 108.5 -21t82.5 -59q70 -80 46 -192q-12 -55 -45.5 -104.5t-82.5 -86.5q-103 -80 -225 -80q-59 0 -108.5 21t-82.5 59q-32 37 -44.5 86.5t-0.5 104.5q24 112 127 192t225 80zM310 662q-90 -1 -167 -67q-75 -65 -93 -149q-17 -78 26 -136q47 -64 144 -64
q26 0 62 11q40 13 62 24q-31 17 -54 64l-4 9l-4 8q-3 7 -3 8l-5 6q-11 14 -22 17q-5 -1 -13 -3q-2 0 -4 -0.5t-4 -1.5t-4 -1.5t-4 -0.5q-6 -37 -7 -57q-1 -18 0 -19q-1 -3 -3.5 -6t-6 -5.5t-7.5 -4.5t-8.5 -3t-8.5 -1q-12 0 -20.5 6.5t-8.5 18.5q0 56 21 158q5 19 8 29l7 33
q-10 -3 -21 -5q-14 15 -11 30q2 10 7 17q74 38 144 38h2q36 0 62 -12.5t37 -34t6 -47.5q-12 -55 -99 -110q7 -5 11 -10q5 -8 7 -11q1 -2 3.5 -6t3.5 -6q1 -3 4 -7.5t4 -5.5q14 -31 47 -45q68 63 85 141q20 94 -35 151q-50 52 -136 50zM290 562q-7 0 -25 -3q-15 -46 -30 -117
q104 20 112 77q5 23 -15 35q-13 8 -42 8z" />
    <glyph glyph-name="macron" unicode="&#xaf;" horiz-adv-x="253" 
d="M37 762q4 -9 30 -10q25 -1 74 -3h38q19 -1 44 3l24 3q1 -7 -1 -19q-6 -28 -24 -43q-10 -8 -22 -8h-54q-19 -1 -51 -1q-55 0 -64 3q-20 4 -10 40q7 28 16 35z" />
    <glyph glyph-name="degree" unicode="&#xb0;" horiz-adv-x="242" 
d="M166 745q34 -9 44 -38q10 -28 -11 -59t-60 -48q-40 -17 -75 -7q-36 10 -46 37q-7 18 1 38.5t27 39t45 29.5q41 17 75 8zM102 695q-17 -7 -24 -19t-1 -26q6 -12 20.5 -14t28.5 5q17 7 24 19t1 26q-6 12 -20 14t-29 -5z" />
    <glyph glyph-name="twosuperior" unicode="&#xb2;" horiz-adv-x="356" 
d="M244 736q49 0 75 -22t17 -64q-10 -48 -95 -118q-37 -32 -79 -63q-46 -34 -86 -69q49 5 77 5q60 0 100 -10q21 -4 15 -31q-3 -17 -16.5 -30t-33.5 -13q-22 4 -74 4q-102 0 -146 -10q-1 0 -4 -1q-2 0 -3 -1q-4 -1 -10 -1q-23 0 -35 14.5t-7 41.5q4 17 10 29q25 20 78 57
l98 72q53 40 90 75q39 39 44 62q2 6 -5 9t-17 3q-25 0 -61.5 -18.5t-77.5 -59.5q-10 -12 -27 -12t-28.5 14t-7.5 32q4 20 23 35q39 34 89.5 52t96.5 18z" />
    <glyph glyph-name="threesuperior" unicode="&#xb3;" horiz-adv-x="338" 
d="M256 747q39 0 59 -21t13 -53q-6 -30 -30 -54t-65 -51q68 -16 55 -80q-15 -69 -85 -117q-78 -53 -189 -53q-38 0 -54 9.5t-10 39.5q3 15 17 28q0 1 1.5 2.5t2.5 1.5l3 3q29 -6 47 -6q62 0 113 21q62 27 71 68q3 14 -2 19.5t-21 5.5h-1q-25 0 -57 -11q-36 -12 -56 -21
q-21 0 -30 13t-6 29q5 21 26 31q40 9 99 44q72 43 80 79q2 4 0 5.5t-8 1.5h-4q-29 -5 -68 -23q-24 -11 -77 -41q-21 -12 -39 -12q-19 0 -28 11t-4 36l2 7q47 32 120 60q77 28 125 28z" />
    <glyph glyph-name="acute" unicode="&#xb4;" horiz-adv-x="217" 
d="M248 803q27 -23 7 -39q-40 -37 -66 -57q-65 -50 -96 -62q-13 -6 -27 11q-12 16 -4 21q33 22 81 65q40 36 60 60q9 11 21.5 10.5t23.5 -9.5z" />
    <glyph glyph-name="paragraph" unicode="&#xb6;" horiz-adv-x="823" 
d="M894 605q17 -18 14 -34q-2 -12 -19 -26q-14 -12 -18 -14q-15 -12 -19 -15q-1 2 -3 5t-3 4l-7 9q-4 4 -11 13l-13 13q-36 34 -94 63q-7 -42 -10 -58l-12 -53q-55 -262 -128 -482q-21 -64 -62 -64q-24 0 -49 30q28 48 57 148q11 40 22 83q-5 -4 -12 -7q-43 -15 -112 -21
q-17 -56 -29 -95q-3 -8 -6.5 -22t-6.5 -23.5t-7.5 -22.5t-8.5 -21.5t-10 -18.5t-12.5 -15.5t-15 -9.5t-17.5 -4q-27 0 -52 29q23 37 43 100q19 58 30 103q-164 8 -264 76q-111 75 -85 198q23 107 134 183q108 73 258 84q6 1 18 1t17 1q18 2 34 6q8 2 9 2q14 0 39 -9
q77 -2 147 -17q1 8 1 23q4 1 9 1h8q31 0 55.5 -12t33.5 -34l-1 -8q65 -23 106 -50q40 -27 52 -39zM359 349q33 157 56 330q-122 -12 -222 -68q-50 -29 -84.5 -66.5t-42.5 -78.5q-17 -78 70 -135q76 -50 203 -63q11 42 20 81zM601 529q17 110 19 128q-41 10 -97 18
q-15 -84 -32 -163q-31 -150 -60 -246q48 5 73 13q10 2 13 2q23 0 29 -23q11 44 20 89q24 110 35 182z" />
    <glyph glyph-name="periodcentered" unicode="&#xb7;" horiz-adv-x="209" 
d="M31 324q26 0 39 -16t8 -40q-5 -26 -30 -44.5t-54 -18.5q-26 0 -39 15.5t-8 39.5q5 26 30 45t54 19z" />
    <glyph glyph-name="cedilla" unicode="&#xb8;" horiz-adv-x="209" 
d="M-4 31q15 -1 18 -6q4 -5 -3 -10q-11 -8 -29 -23q-19 -16 -32 -25q21 0 36 -5q21 -10 26 -29q6 -23 -12.5 -43.5t-50.5 -30.5q-30 -10 -65 -6q-34 3 -45 9q-11 4 -13 11q-2 4 1 9q7 13 17 11q37 -6 67.5 -1t39.5 26q8 14 -26 20q-16 2 -23 2h-10q-11 0 -12.5 7t5.5 12
q39 42 63 65q15 12 48 7z" />
    <glyph glyph-name="onesuperior" unicode="&#xb9;" horiz-adv-x="176" 
d="M123 761q55 -29 54 -60q-21 -52 -45 -127q-24 -74 -38 -138q-8 -37 -10 -72q-3 -14 -23.5 -31t-41.5 -17q-20 0 -30 21q2 11 7 38l10 47q22 100 39 159q-22 -14 -34 -20q-24 0 -31 18.5t2 38.5q64 54 105 96q21 23 36 47z" />
    <glyph glyph-name="ordmasculine" unicode="&#xba;" horiz-adv-x="433" 
d="M239 694q58 0 87 -54q24 -44 20 -120q29 12 69 37q2 -18 -20 -42q-28 -29 -62 -44q-38 -111 -108 -157q-47 -31 -101 -31q-77 0 -109 62q-27 53 -10 133q23 109 108 178q15 12 37 2q42 36 89 36zM221 629q-27 0 -37 -44q-5 -25 3.5 -43.5t30.5 -29t56 -11.5q7 65 -14 100
q-17 28 -39 28zM108 542q-16 -42 -19 -60q-14 -63 6 -103.5t65 -40.5q34 0 65 43q20 28 36 71h-23q-54 0 -86 21.5t-44 68.5zM295 260q17 -14 13 -34q-4 -19 -20 -35q-17 -18 -37 -16l-2 0.5t-6.5 1t-8.5 0.5q-11 1 -42 1q-69 0 -160 -7q-54 -5 -75 -5q-11 0 -18.5 12
t-3.5 29q5 24 31 47q7 -5 14 -6q3 -1 30 -1q38 0 142 2q10 0 23.5 0.5t24.5 1t19 0.5q52 1 62 4q2 0 4 0.5t3 1t2 0.5q2 2 5 3z" />
    <glyph glyph-name="guillemotright" unicode="&#xbb;" horiz-adv-x="443" 
d="M-22 439q2 0 11 -2q17 -26 49 -67l67 -85l26 -32q12 -15 15 -17q4 -13 0 -33q-3 -13 -12 -31q-5 -6 -68 -61q-15 -14 -98 -82l-43 -35l-28 -22q-57 0 -46 57l12 10q13 11 22 19l65 55q13 11 37 31q44 36 56 47q3 2 5.5 4.5l4 4l1.5 1.5q-15 24 -59 80q-11 13 -32 39
q-3 4 -8.5 10.5t-8 9.5t-7 9t-5.5 9.5t-4 10t-1.5 11t1.5 13.5q3 13 8.5 23t16 16.5t23.5 6.5zM172 439q1 -1 5 -1q4 -10 49 -69q30 -42 68 -88l26 -33q3 -4 6 -7t4.5 -5l1.5 -2q5 -10 1 -28q-4 -19 -11 -34q-25 -25 -113 -98l-126 -102q-27 0 -39 14.5t-6 43.5l45 37l57 48
l102 86l-58 78l-62 74q-10 13 -4 40q4 19 17 32.5t32 13.5h5z" />
    <glyph glyph-name="onequarter" unicode="&#xbc;" horiz-adv-x="667" 
d="M152 745l20 4q2 -2 5.5 -4.5t4.5 -2.5q12 -8 16 -12q3 -4 6 -6q12 -13 10 -28q-4 -10 -37 -110q-33 -98 -44 -149q-9 -44 -12 -77q-4 -17 -23 -31q-23 -17 -42 -17t-29 22q4 29 8 41l10 49q23 107 38 152q-20 -13 -35 -19q-18 0 -27 12t-4 34q1 3 2 5l1 5q73 62 94 85
q18 19 38 47zM505 731q19 0 31 -15t8 -38l-1 -4q-47 -68 -194 -236l-258 -284l-105 -110l-61 -62q-18 -18 -38 -18q-15 0 -23 12t-2 37l2 7q17 20 57 62l195 212l244 277l115 144q12 16 30 16zM411 399q15 0 22 -6t5 -17l-1 -6q-1 -2 -3 -6.5t-5 -10.5l-6 -12
q-11 -26 -53 -111q-26 -49 -33 -61q8 1 22.5 2.5t21.5 1.5l40 3q2 5 3.5 12t4 15.5t4.5 15.5q7 35 12 53q17 70 19 81q3 15 21 25.5t39 10.5q25 0 31 -17q-7 -34 -26 -97q-2 -10 -7.5 -28.5t-7.5 -26.5q-8 -28 -13 -44q35 -4 44 -7q7 -14 3 -31q-6 -29 -34 -42q-21 0 -27 3
q-20 -86 -30 -115q-30 -22 -54 -22q-32 0 -26 28v2q-1 0 0 2q0 3 5 17q6 16 16 57q4 11 8 32q-46 0 -72 -3q-55 -6 -73 -13q-20 0 -30 12.5t-5 34.5l3 13q23 22 63 109q34 75 40 106q3 14 30 28q27 12 49 12z" />
    <glyph glyph-name="onehalf" unicode="&#xbd;" horiz-adv-x="672" 
d="M155 747q33 -4 49 -18.5t12 -33.5q-2 -8 -4 -13q-1 -1 -2.5 -5t-3 -7.5t-2.5 -7.5q-8 -20 -22 -60q-32 -85 -49 -166q-10 -44 -12 -75v-3q-3 -16 -25 -30q-25 -16 -44 -16q-15 0 -24 21q4 30 7 44l10 46q16 75 39 153q-22 -14 -35 -20q-19 0 -27.5 13t-4.5 34q1 3 2 5
l1 4q74 65 95 86q23 23 40 49zM505 730q12 0 22 -6t15 -18.5t2 -28.5l-1 -4q-52 -76 -193 -235l-258 -284l-105 -110l-61 -62q-20 -18 -39 -18q-15 0 -23 11.5t-2 36.5l2 8l56 60l196 211l244 279q60 71 116 145q12 15 29 15zM485 396q52 0 78 -27q24 -26 17 -60
q-10 -43 -98 -119q-34 -28 -81 -63q-28 -21 -84 -67q45 5 78 5q62 0 102 -9q19 -7 14 -31q-1 -8 -5.5 -15.5t-10.5 -13.5t-14.5 -10t-17.5 -4q-19 3 -77 3q-103 0 -145 -10q-7 -2 -10 -2h-9q-25 0 -35 17t-4 42q3 16 8 25q24 20 75 55l99 72q54 41 91 76q41 39 47 62
q0 3 -6 8q-5 3 -23 3q-23 1 -60.5 -19.5t-74.5 -57.5q-13 -12 -26 -12q-19 0 -29.5 14t-6.5 33q3 17 18 30t41 29q44 26 100 40q27 6 49 6z" />
    <glyph glyph-name="threequarters" unicode="&#xbe;" horiz-adv-x="737" 
d="M251 740q40 0 60 -20.5t13 -53.5q-6 -28 -29 -51.5t-62 -50.5q65 -18 51 -82q-15 -69 -85 -117q-77 -53 -188 -53q-27 0 -43 6.5t-20.5 16t-2.5 21.5q5 20 26 40q24 -5 48 -5q62 0 112 21q63 27 72 67q2 9 -0.5 14.5t-8 7.5t-17.5 2q-26 0 -58 -11q-41 -14 -55 -20
q-21 1 -29.5 13.5t-5.5 29.5q4 19 26 30q42 10 99 43q73 43 81 80q1 3 -1.5 5t-7.5 2h-5q-28 -5 -68 -23q-23 -11 -76 -41q-22 -12 -40 -12q-41 0 -31 47l3 7l3 3q31 27 107 55q82 29 132 29zM575 730q18 0 31 -15.5t9 -37.5l-2 -4q-33 -49 -134 -168l-192 -216l-183 -196
q-56 -61 -108 -112q-19 -18 -40 -18q-35 0 -24 56l50 52l199 215q150 164 250 286l114 142q11 16 30 16zM481 397q3 0 17 -2q7 -5 9 -10t-1 -15q-13 -33 -37 -84q-23 -48 -62 -118q6 0 12 0.5t11 1.5t11 1.5t10 0.5l41 3q4 20 8 35l23 89l7 32l1 4q0 2 1 16q4 15 22 26
t39 11q26 0 30 -16q-6 -27 -11 -44q-2 -9 -6.5 -27t-6.5 -27t-6.5 -27.5t-7.5 -27.5q-7 -27 -12 -45q26 -1 42 -6q7 -14 4 -30q-6 -30 -35 -43q-6 0 -13 1t-14 1q-2 -9 -6.5 -28t-7.5 -29q-10 -40 -16 -58q-29 -18 -52 -18q-14 0 -30 3q2 10 14 60q4 12 9.5 36t8.5 36
q-47 0 -74 -2q-44 -3 -72 -13q-20 0 -30 12.5t-5 34.5l2 11q24 20 64 109q32 71 40 107q2 12 24 25q22 14 55 14z" />
    <glyph glyph-name="questiondown" unicode="&#xbf;" horiz-adv-x="515" 
d="M356 730q26 0 40 -15.5t9 -38.5q-6 -25 -32 -41t-57 -16q-25 0 -38.5 13.5t-7.5 39.5q5 26 37 44q24 14 49 14zM332 589q32 0 28 -26q-5 -20 -8 -79q-2 -26 -2 -37q-1 -18 -4 -32q-4 -18 -13 -29t-24 -16.5t-38 -7.5q-121 -6 -202 -53q-72 -43 -85 -105q-14 -66 29 -100
q34 -29 97 -29q50 0 111 26q45 20 83 51q11 9 13 18q0 1 0.5 3t0.5 5v6q19 9 40 9q27 0 42.5 -16t11.5 -39q-7 -16 -24 -34t-42 -34.5t-55 -30.5q-101 -49 -200 -49q-101 0 -154 61q-50 55 -34 130q11 44 43.5 87.5t80.5 78.5q99 73 222 90q1 16 7 43q6 36 9 53l6 25
q4 13 22.5 22t38.5 9z" />
    <glyph glyph-name="Agrave" unicode="&#xc0;" horiz-adv-x="817" 
d="M437 969l20 -18q42 -37 65 -67q13 -16 21 -38q4 -10 -19 -26q-23 -14 -29 0v-2q-19 24 -59 57q-19 16 -56 40q-19 10 9 39q29 31 48 15zM441 744q25 0 47.5 -7t31.5 -18l-24 -25q-1 -17 -1.5 -50.5t-0.5 -48.5q-6 -117 3 -235q3 -52 15 -118q53 -2 60 -2q44 0 73 5
q26 5 45 13l-78 -90q-23 -2 -42 -2h-18q-6 0 -23 2q36 -118 107 -157q29 -16 65 -22q16 -4 28 -5l28 -6l-151 -43q-80 4 -129 86q-35 57 -54 160q-94 12 -209 12h-38q-13 -1 -39 -1q-119 -147 -181 -194q-8 -6 -22 -6q-52 0 -82 27l-3 4q0 1 -1 2l-2 1l10 6q7 4 12 8
q34 22 83 71q27 26 67 73q-87 -9 -141 -26q-53 -18 -56 -33q-1 -5 2.5 -7.5t8.5 -2.5q24 0 78 30l-1 -6q-2 -5 -3 -8q-5 -16 -14 -27q-28 -35 -89 -35q-37 0 -60 22q-20 20 -15 45q7 33 75 60q43 16 137 32q24 3 125 13l112 144q84 115 131 188q62 99 79 155q19 16 54 16z
M401 561q-105 -165 -219 -313q27 0 40 1h37q99 0 154 -3q-17 131 -12 315z" />
    <glyph glyph-name="Aacute" unicode="&#xc1;" horiz-adv-x="817" 
d="M662 968q27 -23 7 -39q-40 -37 -66 -57q-65 -50 -96 -62q-13 -6 -26 11q-13 16 -5 21q33 22 81 65q40 36 60 60q9 11 21.5 10.5t23.5 -9.5zM441 744q25 0 47.5 -7t31.5 -18l-24 -25q-1 -13 -1 -29.5t-0.5 -36t-0.5 -33.5q-6 -117 3 -235q3 -52 15 -118q53 -2 60 -2
q44 0 73 5q26 5 45 13l-78 -90q-23 -2 -42 -2h-18q-6 0 -23 2q36 -118 107 -157q29 -16 65 -22q16 -4 28 -5l28 -6l-151 -43q-80 4 -129 86q-35 57 -54 160q-94 12 -209 12h-38q-13 -1 -39 -1q-119 -147 -181 -194q-8 -6 -22 -6q-52 0 -82 27l-3 4q0 1 -1 2l-2 1l10 6
q7 4 12 8q34 22 83 71q27 26 67 73q-87 -9 -141 -26q-53 -18 -56 -33q-1 -5 2.5 -7.5t8.5 -2.5q24 0 78 30l-1 -6q-1 -5 -3 -8q-5 -16 -14 -27q-28 -35 -89 -35q-37 0 -60 22q-20 20 -15 45q7 33 75 60q43 16 137 32q24 3 125 13l112 144q84 115 131 188q62 99 79 155
q19 16 54 16zM401 561q-105 -165 -219 -313q27 0 40 1h37q99 0 154 -3q-17 131 -12 315z" />
    <glyph glyph-name="Acircumflex" unicode="&#xc2;" horiz-adv-x="817" 
d="M505 956q28 4 62 -1q14 -3 17 -9q2 -3 32 -45q10 -17 20 -30q10 -14 13 -23q3 -8 -4 -12t-22 -7q-35 -6 -46 14l-1 -2q-13 16 -21 28q-20 25 -30 36q-15 -12 -61 -45q-33 -23 -49 -30q-23 -7 -45 -1q-21 6 -6 19l34 28l66 56q3 3 9 8t8 6t6 3.5t8 4t10 2.5zM441 744
q25 0 47.5 -7t31.5 -18l-24 -25q-1 -17 -1.5 -50.5t-0.5 -48.5q-6 -117 3 -235q3 -52 15 -118q53 -2 60 -2q44 0 73 5q26 5 45 13l-78 -90q-23 -2 -42 -2h-18q-6 0 -23 2q36 -118 107 -157q29 -16 65 -22q16 -4 28 -5l28 -6l-151 -43q-80 4 -129 86q-35 57 -54 160
q-94 12 -209 12h-38q-13 -1 -39 -1q-119 -147 -181 -194q-8 -6 -22 -6q-52 0 -82 27l-3 4q0 1 -1 2l-2 1l10 6q7 4 12 8q34 22 83 71q27 26 67 73q-87 -9 -141 -26q-53 -18 -56 -33q-1 -5 2.5 -7.5t8.5 -2.5q24 0 78 30l-1 -6q-1 -5 -3 -8q-5 -16 -14 -27q-28 -35 -89 -35
q-37 0 -60 22q-20 20 -15 45q7 33 75 60q43 16 137 32q24 3 125 13l112 144q84 115 131 188q62 99 79 155q19 16 54 16zM401 561q-105 -165 -219 -313q27 0 40 1h37q99 0 154 -3q-17 131 -12 315z" />
    <glyph glyph-name="Atilde" unicode="&#xc3;" horiz-adv-x="817" 
d="M484 932q23 -2 40 -19q26 -28 65 -24q32 3 52 20q9 6 16 1t11 -16q8 -28 -10 -40q-60 -36 -106 -32q-34 2 -53 24q-16 17 -41 17q-24 -1 -48 -12t-38 -22q-6 -6 -13.5 -3t-11.5 12q-4 7 -2 20q3 11 14 21t34 25q46 29 91 28zM441 744q25 0 47.5 -7t31.5 -18l-24 -25
q-1 -17 -1.5 -50.5t-0.5 -48.5q-6 -117 3 -235q3 -52 15 -118q53 -2 60 -2q44 0 73 5q26 5 45 13l-78 -90q-23 -2 -42 -2h-18q-6 0 -23 2q36 -118 107 -157q29 -16 65 -22q16 -4 28 -5l28 -6l-151 -43q-80 4 -129 86q-35 57 -54 160q-94 12 -209 12h-38q-13 -1 -39 -1
q-119 -147 -181 -194q-8 -6 -22 -6q-52 0 -82 27l-3 4q0 1 -1 2l-2 1l10 6q7 4 12 8q34 22 83 71q27 26 67 73q-87 -9 -141 -26q-53 -18 -56 -33q-1 -5 2.5 -7.5t9.5 -2.5q23 0 77 30l-1 -6q-1 -5 -3 -8q-5 -16 -14 -27q-28 -35 -89 -35q-37 0 -60 22q-20 20 -15 45
q7 33 75 60q43 16 137 32q24 3 125 13l112 144q84 115 131 188q62 99 79 155q19 16 54 16zM401 561q-105 -165 -219 -313q27 0 40 1h37q99 0 154 -3q-17 131 -12 315z" />
    <glyph glyph-name="Adieresis" unicode="&#xc4;" horiz-adv-x="817" 
d="M589 922q23 10 46.5 4.5t28.5 -23.5t-8 -38t-38 -30q-22 -9 -44.5 -3.5t-28.5 23.5q-3 9 -0.5 18.5t8.5 18.5t15.5 17t20.5 13zM435 921q19 9 40 5t28.5 -21t-3 -34.5t-31.5 -29.5q-20 -10 -41 -6t-28 21q-4 9 -3 18t6 18t13 16.5t19 12.5zM441 744q25 0 47.5 -7
t31.5 -18l-24 -25q-1 -17 -1.5 -50.5t-0.5 -48.5q-6 -117 3 -235q3 -52 15 -118q53 -2 60 -2q44 0 73 5q26 5 45 13l-78 -90q-23 -2 -42 -2h-18q-6 0 -23 2q36 -118 107 -157q29 -16 65 -22q16 -4 28 -5l28 -6l-151 -43q-80 4 -129 86q-35 57 -54 160q-94 12 -209 12h-38
q-13 -1 -39 -1q-119 -147 -181 -194q-8 -6 -22 -6q-52 0 -82 27l-3 4q0 1 -1 2l-2 1l10 6q7 4 12 8q34 22 83 71q27 26 67 73q-87 -9 -141 -26q-53 -18 -56 -33q-1 -5 2.5 -7.5t8.5 -2.5q24 0 78 30l-1 -6q-1 -5 -3 -8q-5 -16 -14 -27q-28 -35 -89 -35q-37 0 -60 22
q-20 20 -15 45q7 33 75 60q43 16 137 32q24 3 125 13l112 144q84 115 131 188q62 99 79 155q19 16 54 16zM401 561q-105 -165 -219 -313q27 0 40 1h37q99 0 154 -3q-17 131 -12 315z" />
    <glyph glyph-name="Aring" unicode="&#xc5;" horiz-adv-x="817" 
d="M503 936q30 13 58.5 5.5t36.5 -30.5q4 -15 -2 -32t-20.5 -32t-34.5 -23q-30 -13 -58 -5.5t-38 30.5q-7 23 10 48.5t48 38.5zM512 899q-25 -12 -17 -32q9 -18 49 -2h-5q6 5 9 11.5t1.5 12.5t-6 10t-12.5 4.5t-19 -4.5zM441 744q25 0 47.5 -7t31.5 -18l-24 -25
q-1 -17 -1.5 -50.5t-0.5 -48.5q-6 -117 3 -235q3 -52 15 -118q53 -2 60 -2q44 0 73 5q26 5 45 13l-78 -90q-23 -2 -42 -2h-18q-6 0 -23 2q36 -118 107 -157q29 -16 65 -22q16 -4 28 -5l28 -6l-151 -43q-80 4 -129 86q-35 57 -54 160q-94 12 -209 12h-38q-13 -1 -39 -1
q-119 -147 -181 -194q-8 -6 -22 -6q-52 0 -82 27l-3 4q0 1 -1 2l-2 1l10 6q7 4 12 8q34 22 83 71q27 26 67 73q-87 -9 -141 -26q-53 -18 -56 -33q-1 -5 2.5 -7.5t8.5 -2.5q24 0 78 30l-1 -6q-2 -5 -3 -8q-5 -16 -14 -27q-28 -35 -89 -35q-37 0 -60 22q-20 20 -15 45
q7 33 75 60q43 16 137 32q24 3 125 13l112 144q84 115 131 188q62 99 79 155q19 16 54 16zM401 561q-105 -165 -219 -313q27 0 40 1h37q99 0 154 -3q-17 131 -12 315z" />
    <glyph glyph-name="AE" unicode="&#xc6;" horiz-adv-x="1401" 
d="M432 745q22 0 44 -4q31 -8 42 -20l-25 -25q-4 -176 -4 -199q-1 -122 15 -228q44 45 117 84q-139 49 -120 139q17 78 110 138q82 53 204 84q115 29 223 29q126 0 226 -54q45 -24 68.5 -55t17.5 -60q-6 -27 -29 -46q-26 -23 -55 -23q-20 0 -38 14l-3.5 3.5t-3.5 4.5
q-8 6 -9 7q-5 7 -8 9q6 -2 8 -2h6q7 0 13 2.5t9.5 6.5t4.5 9q3 17 -16 33t-55 29q-77 28 -168 28q-139 0 -271 -49q-60 -22 -99 -51t-45 -58q-8 -38 37 -67q31 -20 78 -31q67 26 157 47q78 17 141 17q60 0 89 -18q28 -18 24 -38q-7 -31 -65 -57q-70 -31 -179 -31
q-77 0 -151 14q-81 -37 -131 -85q5 -1 13 -1h9q37 0 69 11l-72 -83q-25 -2 -42 -2h-10q-3 0 -12 2q-7 -60 70 -87q64 -24 164 -24q126 0 252 35q135 38 249 114q2 -6 5 -9q3 -7 5 -23q0 -10 -2 -17q-5 -24 -22.5 -48t-47.5 -37q-109 -46 -227 -71t-224 -25q-151 0 -236 49
q-83 48 -114 157q-94 10 -202 10h-43q-13 0 -44 -2q-115 -143 -182 -193q-8 -9 -28 -9q-38 0 -75 39q44 28 81.5 63t89.5 93q-69 -9 -112 -19q-31 -7 -57 -18q-25 -11 -28 -22q-1 -5 2.5 -6.5t9.5 -1.5q7 0 23 5q17 5 50 19l-1 -3q-5 -22 -24 -41q-26 -26 -77 -26
q-37 0 -59 22q-21 19 -16 45q9 40 91 66q82 25 246 39q60 71 134 172q69 97 121 181q52 81 68 133q13 12 27 15q5 1 19 1zM401 575q-131 -198 -228 -326q14 1 39 1h41q77 0 151 -3q-15 106 -3 328zM959 404q-61 0 -131 -30q24 -5 54 -5q77 0 133 22q-21 13 -56 13z" />
    <glyph glyph-name="Ccedilla" unicode="&#xc7;" horiz-adv-x="961" 
d="M853 261l33 27q-5 -18 -11 -45q-6 -20 -9 -32q-11 -25 -34 -51q-93 -95 -223 -151q-47 -20 -94 -33t-94 -19l-14 -12q-19 -16 -32 -25q20 0 36 -5q21 -10 25 -29q6 -23 -12 -43.5t-50 -30.5q-30 -10 -66 -6q-33 3 -45 9q-10 4 -12 11q-2 4 1 9q6 13 17 11q36 -6 66.5 -1
t40.5 26q7 14 -26 20q-16 2 -23 2h-10q-11 0 -12.5 7t5.5 12l38 40q-207 1 -323 97q-129 105 -91 282q26 123 134 223q93 84 234 138q127 47 244 47q136 0 220 -44q98 -51 79 -139q-14 -66 -89 -112q-72 -44 -163 -44q-63 0 -98 28q-41 32 -30 82q10 48 62 81q50 32 106 32
q20 0 28 -24q5 -17 0 -43q-2 -8 -3 -11q-1 -1 -2.5 -4.5t-3.5 -9.5t-5 -11q-1 2 -3.5 4.5t-4.5 5t-4 4.5q-15 17 -32 23q-10 4 -25 4q-34 0 -39 -25q-6 -28 22 -41q24 -11 62 -11q49 0 93 19q45 21 52 53q5 24 -15.5 42.5t-58.5 31.5q-69 23 -151 23q-178 0 -327 -101
q-70 -47 -116 -109t-61 -130q-11 -51 4.5 -100t53.5 -88q87 -87 242 -87q125 0 227 41q123 49 287 182z" />
    <glyph glyph-name="Egrave" unicode="&#xc8;" horiz-adv-x="888" 
d="M513 969l20 -18q42 -37 65 -67q12 -16 20 -38q4 -10 -18 -26q-23 -14 -29 0v-2q-19 24 -59 57q-19 16 -56 40q-19 10 8 39q30 31 49 15zM526 743q128 0 228 -54q45 -25 68 -55.5t17 -59.5q-6 -25 -30 -47q-26 -23 -55 -23q-12 0 -22.5 5t-15.5 9.5t-16 15.5l-9 11
q3 -1 15 -1q24 0 28 16q4 18 -16 35.5t-55 30.5q-75 28 -164 28q-142 0 -273 -51q-62 -24 -101.5 -53.5t-45.5 -58.5q-8 -36 33 -64q30 -22 81 -35q171 64 300 64q54 0 86 -17q30 -16 26 -38q-2 -10 -11 -20.5t-23.5 -20.5t-34.5 -18q-69 -29 -164 -29q-75 0 -170 15
q-67 -32 -107 -66q-55 -47 -64 -92q-13 -59 65 -88q67 -25 167 -25q131 0 255 36q139 39 250 113q12 -28 7 -54q-6 -26 -25.5 -48t-43.5 -32q-217 -90 -447 -90q-167 0 -255 52q-87 49 -68 138q21 99 173 181q-64 22 -94 53q-36 36 -26 85v1q0 1 2 2q17 77 113 139
q86 55 206 83q112 27 216 27zM444 403q-51 0 -130 -30q39 -6 63 -6q58 0 126 23q-2 1 -5 2l-5 2l-2 1t-3 1q-1 1 -2.5 1.5t-2.5 0.5q-4 0 -5 1q-13 4 -34 4z" />
    <glyph glyph-name="Eacute" unicode="&#xc9;" horiz-adv-x="888" 
d="M736 968q27 -23 8 -39q-40 -37 -66 -57q-65 -50 -96 -62q-13 -6 -27 11q-12 16 -4 21q33 22 80 65q41 36 60 60q9 11 21.5 10.5t23.5 -9.5zM526 743q128 0 228 -54q45 -25 68 -55.5t17 -59.5q-6 -25 -30 -47q-26 -23 -55 -23q-12 0 -22.5 5t-15.5 9.5t-16 15.5l-8 11
q2 -1 14 -1q24 0 28 16q2 12 -6.5 24.5t-25 22.5t-39.5 19q-75 28 -164 28q-142 0 -273 -51q-62 -24 -101.5 -53.5t-45.5 -58.5q-8 -36 33 -64q30 -22 81 -35q171 64 300 64q54 0 86 -17q31 -16 26 -38q-3 -15 -21.5 -31t-47.5 -28q-69 -29 -164 -29q-75 0 -170 15
q-67 -32 -107 -66q-55 -47 -64 -92q-13 -59 65 -88q67 -25 167 -25q131 0 255 36q139 39 250 113q12 -28 7 -54q-6 -26 -25.5 -48t-43.5 -32q-217 -90 -447 -90q-167 0 -255 52q-87 49 -68 138q21 99 173 181q-64 22 -94 53q-36 36 -26 85v1q0 1 2 2q17 77 113 139
q86 55 206 83q112 27 216 27zM444 403q-51 0 -130 -30q39 -6 63 -6q58 0 126 23q-2 1 -5 2l-5 2l-2 1t-3 1q-1 1 -2.5 1.5t-2.5 0.5q-4 0 -5 1q-13 4 -34 4z" />
    <glyph glyph-name="Ecircumflex" unicode="&#xca;" horiz-adv-x="888" 
d="M582 956q28 4 62 -1q14 -3 17 -9q2 -3 31 -45q10 -17 21 -30q9 -14 13 -23q3 -8 -4.5 -12t-21.5 -7q-36 -6 -46 14l-2 -2l-21 28q-19 25 -29 36q-15 -12 -62 -45q-32 -23 -48 -30q-23 -7 -45 -1t-6 19l34 28l66 56q3 3 8.5 8t7.5 6t6 3.5t8.5 4t10.5 2.5zM526 743
q128 0 228 -54q45 -25 68 -55.5t17 -59.5q-6 -25 -30 -47q-26 -23 -55 -23q-12 0 -22.5 5t-15.5 9.5t-16 15.5l-8 11q2 -1 14 -1q24 0 28 16q4 18 -16 35.5t-55 30.5q-75 28 -164 28q-142 0 -273 -51q-62 -24 -101.5 -53.5t-45.5 -58.5q-8 -36 33 -64q30 -22 81 -35
q171 64 300 64q54 0 86 -17q31 -16 26 -38q-2 -8 -7.5 -15.5t-14 -15.5t-20.5 -15t-27 -13q-69 -29 -164 -29q-75 0 -170 15q-67 -32 -107 -66q-55 -47 -64 -92q-13 -59 65 -88q67 -25 167 -25q131 0 255 36q139 39 250 113q12 -28 7 -54q-6 -26 -25.5 -48t-43.5 -32
q-217 -90 -447 -90q-167 0 -255 52q-87 49 -68 138q21 99 173 181q-64 22 -94 53q-36 36 -26 85v1q0 1 2 2q17 77 113 139q86 55 206 83q112 27 216 27zM444 403q-51 0 -130 -30q39 -6 63 -6q58 0 126 23q-2 1 -5 2l-5 2l-2 1t-3 1q-1 1 -2.5 1.5t-2.5 0.5q-4 0 -5 1
q-13 4 -34 4z" />
    <glyph glyph-name="Edieresis" unicode="&#xcb;" horiz-adv-x="888" 
d="M666 922q23 10 46 4.5t29 -23.5q5 -18 -8 -38t-38 -30q-23 -9 -45.5 -3.5t-28.5 23.5q-2 9 0.5 18.5t8.5 18.5t15.5 17t20.5 13zM511 921q20 9 41 5t28 -21t-3 -34.5t-32 -29.5q-19 -10 -40 -6t-28 21q-4 9 -3 18t6 18t13 16.5t18 12.5zM526 743q128 0 228 -54
q45 -25 68 -55.5t17 -59.5q-6 -25 -30 -47q-26 -23 -55 -23q-12 0 -22.5 5t-15.5 9.5t-16 15.5l-8 11q2 -1 14 -1q24 0 28 16q2 12 -6.5 24.5t-25 22.5t-39.5 19q-75 28 -164 28q-142 0 -273 -51q-62 -24 -101.5 -53.5t-45.5 -58.5q-8 -36 33 -64q30 -22 81 -35
q171 64 300 64q54 0 86 -17q31 -16 26 -38q-3 -15 -21.5 -31t-47.5 -28q-69 -29 -164 -29q-75 0 -170 15q-67 -32 -107 -66q-55 -47 -64 -92q-13 -59 65 -88q67 -25 167 -25q131 0 255 36q139 39 250 113q12 -28 7 -54q-6 -26 -25.5 -48t-43.5 -32q-217 -90 -447 -90
q-167 0 -255 52q-87 49 -68 138q21 99 173 181q-64 22 -94 53q-36 36 -26 85v1q0 1 2 2q17 77 113 139q86 55 206 83q112 27 216 27zM444 403q-51 0 -130 -30q39 -6 63 -6q58 0 126 23q-2 1 -5 2l-5 2l-2 1t-3 1q-1 1 -2.5 1.5t-2.5 0.5q-4 0 -5 1q-13 4 -34 4z" />
    <glyph glyph-name="Igrave" unicode="&#xcc;" horiz-adv-x="837" 
d="M511 969l20 -18q42 -37 64 -67q13 -16 21 -38q4 -10 -18 -26q-23 -14 -29 0l-1 -2q-18 24 -58 57q-19 16 -56 40q-19 10 8 39q30 31 49 15zM521 752q50 0 99 -27t84 -76q78 -118 41 -292q-17 -82 -65 -153.5t-118 -124.5q-68 -51 -148 -79.5t-160 -28.5
q-75 0 -143.5 26.5t-119.5 69.5q-50 42 -74.5 90t-15.5 89q16 78 117 78q50 0 110 -21q58 -20 90 -54q7 -7 4 -19q-1 -7 -6.5 -13t-15.5 -11t-23 -5l-17 7q-17 5 -84 23q-37 7 -40 7h-5q-23 0 -26 -15l-1 -3l1 -1q2 -23 17.5 -52.5t43.5 -54.5q72 -68 182 -68q148 1 254 90
q105 87 135 237q27 126 -16 221q-13 29 -31 50t-42 32.5t-51 11.5q-42 0 -90 -47q-62 -61 -85 -167q-19 -89 1 -161q17 -62 65 -131q10 -13 8 -25q-3 -14 -17 -23.5t-31 -9.5q-20 0 -34 12q-139 115 -94 330q28 130 125 214q86 74 176 74z" />
    <glyph glyph-name="Iacute" unicode="&#xcd;" horiz-adv-x="837" 
d="M736 968q27 -23 8 -39q-40 -37 -66 -57q-65 -50 -96 -62q-13 -6 -27 11q-12 16 -4 21q33 22 80 65q41 36 60 60q9 11 21.5 10.5t23.5 -9.5zM521 752q50 0 99 -27t84 -76q79 -118 42 -292q-18 -82 -66 -153.5t-118 -124.5q-68 -51 -148 -79.5t-160 -28.5
q-75 0 -143.5 26.5t-119.5 69.5q-50 42 -74.5 90t-15.5 89q16 78 117 78q50 0 110 -21q58 -20 90 -54q7 -7 5 -19q-3 -11 -15 -19.5t-31 -9.5l-17 7q-17 5 -84 23q-37 7 -40 7h-5q-23 0 -26 -15l-1 -3l1 -1q2 -23 17.5 -52.5t43.5 -54.5q72 -68 182 -68q148 1 254 90
q105 87 135 237q27 126 -16 221q-13 29 -31 50t-42 32.5t-51 11.5q-42 0 -90 -47q-62 -61 -85 -167q-19 -89 1 -161q17 -62 65 -131q10 -13 8 -25q-3 -14 -17 -23.5t-31 -9.5q-20 0 -34 12q-139 115 -94 330q28 130 125 214q86 74 176 74z" />
    <glyph glyph-name="Icircumflex" unicode="&#xce;" horiz-adv-x="837" 
d="M580 956q28 4 62 -1q14 -3 17 -9q2 -3 31 -45q10 -17 21 -30q9 -14 13 -23q3 -8 -4.5 -12t-21.5 -7q-36 -6 -46 14l-2 -2l-21 28q-19 25 -29 36q-15 -12 -62 -45q-32 -23 -48 -30q-23 -7 -45 -1t-6 19l34 28l66 56q3 3 8.5 8t7.5 6t6 3.5t8.5 4t10.5 2.5zM521 752
q50 0 99 -27t84 -76q79 -118 42 -292q-18 -82 -66 -153.5t-118 -124.5q-68 -51 -148 -79.5t-160 -28.5q-75 0 -143.5 26.5t-119.5 69.5q-50 42 -74.5 90t-15.5 89q16 78 117 78q50 0 110 -21q58 -20 90 -54q7 -7 5 -19q-3 -11 -15 -19.5t-31 -9.5l-17 7q-17 5 -84 23
q-37 7 -40 7h-5q-23 0 -26 -15l-1 -3l1 -1q2 -23 17.5 -52.5t43.5 -54.5q72 -68 182 -68q148 1 254 90q105 87 135 237q27 126 -16 221q-13 29 -31 50t-42 32.5t-51 11.5q-42 0 -90 -47q-62 -61 -85 -167q-19 -89 1 -161q17 -62 65 -131q10 -13 8 -25q-3 -14 -17 -23.5
t-31 -9.5q-20 0 -34 12q-139 115 -94 330q28 130 125 214q86 74 176 74z" />
    <glyph glyph-name="Idieresis" unicode="&#xcf;" horiz-adv-x="837" 
d="M664 922q23 10 46 4.5t29 -23.5q5 -18 -8 -38t-38 -30q-23 -9 -45.5 -3.5t-28.5 23.5q-2 9 0.5 18.5t8.5 18.5t15.5 17t20.5 13zM509 921q20 9 41 5t28 -21t-3 -34.5t-32 -29.5q-20 -10 -40.5 -6t-27.5 21q-4 9 -3 18t6 18t13 16.5t18 12.5zM521 752q33 0 66 -11.5
t63.5 -35t53.5 -56.5q79 -118 41 -292q-17 -82 -65 -153.5t-118 -124.5q-68 -51 -148 -79.5t-160 -28.5q-75 0 -143.5 26.5t-119.5 69.5q-50 42 -74.5 90t-15.5 89q16 78 117 78q50 0 110 -21q58 -20 90 -54q7 -7 5 -19q-3 -11 -15 -19.5t-31 -9.5l-17 7q-17 5 -84 23
q-37 7 -40 7h-5q-23 0 -26 -15l-1 -3l1 -1q2 -23 17.5 -52.5t43.5 -54.5q72 -68 182 -68q148 1 254 90q105 87 135 237q27 126 -16 221q-20 44 -51.5 69t-72.5 25q-42 0 -90 -47q-62 -61 -85 -167q-19 -89 1 -161q17 -62 65 -131q10 -13 8 -25q-3 -14 -17 -23.5t-31 -9.5
q-20 0 -34 12q-139 115 -94 330q28 130 125 214q86 74 176 74z" />
    <glyph glyph-name="Eth" unicode="&#xd0;" horiz-adv-x="902" 
d="M197 770q20 0 32 -6q8 -5 9 -9l2 -2q-2 -11 -11 -32q95 17 194 17q209 0 325 -91q121 -96 89 -247q-25 -115 -139 -215q-101 -89 -256 -144q-150 -53 -294 -53q-98 0 -125 25q-15 14 -21.5 37t-7.5 63q-3 112 18 236q-47 -1 -85 -5q-5 0 -10 -1l-10 -2t-8 -1
q-8 -1 -22 -3q-9 7 -11.5 14.5t1.5 32.5q6 28 27 37q61 5 62 5q25 0 38 1t33 1l2 8q14 69 39 159q-13 -7 -30 -13q-46 -20 -78 -20q-15 0 -25.5 4t-14.5 13.5t-2 23.5l2 7q80 46 177 78q3 6 12 33q2 7 3 10q1 1 2 4t2 5q34 30 81 30zM388 660q-89 0 -186 -22
q-40 -125 -61 -207q15 0 26 1h29q23 0 34 1q32 0 23 -44q-9 -39 -34 -39h-32q-20 0 -30 1h-35l-3 -13q-16 -73 -21 -138q-9 -91 6 -128q8 -23 51 -23q85 0 203 39q140 46 230 114q114 86 136 189q27 126 -78 202q-94 67 -258 67z" />
    <glyph glyph-name="Ntilde" unicode="&#xd1;" horiz-adv-x="858" 
d="M560 927q24 -2 40 -19q26 -28 65 -24q32 3 53 20q8 6 15 1t11 -16q9 -28 -10 -40q-60 -36 -106 -32q-34 2 -53 24q-16 17 -40 17q-17 0 -35.5 -6.5t-30.5 -13.5t-20 -14q-7 -6 -14 -3t-12 12q-4 7 -1 20q2 11 13.5 21t34.5 25q46 29 90 28zM823 785l46 -73
q-19 -16 -36 -32q-36 -33 -56 -80q-11 -30 -20 -69q-12 -57 -22.5 -135t-29.5 -169q-24 -112 -52 -169q-43 -86 -102 -86q-47 0 -86 50q-39 48 -80 135q-31 62 -57 138q-29 88 -62 252q-19 -119 -31 -178q-22 -102 -47 -172q-33 -95 -75 -145q-50 -62 -114 -62q-74 0 -99 81
q-21 67 -4 148q25 117 103 193q13 14 40 14q25 0 42 -10q19 -12 16 -28q-3 -14 -23 -24v-1h-2q-27 -14 -53 -54q-34 -50 -44 -103q-10 -49 -2 -98q10 -55 37 -56q23 4 56 69q33 63 61 196l43 213q20 99 21 136q0 4 1 10v4.5v5.5q5 21 40 40q33 18 63 18q19 0 27 -11
q6 -8 7 -17l20 -74q12 -46 33 -147q26 -134 72 -253q49 -132 107 -178q26 38 50 148q20 94 32.5 192t25.5 160q14 65 51 122q37 59 103 99z" />
    <glyph glyph-name="Ograve" unicode="&#xd2;" horiz-adv-x="885" 
d="M487 969l20 -18q43 -37 65 -67q13 -16 21 -38q4 -10 -19 -26q-22 -14 -29 0v-2q-19 24 -59 57q-19 16 -55 40q-20 10 8 39q29 31 48 15zM470 735q21 0 35.5 -1t30 -4.5t26 -10.5t15.5 -18q56 -8 104 -37q61 -37 96 -105q63 49 124 116l10 -11q29 -28 22 -63
q-5 -23 -26 -40q-12 -10 -19 -15l-24 -20q-31 -26 -65 -48q7 -54 -6 -116q-16 -76 -60 -145t-112 -122q-147 -116 -350 -116q-86 0 -155 27t-113 76q-96 103 -63 256v2q9 41 28 81t46.5 75t60.5 66.5t71 58.5q76 54 162 84t162 30zM341 627q-116 -44 -193 -115
q-83 -77 -103 -170q-30 -143 47 -223q69 -72 193 -72q151 0 270 92q52 41 87 93.5t46 106.5q8 35 6 74q-118 -58 -213 -58q-107 0 -159 58q-47 52 -32 124q10 47 51 90zM501 624q-54 0 -93 -31q-36 -30 -45 -71q-6 -28 8 -49t45.5 -32.5t75.5 -11.5q78 0 184 61
q-23 62 -70.5 98t-104.5 36z" />
    <glyph glyph-name="Oacute" unicode="&#xd3;" horiz-adv-x="885" 
d="M713 968q27 -23 8 -39q-40 -37 -66 -57q-65 -50 -97 -62q-13 -6 -26 11q-13 16 -5 21q34 22 81 65q41 36 60 60q9 11 21.5 10.5t23.5 -9.5zM470 735q29 0 47 -2t35.5 -9.5t24.5 -22.5q56 -8 104 -37q61 -37 96 -105q63 49 124 116l10 -11q29 -28 22 -63q-5 -23 -26 -40
q-12 -10 -19 -15l-24 -20q-31 -26 -65 -48q7 -54 -6 -116q-16 -76 -60 -145t-112 -122q-147 -116 -350 -116q-86 0 -155 27t-113 76q-96 103 -63 256v2q9 41 28 81t46.5 75t60.5 66.5t71 58.5q76 54 162 84t162 30zM341 627q-116 -44 -193 -115q-83 -77 -103 -170
q-30 -143 48 -223q68 -72 192 -72q152 0 270 92q35 27 62.5 60t45.5 68.5t25 71.5q8 35 6 74q-118 -58 -213 -58q-107 0 -159 58q-47 52 -32 124q10 47 51 90zM501 624q-53 0 -93 -31q-36 -30 -45 -71q-4 -21 3 -38.5t24 -29.5t43 -18.5t59 -6.5q78 0 184 61
q-23 62 -70.5 98t-104.5 36z" />
    <glyph glyph-name="Ocircumflex" unicode="&#xd4;" horiz-adv-x="885" 
d="M557 956q28 4 62 -1q14 -3 17 -9q3 -3 32 -45q10 -17 20 -30q10 -14 13 -23q4 -8 -3.5 -12t-22.5 -7q-35 -6 -46 14l-1 -2q-13 16 -21 28q-20 25 -29 36q-15 -12 -62 -45q-33 -23 -48 -30q-24 -7 -46 -1q-21 6 -6 19l34 28l66 56q4 3 9.5 8t7.5 6t6 3.5t8 4t10 2.5z
M470 735q44 0 70.5 -6.5t36.5 -27.5q56 -8 104 -37q61 -37 96 -105q63 49 124 116l10 -11q29 -28 22 -63q-5 -23 -26 -40q-12 -10 -19 -15l-24 -20q-31 -26 -65 -48q7 -54 -6 -116q-16 -76 -60 -145t-112 -122q-147 -116 -350 -116q-86 0 -155 27t-113 76q-96 103 -63 256v2
q9 41 28 81t46.5 75t60.5 66.5t71 58.5q76 54 162 84t162 30zM342 627q-117 -44 -194 -115q-83 -77 -103 -170q-30 -143 48 -223q68 -72 192 -72q152 0 270 92q35 27 62.5 60t45.5 68.5t25 71.5q8 35 6 74q-118 -58 -213 -58q-107 0 -159 58q-47 52 -32 124q10 47 52 90z
M501 624q-53 0 -93 -31q-36 -30 -45 -71q-6 -28 8.5 -49t45.5 -32.5t75 -11.5q78 0 184 61q-23 62 -70.5 98t-104.5 36z" />
    <glyph glyph-name="Otilde" unicode="&#xd5;" horiz-adv-x="885" 
d="M536 932q24 -2 40 -19q26 -28 65 -24q32 3 52 20q9 6 16 1t11 -16q8 -28 -10 -40q-60 -36 -106 -32q-34 2 -53 24q-16 17 -40 17q-24 -1 -48.5 -12t-38.5 -22q-6 -6 -13 -3t-12 12q-4 7 -1 20q2 11 13.5 21t33.5 25q46 29 91 28zM470 735q29 0 47 -2t35.5 -9.5
t24.5 -22.5q56 -8 104 -37q61 -37 96 -105q63 49 124 116l10 -11q29 -28 22 -63q-5 -23 -26 -40q-12 -10 -19 -15l-24 -20q-31 -26 -65 -48q7 -54 -6 -116q-16 -76 -60 -145t-112 -122q-147 -116 -350 -116q-86 0 -155 27t-113 76q-96 103 -63 256l1 2q8 41 27 81t46.5 75
t60.5 66.5t71 58.5q76 54 162 84t162 30zM342 627q-117 -44 -194 -115q-83 -77 -103 -170q-30 -143 48 -223q68 -72 192 -72q152 0 270 92q35 27 62.5 60t45.5 68.5t25 71.5q8 35 6 74q-118 -58 -213 -58q-107 0 -159 58q-47 52 -32 124q10 47 52 90zM501 624q-53 0 -93 -31
q-36 -30 -45 -71q-4 -21 3 -38.5t24 -29.5t43 -18.5t59 -6.5q78 0 184 61q-23 62 -70.5 98t-104.5 36z" />
    <glyph glyph-name="Odieresis" unicode="&#xd6;" horiz-adv-x="885" 
d="M640 922q23 10 46.5 4.5t28.5 -23.5q6 -18 -7.5 -38t-37.5 -30q-23 -9 -45.5 -3.5t-28.5 23.5q-3 9 -0.5 18.5t8.5 18.5t15.5 17t20.5 13zM486 921q20 9 40.5 5t28 -21t-3 -34.5t-31.5 -29.5q-20 -10 -40.5 -6t-28.5 21q-4 9 -2.5 18t6 18t13 16.5t18.5 12.5zM470 735
q29 0 47 -2t35.5 -9.5t24.5 -22.5q56 -8 104 -37q61 -37 96 -105q63 49 124 116l10 -11q29 -28 22 -63q-5 -23 -26 -40q-12 -10 -19 -15l-24 -20q-31 -26 -65 -48q7 -54 -6 -116q-16 -76 -60 -145t-112 -122q-147 -116 -350 -116q-86 0 -155 27t-113 76q-96 103 -63 256v2
q9 41 28 81t46.5 75t60.5 66.5t71 58.5q76 54 162 84t162 30zM341 627q-116 -44 -193 -115q-83 -77 -103 -170q-30 -143 48 -223q68 -72 192 -72q152 0 270 92q52 41 87 93.5t46 106.5q8 35 6 74q-118 -58 -213 -58q-107 0 -159 58q-47 52 -32 124q10 47 51 90zM501 624
q-54 0 -93 -31q-36 -30 -45 -71q-6 -28 8.5 -49t45.5 -32.5t75 -11.5q78 0 184 61q-23 62 -70.5 98t-104.5 36z" />
    <glyph glyph-name="multiply" unicode="&#xd7;" horiz-adv-x="361" 
d="M273 544q16 0 28 -12.5t7 -33.5l-1 -5q-1 -2 -2 -5q-39 -45 -133 -127q10 -15 29 -39q22 -28 42 -63q8 -14 18 -34q-40 -40 -76 -40h-3q0 1 -3 1q-6 7 -11 16l-20 29q-6 9 -23 36q-4 6 -12 17.5t-12 17.5l-38 -32l-33 -27l-67 -56q-10 0 -19 3t-15.5 8t-11 12t-6.5 16
q4 19 60 69q44 38 87 71q-4 5 -8.5 11.5t-9 12.5l-7.5 10l-22 29q-14 19 -21 29q-8 9 -26 31q14 22 37.5 38t48.5 16h4q1 -1 4 -1q16 -33 71 -119l35 28q41 32 68 59q14 14 19 23q5 11 22 11z" />
    <glyph glyph-name="Oslash" unicode="&#xd8;" horiz-adv-x="887" 
d="M664 820q19 0 29.5 -13t5.5 -38l-2 -5q-3 -4 -11.5 -17t-12.5 -20q-18 -26 -26 -40q42 -19 68 -42q43 -36 64 -81q63 49 124 116q9 -7 21 -25q16 -25 11 -49q-5 -22 -25 -39q-66 -54 -109 -85q8 -51 -6 -115q-16 -75 -59.5 -143.5t-110.5 -121.5q-149 -117 -352 -117
q-38 0 -67 5q-32 -49 -48 -67q-13 -13 -30 -13q-21 0 -34 18q-16 18 -10 46v8l11 14q3 5 13 19q-102 43 -145 131q-45 86 -21 198q17 81 72.5 153.5t134.5 129.5q77 54 162 84t162 30q70 0 98 -23q23 36 35 52t21 31q15 19 37 19zM344 633q-117 -44 -194 -115
q-83 -78 -103 -170q-23 -109 18 -182q30 -53 91 -84l49 73l52 79l102 156q-42 26 -59 66t-7 87t51 90zM503 630q-52 0 -92 -31q-37 -29 -46 -71q-9 -45 35 -74l37 58l52 82l22 33q-2 3 -8 3zM594 604l-106 -169h5q83 0 185 60q-27 72 -84 109zM696 419q-117 -58 -215 -58
q-19 0 -37 3l-195 -308q32 -2 39 -2q151 0 269 92q53 41 87.5 93t45.5 106q8 35 6 74z" />
    <glyph glyph-name="Ugrave" unicode="&#xd9;" horiz-adv-x="868" 
d="M429 967l20 -18q43 -37 65 -67q13 -16 21 -38q4 -10 -18 -26q-23 -14 -29 0l-1 -2q-19 24 -59 57q-19 16 -55 40q-19 10 8 39q29 31 48 15zM784 742q29 0 33 -22q-34 -98 -66 -216q-28 -101 -50 -208q-9 -39 -14 -95q-6 -68 0 -122q6 -63 28 -81q-15 -23 -38 -35.5
t-44 -12.5q-22 0 -31 11q-13 13 -17 68q-5 56 1 133q-80 -108 -183 -154q-73 -33 -153 -33q-192 0 -250 152q-48 124 -3 338q23 104 76 247q43 27 79 27q16 0 41 -9l-48 -142q-29 -83 -47 -168q-35 -163 -1 -252q42 -112 192 -112q79 0 156 68q61 54 120 155q47 83 76 164
q6 43 21 112q18 87 40 158q46 29 82 29z" />
    <glyph glyph-name="Uacute" unicode="&#xda;" horiz-adv-x="868" 
d="M653 966q27 -23 8 -39q-40 -37 -66 -57q-65 -50 -97 -62q-13 -6 -26 11q-13 16 -5 21q34 22 81 65q41 36 60 60q9 11 21.5 10.5t23.5 -9.5zM784 742q29 0 33 -22q-34 -98 -66 -216q-28 -101 -50 -208q-9 -39 -14 -95q-6 -68 0 -122q6 -63 28 -81q-15 -23 -38 -35.5
t-44 -12.5q-22 0 -31 11q-12 13 -17 68q-5 56 1 133q-80 -108 -183 -154q-73 -33 -153 -33q-100 0 -161 39.5t-89 112.5q-48 124 -3 338q23 104 76 247q43 27 79 27q16 0 41 -9l-48 -142q-29 -83 -47 -168q-35 -163 -1 -252q42 -112 192 -112q79 0 156 68q61 54 120 155
q47 83 76 164q6 43 21 112q18 87 40 158q46 29 82 29z" />
    <glyph glyph-name="Ucircumflex" unicode="&#xdb;" horiz-adv-x="868" 
d="M497 954q28 4 62 -1q14 -3 17 -9q3 -3 32 -45q10 -17 20 -30q10 -14 13 -23q3 -5 -0.5 -9t-9.5 -6t-16 -4q-35 -6 -46 14l-1 -2q-13 16 -21 28q-20 25 -29 36q-15 -12 -62 -45q-33 -23 -48 -30q-24 -7 -46 -1q-21 6 -6 19l34 28l66 56q4 3 9.5 8t7.5 6t6 3.5t8 4t10 2.5z
M784 742q29 0 33 -22q-34 -98 -66 -216q-28 -101 -50 -208q-9 -39 -14 -95q-6 -68 0 -122q6 -63 28 -81q-15 -23 -38 -35.5t-44 -12.5q-22 0 -31 11q-12 13 -17 68q-5 56 1 133q-80 -108 -183 -154q-73 -33 -153 -33q-192 0 -250 152q-48 124 -3 338q23 104 76 247
q43 27 79 27q16 0 41 -9l-48 -142q-29 -83 -47 -168q-35 -163 -1 -252q42 -112 192 -112q79 0 156 68q61 54 120 155q47 83 76 164q6 43 21 112q18 87 40 158q46 29 82 29z" />
    <glyph glyph-name="Udieresis" unicode="&#xdc;" horiz-adv-x="868" 
d="M581 920q23 10 46.5 4.5t28.5 -23.5q6 -18 -7.5 -38t-37.5 -30q-23 -9 -45.5 -3.5t-28.5 23.5q-5 17 8.5 37t35.5 30zM427 919q20 9 40.5 5t28 -21t-3 -34.5t-31.5 -29.5q-20 -10 -40.5 -6t-28 21t3 36t31.5 29zM784 742q29 0 33 -22q-34 -98 -66 -216q-28 -101 -50 -208
q-9 -39 -14 -95q-6 -68 0 -122q6 -63 28 -81q-15 -23 -38 -35.5t-44 -12.5q-22 0 -31 11q-12 13 -17 68q-5 56 1 133q-80 -108 -183 -154q-73 -33 -153 -33q-192 0 -250 152q-48 124 -3 338q23 104 76 247q43 27 79 27q16 0 41 -9l-48 -142q-29 -83 -47 -168
q-35 -163 -1 -252q42 -112 192 -112q79 0 156 68q61 54 120 155q47 83 76 164q6 43 21 112q18 87 40 158q46 29 82 29z" />
    <glyph glyph-name="Yacute" unicode="&#xdd;" horiz-adv-x="806" 
d="M614 968q26 -23 7 -39q-40 -37 -66 -57q-65 -50 -96 -62q-13 -6 -27 11q-12 16 -4 21q33 22 81 65q40 36 59 60q9 11 21.5 10.5t24.5 -9.5zM730 737q25 0 31 -20q-30 -87 -51 -166q-8 -27 -21 -79l-44 -172q-24 -89 -51 -162q-17 -43 -36 -82q95 -2 146 -16q12 -11 8 -30
q-6 -29 -42 -58q-33 18 -59 23q-29 5 -94 11q-97 -152 -237 -230q-135 -75 -277 -75q-85 0 -128 31q-37 26 -29 64q15 71 124 133q90 51 239 94q129 36 249 49q18 34 37 74q-114 -89 -254 -89q-183 0 -246 130q-53 111 -13 301q25 117 76 245q40 23 79 23q18 0 42 -8
q-22 -62 -50 -133q-28 -72 -46 -158q-30 -140 4 -220q43 -109 193 -109q188 0 277 246q22 96 45 182q30 114 50 175q49 26 78 26zM415 -15q-165 -18 -312 -87q-63 -29 -102 -59.5t-44 -53.5q-4 -17 23 -28q25 -10 51 -10q85 0 188 60q114 67 196 178z" />
    <glyph glyph-name="Thorn" unicode="&#xde;" horiz-adv-x="846" 
d="M201 749q6 0 19 -2q-13 -37 -31 -105q121 23 237 23q197 0 293 -86q43 -39 59 -89t4 -105q-20 -97 -114 -166q-80 -59 -202 -91q-103 -28 -212 -28q-97 0 -161 24q-5 1 -7.5 4.5t-2.5 6t-1 9.5l1 1q4 16 18 30.5t32 14.5q9 0 11 -1q38 -16 108 -16q132 0 256 49
q66 26 110.5 66.5t56.5 92.5q9 44 -9 84t-59 71q-86 65 -224 65q-103 0 -212 -27q-25 -96 -50 -215q-24 -112 -35 -182q-20 -129 -10 -181q-1 0 -2.5 -1t-2.5 -2l-5 -4q-33 -23 -55 -23q-16 0 -27 11q-15 14 -12 53q22 226 77 487l4 18q-95 -41 -166 -104q-7 9 -15 15
q-1 2 -2.5 4.5t-2.5 3.5q-3 2 -6 7q-10 14 -7 28q3 16 29 34q72 52 188 89q4 18 11 48q6 27 10 42q16 19 47 33t62 14z" />
    <glyph glyph-name="germandbls" unicode="&#xdf;" horiz-adv-x="611" 
d="M567 163q5 0 9 -2.5t6 -6t1 -7.5q0 -2 -7 -10q-48 -43 -113 -43h-14q-22 -57 -76 -91q-50 -31 -106 -31q-54 0 -82 35q-25 30 -16 75q10 46 50 74.5t96 28.5q22 0 47 -7q-3 6 -9 21q0 2 -11 21q-15 28 -20 44q-6 17 -7 35q-43 -44 -86 -70q-57 -35 -131 -58
q52 -67 56 -183q2 -77 -15 -157t-51 -144q-52 -100 -129 -100q-148 0 -56 430q33 155 89 335q56 179 125 360q8 17 30.5 27.5t46.5 10.5q10 0 17.5 -2t11.5 -7t3 -12q-71 -183 -135 -374l-47 -148q11 7 30 12q83 21 141.5 71t89.5 123q14 29 40 29q13 0 38 -13q5 -4 14 -4h2
q8 -2 11 -3t9 -4t5.5 -7t-1.5 -11q-8 -14 -12 -29q-6 -15 -9 -27q-2 -20 -3 -32.5t4 -28.5t9.5 -26t12.5 -25q26 -49 30 -86q14 -4 31 -4q34 0 71 18q2 3 10 3zM78 -165q18 86 13 163q-8 94 -47 144q-7 6 -8 8q-1 1 -3.5 3t-3.5 3q-30 -102 -46 -179q-33 -155 -21 -237
q3 -34 13 -48q9 -14 17 -16h1q8 0 18 10q22 18 47 79q12 32 20 70zM281 34q33 0 57 20.5t30 56.5q-20 8 -36 12q-19 5 -31 5q-27 0 -45 -12t-22 -30q-5 -23 8.5 -37.5t38.5 -14.5z" />
    <glyph glyph-name="agrave" unicode="&#xe0;" 
d="M159 639l20 -18q42 -37 65 -67q12 -16 20 -38q4 -10 -18 -26q-23 -14 -29 0v-2q-19 24 -59 57q-19 16 -56 40q-19 10 8 39q30 31 49 15zM228 420q39 -7 59 -19q25 -16 19 -42l-4 -13q-39 -114 -54 -187q-15 -67 -9 -92q5 -20 18 -20q25 0 63 27q36 26 63 67q6 -1 5 -7
q0 -1 -14 -28q-36 -64 -91 -106q-31 -24 -65 -24q-63 0 -71 80q-35 -39 -67.5 -60t-68.5 -21q-55 0 -81 42q-32 47 -14 131q26 123 107 201q34 32 70.5 50t65.5 18q35 0 65 -43q5 23 4 34q-1 2 0 6t0 6zM148 350q-40 0 -86 -68q-41 -59 -53 -114q-9 -45 3 -77q11 -33 36 -33
q27 0 67 49q32 38 47 70l1 2q9 41 20 70q1 57 -11 83q-8 18 -24 18z" />
    <glyph glyph-name="aacute" unicode="&#xe1;" 
d="M382 638q27 -23 8 -39q-40 -37 -66 -57q-65 -50 -96 -62q-13 -6 -27 11q-12 16 -4 21q33 22 80 65q41 36 60 60q9 11 21.5 10.5t23.5 -9.5zM228 420q39 -7 59 -19q25 -16 19 -42l-4 -13q-39 -114 -54 -187q-15 -67 -9 -92q5 -20 18 -20q25 0 63 27q36 26 63 67q6 -1 5 -7
q0 -1 -14 -28q-36 -64 -91 -106q-31 -24 -65 -24q-63 0 -71 80q-35 -39 -67.5 -60t-68.5 -21q-55 0 -81 42q-32 47 -14 131q26 123 107 201q34 32 70.5 50t65.5 18q35 0 65 -43q5 23 4 34q-1 2 0 6t0 6zM148 350q-40 0 -86 -68q-19 -28 -33 -59t-20 -55q-9 -45 3 -77
q11 -33 36 -33q27 0 68 49q31 38 46 70l1 2q9 41 20 70q1 57 -11 83q-8 18 -24 18z" />
    <glyph glyph-name="acircumflex" unicode="&#xe2;" 
d="M227 626q28 4 62 -1q14 -3 17 -9q2 -3 31 -45q10 -16 21 -30q9 -14 13 -23q2 -5 -1.5 -9t-9.5 -6t-15 -4q-36 -6 -46 14l-2 -2l-21 28q-19 25 -29 36q-15 -12 -62 -45q-32 -23 -48 -30q-23 -7 -45 -1t-6 19l34 28l66 56q3 3 8.5 8t7.5 6t6.5 3.5t8.5 4t10 2.5zM228 420
q39 -7 59 -19q25 -16 19 -42l-4 -13q-39 -114 -54 -187q-15 -67 -9 -92q5 -20 18 -20q25 0 63 27q36 26 63 67q6 -1 5 -7q0 -1 -14 -28q-36 -64 -91 -106q-31 -24 -65 -24q-63 0 -71 80q-35 -39 -67.5 -60t-68.5 -21q-55 0 -81 42q-32 47 -14 131q26 123 107 201
q34 32 70.5 50t65.5 18q35 0 65 -43q5 23 4 34q-1 2 0 6t0 6zM148 350q-40 0 -86 -68q-19 -28 -33 -59t-20 -55q-9 -45 3 -77q11 -33 36 -33q27 0 68 49q31 38 46 70l1 2q9 41 20 70q1 57 -11 83q-8 18 -24 18z" />
    <glyph glyph-name="atilde" unicode="&#xe3;" 
d="M206 602q23 -2 40 -19q25 -28 65 -24q31 3 52 20q8 6 15.5 1t11.5 -16q8 -28 -11 -40q-60 -36 -106 -32q-34 2 -52 24q-16 17 -41 17q-24 -1 -48.5 -12t-37.5 -22q-7 -6 -14 -3t-11 12q-5 7 -2 20q2 11 13.5 21t34.5 25q46 29 91 28zM228 420q39 -7 59 -19q25 -16 19 -42
l-4 -13q-39 -114 -54 -187q-15 -67 -9 -92q5 -20 18 -20q25 0 63 27q36 26 63 67q7 -1 5 -7q0 -1 -14 -28q-36 -64 -91 -106q-31 -24 -65 -24q-63 0 -71 80q-35 -39 -67.5 -60t-68.5 -21q-55 0 -81 42q-32 47 -14 131q26 123 107 201q34 32 70.5 50t65.5 18q35 0 65 -43
q5 23 4 34q-1 2 0 6t0 6zM148 350q-40 0 -86 -68q-19 -28 -33 -59t-20 -55q-9 -45 3 -77q11 -33 36 -33q27 0 68 49q31 38 46 70l1 2q9 41 20 70q1 57 -11 83q-8 18 -24 18z" />
    <glyph glyph-name="adieresis" unicode="&#xe4;" 
d="M311 592q23 10 46.5 4.5t28.5 -23.5t-8 -38t-38 -30q-23 -9 -45.5 -3.5t-28.5 23.5q-5 17 8.5 37t36.5 30zM156 591q20 9 41 5t28 -21q5 -12 1.5 -23.5t-13 -22t-23.5 -18.5q-19 -10 -40 -6t-28.5 21t3 36t31.5 29zM228 420q39 -7 59 -19q25 -16 19 -42l-4 -13
q-39 -114 -54 -187q-15 -67 -9 -92q5 -20 18 -20q25 0 63 27q36 26 63 67q6 -1 5 -7q0 -1 -14 -28q-36 -64 -91 -106q-31 -24 -65 -24q-63 0 -71 80q-35 -39 -67.5 -60t-68.5 -21q-55 0 -81 42q-32 47 -14 131q26 123 107 201q34 32 70.5 50t65.5 18q35 0 65 -43q5 23 4 34
q-1 2 0 6t0 6zM148 350q-40 0 -86 -68q-19 -28 -33 -59t-20 -55q-9 -45 3 -77q11 -33 36 -33q27 0 68 49q31 38 46 70l1 2q9 41 20 70q1 57 -11 83q-8 18 -24 18z" />
    <glyph glyph-name="aring" unicode="&#xe5;" 
d="M225 606q30 13 58.5 5.5t35.5 -30.5t-9.5 -48.5t-47 -38.5t-58.5 -5.5t-37 30.5q-5 15 1 32t21.5 32t35.5 23zM234 569q-25 -12 -17 -32q8 -18 49 -2h-5q11 8 11 20t-10 16.5t-28 -2.5zM228 420q39 -7 59 -19q25 -16 19 -42l-4 -13q-39 -114 -54 -187q-15 -67 -9 -92
q5 -20 18 -20q25 0 63 27q36 26 63 67q6 -1 5 -7q0 -1 -14 -28q-36 -64 -91 -106q-31 -24 -65 -24q-63 0 -71 80q-35 -39 -67.5 -60t-68.5 -21q-55 0 -81 42q-32 47 -14 131q26 123 107 201q34 32 70.5 50t65.5 18q35 0 65 -43q5 23 4 34q-1 2 0 6t0 6zM148 350
q-40 0 -86 -68q-41 -59 -53 -114q-9 -45 3 -77q11 -33 36 -33q27 0 67 49q32 38 47 70l1 2q9 41 20 70q1 57 -11 83q-8 18 -24 18z" />
    <glyph glyph-name="ae" unicode="&#xe6;" horiz-adv-x="599" 
d="M395 421q57 0 83.5 -34t14.5 -91q-15 -74 -76 -134q-66 -67 -155 -81q4 -40 69 -40q68 0 142 46q56 33 78 66q6 9 15 1q3 -4 2 -7q-38 -55 -91 -98q-91 -72 -174 -72q-58 0 -91 23.5t-51 77.5q-41 -49 -76.5 -75t-76.5 -26q-62 0 -87 51q-21 44 -7 110q26 122 113 207
q36 35 74.5 55t70.5 20q27 0 48.5 -18.5t33.5 -52.5q73 72 141 72zM404 347q-17 26 -55 -5q-26 -22 -51 -67t-36 -97l-4 -21q-2 -7 -3 -23q63 16 102.5 53.5t51.5 91.5q9 44 -5 68zM158 351q-41 0 -90 -69q-45 -62 -57 -121q-9 -39 2 -71q9 -31 34 -31q30 0 77 65
q43 60 47 83q5 14 7 22q11 51 7 83q-6 39 -27 39z" />
    <glyph glyph-name="ccedilla" unicode="&#xe7;" horiz-adv-x="343" 
d="M271 175q16 18 25 10q3 -3 2 -9q-9 -28 -33 -63.5t-56 -65.5q-49 -46 -100 -65l-14 -11q-19 -16 -32 -25q21 0 36 -5q21 -10 26 -29q6 -23 -12.5 -43.5t-50.5 -30.5q-30 -10 -65 -6q-34 3 -46 9q-10 4 -12 11q-2 4 1 9q7 13 17 11q37 -6 67 -1t40 26q7 14 -26 20
q-16 2 -23 2h-10q-11 0 -12.5 7t5.5 12l32 34q-63 8 -94 59q-36 60 -16 156q23 107 94 174q66 62 136 62q48 0 73.5 -27.5t16.5 -68.5t-51 -79q-38 -34 -58 -34q-14 0 -22.5 10.5t-9.5 20.5q59 41 69 90q7 32 -22 31q-40 0 -83 -58q-42 -57 -55 -116q-13 -62 3 -103
q19 -47 72 -47q43 0 104 48q39 31 84 85z" />
    <glyph glyph-name="egrave" unicode="&#xe8;" horiz-adv-x="348" 
d="M114 639l20 -18q42 -37 64 -67q13 -16 21 -38q4 -10 -18 -26q-23 -14 -29 0l-1 -2q-18 24 -58 57q-19 16 -56 40q-19 10 8 39q29 31 49 15zM145 420q57 0 83.5 -33.5t13.5 -91.5q-14 -69 -75 -132q-64 -67 -153 -83q8 -17 21.5 -26.5t43.5 -9.5q61 0 131 56q59 47 81 95
q4 10 8 11q5 2 6 2q9 0 5 -19q-21 -74 -86 -138q-78 -74 -171 -74q-76 0 -115 45q-46 53 -25 155q23 107 96 179q66 64 136 64zM134 357q-34 0 -70 -56q-38 -55 -53 -125q-3 -13 -3 -20q0 -4 -1.5 -11.5t-1.5 -11.5q63 16 102.5 53.5t51.5 91.5q6 29 0 54q-8 25 -25 25z" />
    <glyph glyph-name="eacute" unicode="&#xe9;" horiz-adv-x="348" 
d="M339 638q27 -23 8 -39q-40 -37 -66 -57q-65 -50 -96 -62q-14 -6 -27 11q-12 16 -4 21q33 22 80 65q41 36 60 60q9 11 21.5 10.5t23.5 -9.5zM145 420q57 0 83.5 -33.5t13.5 -91.5q-14 -69 -75 -132q-64 -67 -153 -83q8 -17 21.5 -26.5t43.5 -9.5q61 0 131 56q59 47 81 95
q4 10 9 11q4 2 5 2q9 0 5 -19q-21 -74 -86 -138q-78 -74 -171 -74q-76 0 -115 45q-46 53 -25 155q23 107 96 179q66 64 136 64zM134 357q-34 0 -70 -56q-38 -55 -53 -125q-3 -13 -3 -20q0 -2 -0.5 -5.5t-1 -6t-1 -5.5t-0.5 -6q63 16 102.5 53.5t51.5 91.5q6 29 0 54
q-8 25 -25 25z" />
    <glyph glyph-name="ecircumflex" unicode="&#xea;" horiz-adv-x="348" 
d="M183 626q28 4 62 -1q14 -3 17 -9q2 -3 31 -45q10 -16 21 -30q9 -14 13 -23q2 -5 -1.5 -9t-9.5 -6t-15 -4q-36 -6 -46 14l-2 -2l-21 28q-19 25 -29 36q-15 -12 -62 -45q-32 -23 -48 -30q-23 -7 -45 -1t-6 19l34 28l66 56q3 3 8.5 8t7.5 6t6 3.5t8.5 4t10.5 2.5zM145 420
q57 0 83.5 -33.5t13.5 -91.5q-14 -69 -75 -132q-64 -67 -153 -83q8 -17 21.5 -26.5t43.5 -9.5q61 0 131 56q59 47 81 95q4 10 9 11q4 2 5 2q9 0 5 -19q-21 -74 -86 -138q-78 -74 -171 -74q-76 0 -115 45q-46 53 -25 155q23 107 96 179q66 64 136 64zM134 357q-34 0 -70 -56
q-38 -55 -53 -125q-3 -13 -3 -20q0 -4 -1.5 -11.5t-1.5 -11.5q63 16 102.5 53.5t51.5 91.5q6 29 0 54q-8 25 -25 25z" />
    <glyph glyph-name="edieresis" unicode="&#xeb;" horiz-adv-x="348" 
d="M267 592q23 10 46 4.5t29 -23.5q5 -18 -8 -38t-38 -30q-23 -9 -45.5 -3.5t-28.5 23.5q-5 17 8.5 37t36.5 30zM112 591q20 9 41 5t28 -21t-3 -34.5t-32 -29.5q-20 -10 -40.5 -6t-28 21t3 36t31.5 29zM145 420q57 0 83.5 -33.5t13.5 -91.5q-14 -69 -75 -132
q-64 -67 -153 -83q8 -17 21.5 -26.5t43.5 -9.5q61 0 131 56q59 47 81 95q4 10 9 11q4 2 5 2q9 0 5 -19q-21 -74 -86 -138q-78 -74 -171 -74q-76 0 -115 45q-46 53 -25 155q23 107 96 179q66 64 136 64zM134 357q-34 0 -70 -56q-38 -55 -53 -125q-3 -13 -3 -20
q0 -4 -1.5 -11.5t-1.5 -11.5q63 16 102.5 53.5t51.5 91.5q6 29 0 54q-8 25 -25 25z" />
    <glyph glyph-name="igrave" unicode="&#xec;" horiz-adv-x="203" 
d="M-19 639l20 -18q42 -37 65 -67q12 -16 20 -38q4 -10 -18 -26q-23 -14 -29 0v-2q-19 24 -59 57q-19 16 -56 40q-19 10 8 39q30 31 49 15zM60 395q29 0 23 -26q-49 -130 -68 -217q-10 -48 -6 -75q4 -38 35 -38q23 0 42 14q29 21 62 70q4 6 8.5 7t7.5 -2t1 -9
q-73 -147 -169 -147q-57 0 -74.5 50t5.5 156q16 78 53 182q3 8 30 23q25 12 50 12z" />
    <glyph glyph-name="iacute" unicode="&#xed;" horiz-adv-x="205" 
d="M208 638q27 -23 8 -39q-41 -37 -67 -57q-65 -50 -96 -62q-13 -6 -26 11q-13 16 -5 21q33 22 81 65q41 36 60 60q9 11 21.5 10.5t23.5 -9.5zM62 395q29 0 24 -26q-50 -130 -68 -217q-11 -48 -6 -75q4 -38 35 -38q22 0 41 14q29 21 62 70q4 6 9 7t7.5 -2t1.5 -9
q-74 -147 -170 -147q-57 0 -74 50t5 156q17 78 54 182q3 8 30 23q24 12 49 12z" />
    <glyph glyph-name="icircumflex" unicode="&#xee;" horiz-adv-x="216" 
d="M63 626q28 4 62 -1q14 -3 17 -9q2 -3 32 -45q10 -16 20 -30t13 -23q2 -5 -1 -9t-9 -6t-16 -4q-35 -6 -46 14l-1 -2q-13 16 -21 28q-20 25 -30 36q-15 -12 -61 -45q-33 -23 -49 -30q-23 -7 -45 -1q-21 6 -6 19l34 28l66 56q3 3 9 8t8 6t6 3.5t8 4t10 2.5zM73 395
q29 0 24 -26q-50 -130 -69 -217q-10 -48 -5 -75q4 -38 34 -38q23 0 42 14q29 21 62 70q4 6 9 7t7.5 -2t0.5 -9q-73 -147 -169 -147q-57 0 -74 50t5 156q17 78 54 182q3 8 30 23q24 12 49 12z" />
    <glyph glyph-name="idieresis" unicode="&#xef;" horiz-adv-x="214" 
d="M144 592q23 10 46.5 4.5t28.5 -23.5q3 -8 0.5 -18.5t-8 -19.5t-15.5 -17t-23 -13q-23 -9 -45.5 -3.5t-28.5 23.5q-5 17 8.5 37t36.5 30zM-10 591q19 9 40 5t28 -21t-3 -34.5t-31 -29.5q-20 -10 -41 -6t-28.5 21t3 36t32.5 29zM71 395q29 0 23 -26q-49 -130 -68 -217
q-10 -48 -6 -75q4 -38 35 -38q23 0 42 14q29 21 62 70q4 6 8.5 7t7.5 -2t1 -9q-73 -147 -169 -147q-57 0 -74.5 50t5.5 156q16 78 53 182q3 8 30 23q25 12 50 12z" />
    <glyph glyph-name="eth" unicode="&#xf0;" horiz-adv-x="476" 
d="M222 737q14 0 20 -7q47 -47 76 -136q69 29 91 44q2 3 11 3t15 -8.5t4 -20.5q-4 -18 -24 -29l-84 -46q16 -103 -12 -234q-4 -11 -5 -23l-5 -26q-3 -9 -7 -26l-6 -27q-13 -61 -13 -81q-5 -59 25 -59q31 0 81 51q39 40 52 65q3 6 10 6t5 -9q-21 -73 -69 -127
q-53 -60 -111 -60h-3q-44 0 -60 31q-11 23 -11 58q-40 -47 -73 -68q-43 -27 -95 -27q-73 0 -103.5 44.5t-13.5 126.5q23 108 113 188q37 33 74.5 51.5t64.5 18.5q19 0 35 -8t24 -16.5t20 -23.5q5 52 5 69q1 18 -5 69q-52 -21 -62 -24q-20 -7 -35 -7q-24 0 -34 10t-6 30
q2 11 6 16q32 10 58 18q36 11 56 18q-18 43 -36.5 69.5t-50.5 45.5q26 31 37 40q24 21 41 21zM152 351q-33 0 -78 -56q-43 -56 -55 -112q-10 -45 -2 -82q11 -51 50 -51t85 59q35 46 63 119q-16 2 -23 4.5t-16 10.5q6 18 7 23q6 28 3 50q-6 35 -34 35z" />
    <glyph glyph-name="ntilde" unicode="&#xf1;" horiz-adv-x="410" 
d="M209 602q23 -2 40 -19q26 -28 65 -24q31 3 52 20q9 6 16 1t11 -16q8 -28 -11 -40q-60 -36 -106 -32q-33 2 -52 24q-16 17 -41 17q-24 -1 -48 -12t-38 -22q-7 -6 -14 -3t-11 12q-5 7 -2 20q2 11 13.5 21t34.5 25q46 29 91 28zM63 409q21 0 23 -7q3 -7 2 -13
q-7 -33 -18 -66q79 84 148 84q96 0 73 -109q-5 -24 -32.5 -101t-31.5 -96q-10 -51 17 -51q19 0 60 50q28 34 62 85q7 9 12 7q6 0 3 -8q-31 -81 -72 -136q-49 -65 -100 -65q-45 0 -61.5 32t-3.5 93q10 46 27.5 92t24.5 80q8 34 0.5 43t-18.5 9q-36 0 -88 -68q-39 -51 -55 -96
q-19 -52 -28 -87q-7 -22 -8 -29q-2 -6 -12 -39q-2 -5 -6 -13q-3 -1 -12 -3q-2 -1 -6 -2t-7 -2q-17 -5 -25 -5q-4 0 -4 1l-12 3q-6 48 19 162q11 55 27 114q19 74 30 108q4 13 28 23q22 10 44 10z" />
    <glyph glyph-name="ograve" unicode="&#xf2;" horiz-adv-x="415" 
d="M139 639l21 -18q42 -37 64 -67q13 -16 21 -38q4 -10 -18 -26q-23 -14 -29 0l-1 -2q-18 24 -59 57q-18 16 -55 40q-19 10 8 39q29 31 48 15zM178 431q23 0 46 -12.5t40 -35.5q38 -55 29 -147q35 21 59 33q25 13 43 23q15 8 18 0q1 -3 -2 -8q-14 -20 -36 -40.5t-46.5 -36.5
t-47.5 -26q-32 -92 -82 -141q-62 -61 -147 -61q-73 0 -110 52q-43 61 -21 166q26 119 120 192q7 8 20 8q6 0 19 -6q48 40 98 40zM159 361q-19 0 -30 -18q-8 -12 -12 -30q-8 -39 13 -66q24 -30 73 -30h7q5 0 9 1q7 67 -14 108q-19 35 -46 35zM36 271q-20 -52 -24 -73
q-17 -76 11 -120q25 -39 70 -39q38 0 71 46q26 37 41 81h-14q-5 -1 -15 -1q-114 0 -140 106z" />
    <glyph glyph-name="oacute" unicode="&#xf3;" horiz-adv-x="415" 
d="M363 638q27 -23 8 -39q-40 -37 -66 -57q-65 -50 -96 -62q-14 -6 -27 11q-12 16 -5 21q34 22 81 65q41 36 60 60q9 11 21.5 10.5t23.5 -9.5zM178 431q23 0 46 -12.5t40 -35.5q38 -55 29 -147q35 21 59 33q25 13 43 23q15 8 18 0q1 -3 -2 -8q-21 -30 -58 -58.5t-72 -44.5
q-32 -92 -82 -141q-62 -61 -147 -61q-73 0 -110 52q-43 61 -21 166q26 119 120 192q7 8 20 8q7 0 19 -6q48 40 98 40zM159 361q-19 0 -30 -18q-8 -12 -12 -30q-8 -39 13 -66q24 -30 73 -30h7q5 0 9 1q7 67 -14 108q-19 35 -46 35zM36 271q-20 -52 -24 -73q-17 -76 11 -120
q25 -39 70 -39q38 0 71 46q26 37 41 81h-14q-5 -1 -15 -1q-113 0 -140 106z" />
    <glyph glyph-name="ocircumflex" unicode="&#xf4;" horiz-adv-x="415" 
d="M209 626q28 4 61 -1q14 -3 18 -9q2 -3 31 -45q10 -16 21 -30q9 -14 13 -23q2 -5 -1.5 -9t-9.5 -6t-15 -4q-36 -6 -46 14l-2 -2l-21 28q-19 25 -29 36q-15 -12 -62 -45q-32 -23 -48 -30q-23 -7 -45 -1t-6 19l34 28l66 56q3 3 8.5 8t7.5 6t6 3.5t8 4t11 2.5zM178 431
q23 0 46 -12.5t40 -35.5q38 -55 29 -147q35 21 59 33q25 13 43 23q15 8 18 0q1 -3 -2 -8q-21 -30 -58 -58.5t-72 -44.5q-32 -92 -82 -141q-62 -61 -147 -61q-73 0 -110 52q-43 61 -21 166q26 119 120 192q7 8 20 8q7 0 19 -6q48 40 98 40zM159 361q-19 0 -30 -18
q-8 -12 -12 -30q-8 -39 13 -66q24 -30 73 -30h7q5 0 9 1q7 67 -14 108q-19 35 -46 35zM36 271q-20 -52 -24 -73q-17 -76 11 -120q25 -39 70 -39q38 0 71 46q26 37 41 81h-14q-5 -1 -15 -1q-113 0 -140 106z" />
    <glyph glyph-name="otilde" unicode="&#xf5;" horiz-adv-x="415" 
d="M188 602q23 -2 40 -19q25 -28 64 -24q32 3 53 20q8 6 15 1t12 -16q8 -28 -11 -40q-60 -36 -106 -32q-34 2 -53 24q-16 17 -40 17q-24 -1 -48.5 -12t-37.5 -22q-7 -6 -14 -3t-11 12q-5 7 -2 20q2 11 13.5 21t34.5 25q46 29 91 28zM178 431q23 0 46 -12.5t40 -35.5
q38 -55 29 -147q35 21 59 33q25 13 43 23q15 8 18 0q1 -3 -2 -8q-21 -30 -58 -58.5t-72 -44.5q-32 -92 -82 -141q-62 -61 -147 -61q-73 0 -110 52q-43 61 -21 166q26 119 120 192q7 8 20 8q7 0 19 -6q48 40 98 40zM159 361q-19 0 -30 -18q-8 -12 -12 -30q-8 -39 13 -66
q24 -30 73 -30h7q5 0 9 1q7 67 -14 108q-19 35 -46 35zM36 271q-20 -52 -24 -73q-17 -76 11 -120q25 -39 70 -39q38 0 71 46q26 37 41 81h-14q-5 -1 -15 -1q-113 0 -140 106z" />
    <glyph glyph-name="odieresis" unicode="&#xf6;" horiz-adv-x="415" 
d="M292 592q23 10 46.5 4.5t28.5 -23.5q6 -18 -7 -38t-38 -30q-23 -9 -45.5 -3.5t-28.5 23.5q-5 17 8.5 37t35.5 30zM138 591q20 9 40.5 5t28.5 -21q5 -12 1.5 -23.5t-13 -22t-23.5 -18.5q-20 -10 -40.5 -6t-28 21t3 36t31.5 29zM178 431q23 0 46 -12.5t40 -35.5
q38 -55 29 -147q35 21 59 33q25 13 43 23q15 8 18 0q1 -3 -2 -8q-21 -30 -58 -58.5t-72 -44.5q-32 -92 -82 -141q-62 -61 -147 -61q-73 0 -110 52q-43 61 -21 166q26 119 120 192q7 8 20 8q7 0 19 -6q48 40 98 40zM159 361q-19 0 -30 -18q-8 -12 -12 -30q-8 -39 13 -66
q24 -30 73 -30h7q5 0 9 1q7 67 -14 108q-19 35 -46 35zM36 271q-20 -52 -24 -73q-17 -76 11 -120q25 -39 70 -39q38 0 71 46q26 37 41 81h-14q-5 -1 -15 -1q-113 0 -140 106z" />
    <glyph glyph-name="divide" unicode="&#xf7;" horiz-adv-x="430" 
d="M190 535q26 0 39.5 -15t8.5 -38q-5 -24 -28 -43.5t-55 -19.5h-1q-27 0 -39.5 15.5t-8.5 38.5q2 8 6 16t10 15t14 12.5t16.5 9.5t18 6.5t19.5 2.5zM356 418q5 -23 0 -44q-5 -27 -23.5 -42t-40.5 -14l-2.5 0.5t-7.5 1t-10 0.5q-13 1 -46 1q-55 0 -154 -6q-87 -7 -116 -7
q-14 0 -22 12.5t-4 32.5q5 26 35 53l6 -3q4 -6 24 -6q7 -1 30 -1q10 0 23 1q30 0 49 1q7 0 125 3q9 0 26 0.5t25 1.5q47 0 61 5q5 2 10.5 5t11.5 5zM136 297q25 0 39 -16t9 -39q-6 -30 -35 -48q-24 -15 -51 -15q-16 0 -28 7t-17.5 19.5t-2.5 27.5q7 29 37 48q25 16 49 16z
" />
    <glyph glyph-name="oslash" unicode="&#xf8;" horiz-adv-x="414" 
d="M287 484q7 0 12 -2.5t9 -7.5t4.5 -13t-1.5 -20q-3 -3 -7 -10q-8 -10 -30 -44q-6 -11 -8 -12q32 -57 24 -138q57 16 80 31q7 4 11 0.5t-3 -12.5q-30 -42 -99 -71q-39 -117 -116 -170q-52 -35 -117 -35h-12q-9 0 -14 1q-25 -42 -46 -65q-10 -11 -24 -11q-18 0 -28 14t-4 38
q1 0 6 8q1 2 11 18q5 7 13 19q6 7 7 10q-59 64 -35 177q13 59 44.5 112t73.5 87q13 10 40 1q45 40 98 40q23 0 44 -11q27 41 35 51q10 15 32 15zM156 359q-20 0 -31 -18q-7 -12 -11 -30q-4 -20 4 -53l30 48l30 47q-12 6 -22 6zM215 291q-11 -14 -21 -30l-9 -18l-16 -25
q18 -3 46 -2q5 43 0 75zM34 269q-16 -36 -24 -72q-10 -47 2 -102q9 15 64 98q-13 11 -21 23.5t-12 23.5t-9 29zM202 166q-26 -2 -32 -2q-8 0 -34 2l-20 -34q-12 -20 -17 -29l-18 -28q-2 -3 -21 -33q5 -2 7 -2q1 0 3 -1t3 -1h7q2 -1 7 -1q67 0 115 129z" />
    <glyph glyph-name="ugrave" unicode="&#xf9;" horiz-adv-x="440" 
d="M147 639l20 -18q42 -37 65 -67q13 -16 21 -38q3 -10 -19 -26q-23 -14 -29 0v-2q-19 24 -59 57q-19 16 -56 40q-19 10 9 39q29 31 48 15zM62 414q32 0 28 -24q-48 -102 -68 -197q-12 -57 -7 -92q8 -46 47 -46q29 0 59 32.5t57 90.5q4 13 13 45t15 48q12 37 19 74
q4 17 7 43q24 23 65 23q42 0 41 -27q-27 -60 -48 -122q-28 -79 -37 -123q-8 -35 -6 -57q1 -30 23 -30q16 0 53 44q32 36 56 85q3 4 7 6q1 1 3 1q5 0 8 -4t2 -9l-2 -4q-22 -59 -60 -111q-56 -77 -109 -77q-35 0 -49.5 21t-17.5 59q-21 -25 -37 -38.5t-39.5 -23.5t-50.5 -10
q-146 0 -106 190q19 85 67 198q6 15 26.5 25t40.5 10z" />
    <glyph glyph-name="uacute" unicode="&#xfa;" horiz-adv-x="440" 
d="M372 638q26 -23 7 -39q-40 -37 -66 -57q-65 -50 -96 -62q-13 -6 -27 11q-12 16 -4 21q33 22 81 65q40 36 59 60q10 11 22.5 10.5t23.5 -9.5zM62 414q32 0 28 -24q-48 -102 -68 -197q-12 -57 -7 -92q8 -46 47 -46q29 0 59 32.5t57 90.5q4 13 13.5 45t14.5 48q12 37 19 74
q4 17 7 43q24 23 65 23q42 0 41 -27q-27 -60 -48 -122q-28 -79 -37 -123q-8 -35 -6 -57q1 -30 23 -30q16 0 53 44q32 36 56 85q3 4 7 6q1 1 3 1q5 0 8 -4t2 -9l-2 -4q-22 -59 -60 -111q-56 -77 -109 -77q-35 0 -49.5 21t-17.5 59q-21 -25 -37 -38.5t-39.5 -23.5t-50.5 -10
q-146 0 -106 190q19 85 67 198q6 15 26.5 25t40.5 10z" />
    <glyph glyph-name="ucircumflex" unicode="&#xfb;" horiz-adv-x="440" 
d="M217 626q28 4 62 -1q14 -3 17 -9q2 -3 31 -45q10 -16 21 -30q10 -14 13 -23q2 -5 -1 -9t-9.5 -6t-15.5 -4q-36 -6 -46 14l-1 -2q-13 16 -21 28q-20 25 -30 36q-15 -12 -61 -45q-33 -23 -49 -30q-23 -7 -45 -1t-6 19l34 28l66 56q3 3 9 8t7.5 6t6 3.5t8.5 4t10 2.5z
M62 414q32 0 28 -24q-48 -102 -68 -197q-12 -57 -7 -92q8 -46 47 -46q29 0 59 32.5t57 90.5q4 13 13.5 45t14.5 48q12 37 19 74q4 17 7 43q24 23 65 23q42 0 41 -27q-27 -60 -48 -122q-28 -79 -37 -123q-8 -35 -6 -57q1 -30 23 -30q16 0 53 44q32 36 56 85q3 4 7 6q1 1 3 1
q5 0 8 -4t2 -9l-2 -4q-22 -59 -60 -111q-56 -77 -109 -77q-35 0 -49.5 21t-17.5 59q-21 -25 -37 -38.5t-39.5 -23.5t-50.5 -10q-146 0 -106 190q19 85 67 198q6 15 26.5 25t40.5 10z" />
    <glyph glyph-name="udieresis" unicode="&#xfc;" horiz-adv-x="440" 
d="M300 592q23 10 46.5 4.5t28.5 -23.5t-8 -38t-38 -30q-23 -9 -45.5 -3.5t-27.5 23.5q-6 17 7.5 37t36.5 30zM146 591q19 9 40 5t28.5 -21t-3 -34.5t-31.5 -29.5q-20 -10 -41 -6t-28.5 21t3 36t32.5 29zM62 414q32 0 28 -24q-48 -102 -68 -197q-12 -57 -7 -92q8 -46 47 -46
q29 0 59 32.5t57 90.5q4 13 13.5 45t14.5 48q12 37 19 74q4 17 7 43q24 23 65 23q42 0 41 -27q-27 -60 -48 -122q-28 -79 -37 -123q-8 -35 -6 -57q1 -30 23 -30q16 0 53 44q32 36 56 85q3 4 7 6q1 1 3 1q5 0 8 -4t2 -9l-2 -4q-22 -59 -60 -111q-56 -77 -109 -77
q-35 0 -49.5 21t-17.5 59q-21 -25 -37 -38.5t-39.5 -23.5t-50.5 -10q-146 0 -106 190q19 85 67 198q6 15 26.5 25t40.5 10z" />
    <glyph glyph-name="yacute" unicode="&#xfd;" horiz-adv-x="438" 
d="M372 638q26 -23 7 -39q-40 -37 -66 -57q-65 -50 -96 -62q-13 -6 -27 11q-12 16 -4 21q33 22 81 65q40 36 59 60q10 11 22.5 10.5t23.5 -9.5zM309 418q13 0 18.5 -4.5t3.5 -14.5l-5 -21q-3 -11 -10 -42l-27 -114l-30 -126q30 12 77 43q38 25 65 51l6 5q2 1 5 2
q1 -8 -10 -22q-87 -95 -159 -147l-18 -70q-20 -86 -43 -149q-31 -83 -65 -130q-44 -59 -103 -80q-31 -12 -70 -12q-57 0 -89 35q-36 37 -23 100q17 83 109 161q40 33 98 70l117 74l11 55q-48 -49 -72 -65q-43 -28 -82 -28q-125 0 -87 179q17 82 69 218q32 26 68 26
q30 0 30 -22q-15 -31 -41 -102q-24 -67 -34 -114q-26 -121 31 -121q42 0 85 50q27 31 56 87l4 16q4 20 7 31l7 30l3 16l9 43q7 30 11 46q6 19 31 33q24 13 47 13zM140 -44l-38 -26q-23 -16 -34 -24q-41 -31 -65 -54q-71 -64 -85 -131q-8 -36 5 -55.5t46 -19.5q41 0 75 39
q27 32 48 90q18 48 31 102l9 45z" />
    <glyph glyph-name="thorn" unicode="&#xfe;" horiz-adv-x="458" 
d="M135 729q22 0 27 -12l-32 -104q-34 -103 -62 -207q-10 -38 -28 -114q56 54 94 77q54 33 104 33q65 0 88 -47q21 -41 8 -101q-13 -59 -52 -123q65 22 148 56q6 -4 2 -12t-13 -15q-41 -29 -69 -43q-62 -32 -111 -46q-75 -85 -169 -85q-32 0 -46.5 11t-10.5 30q8 37 72 59
q41 14 98 21q48 69 63 136q9 43 -2 66.5t-40 23.5q-47 0 -105 -50q-68 -59 -89 -151q-3 -9 -11 -47q-8 -36 -34 -178q-21 -113 -36 -211q-9 -51 -12 -88q-43 -22 -70 -22q-16 0 -30 14q9 65 36 211q20 110 42 211l8 38q12 56 21 95l30 131q29 132 71 289q15 57 33 117
q4 13 31 26q21 11 46 11zM149 61q-37 -7 -59 -15q-23 -10 -26 -16h6q11 -2 41 11q15 6 38 20z" />
    <glyph glyph-name="ydieresis" unicode="&#xff;" horiz-adv-x="438" 
d="M300 592q23 10 46.5 4.5t28.5 -23.5t-8 -38t-38 -30q-23 -9 -45.5 -3.5t-27.5 23.5q-6 17 7.5 37t36.5 30zM146 591q19 9 40 5t28.5 -21t-3 -34.5t-31.5 -29.5q-20 -10 -41 -6t-28.5 21t3 36t32.5 29zM309 418q13 0 18.5 -4.5t3.5 -14.5l-5 -21q-3 -11 -10 -42l-27 -114
l-30 -126q30 12 77 43q38 25 65 51l6 5q2 1 5 2q1 -8 -10 -22q-87 -95 -159 -147l-18 -70q-20 -86 -43 -149q-31 -83 -65 -130q-44 -59 -103 -80q-31 -12 -70 -12q-57 0 -89 35q-36 37 -23 100q17 83 109 161q40 33 98 70l117 74l11 55q-48 -49 -72 -65q-43 -28 -82 -28
q-125 0 -87 179q17 82 69 218q32 26 68 26q30 0 30 -22q-15 -31 -41 -102q-24 -67 -34 -114q-26 -121 31 -121q42 0 85 50q27 31 56 87l4 16q4 20 7 31l7 30l3 16l9 43q7 30 11 46q6 19 31 33q24 13 47 13zM140 -44l-38 -26q-23 -16 -34 -24q-41 -31 -65 -54
q-71 -64 -85 -131q-8 -36 5 -55.5t46 -19.5q41 0 75 39q27 32 48 90q18 48 31 102l9 45z" />
    <glyph glyph-name="dotlessi" unicode="&#x131;" horiz-adv-x="205" 
d="M62 395q29 0 24 -26q-50 -130 -68 -217q-11 -48 -6 -75q4 -38 34 -38q23 0 42 14q29 21 62 70q4 6 9 7t7.5 -2t1.5 -9q-74 -147 -170 -147q-57 0 -74 50t5 156q17 78 54 182q3 8 30 23q24 12 49 12z" />
    <glyph glyph-name="Lslash" unicode="&#x141;" horiz-adv-x="544" 
d="M390 739q22 0 40.5 -7t32.5 -20.5t23 -33t13 -44.5q6 2 23 8q2 1 6.5 2.5t6.5 2.5q1 1 3 1t3 1t6 1q18 0 28 -18q9 -15 6 -32q-1 -3 -2.5 -5.5t-2.5 -4.5t-3.5 -3.5t-3.5 -2t-3.5 -2l-2.5 -1.5q-18 -5 -67 -25q-17 -69 -76 -133.5t-154 -115.5q-11 -53 -28 -109
q-28 -87 -56 -131q58 -66 120 -104q83 -50 166 -50h5q83 0 122 10q51 12 117 51q4 -9 4 -10q5 -16 7 -26q0 -10 -2 -16q-4 -20 -30 -38q-22 -15 -69 -30q-65 -22 -134 -22q-113 0 -203 51q-68 37 -156 119q-80 -77 -188 -77q-74 0 -125 41q-55 44 -42 103q11 53 60.5 83.5
t126.5 30.5q49 0 83.5 -13t72.5 -43q16 34 45 131q-55 -24 -85 -24q-25 0 -39 18q-6 7 -9 17q-1 3 -3 8t-3 8q2 0 6.5 1t8.5 2t8 1q24 3 77 17q30 9 55 19l24 111l-36 -18q-4 -2 -7.5 -4l-7 -4t-5.5 -3q-21 6 -29 22.5t-5 30.5q2 10 12 18q11 5 19 9q2 1 5.5 2.5t6 2.5
t6.5 3t7 3q46 20 53 23q25 95 37 121q23 48 62 74q34 23 70 23zM364 673q-3 -1 -7 -6q-5 -4 -11 -17q-15 -33 -28 -91q20 10 42 18l39 15q-3 37 -15 58q-12 22 -20 23zM385 513q-16 -7 -45 -17q-8 -3 -21.5 -8.5t-18.5 -7.5q-7 -42 -9 -51q-6 -29 -9 -46q74 57 103 130z
M-69 109q-33 0 -61 -11q-36 -14 -42 -41q-6 -28 30 -46q29 -17 78 -17q76 0 133 59q-24 19 -39 28.5t-42 18.5t-57 9z" />
    <glyph glyph-name="lslash" unicode="&#x142;" horiz-adv-x="275" 
d="M206 757q56 0 69 -54q7 -36 -4 -87q-10 -47 -24 -77q7 0 8 1h3q17 0 28 -21q8 -18 4 -34q-2 -13 -13 -16q-16 -6 -35 -12q-6 -2 -13 -4.5t-13.5 -5t-11.5 -4.5q-26 -50 -63 -101q-47 -65 -96 -101q-11 -84 -3 -140q9 -67 46 -67q35 0 83 53q37 41 68 91q2 1 4 3l1 2l2 2
q3 -4 2 -10q-24 -66 -69 -127q-63 -84 -121 -84q-61 0 -86 73q-21 63 -16 157q4 84 18 155q-17 -8 -30 -15q-20 10 -27.5 27.5t-4.5 29.5q2 13 11 16l15 7q1 0 40 18q4 2 9.5 4t7.5 3q22 70 42 118q34 85 72 136q47 64 97 64zM202 689q-46 -46 -104 -209q4 1 8 2.5l8 3
t6 2.5q11 4 31 12q2 1 17 7q31 73 39 113q6 23 6 40.5t-11 28.5zM121 413q-9 -4 -25 -10q-11 -4 -22 -9l-3 -15q-2 -5 -4 -15l-4 -18l-6 -27l18 23q5 6 28 42q9 15 18 29z" />
    <glyph glyph-name="OE" unicode="&#x152;" horiz-adv-x="1654" 
d="M1293 749q129 0 229 -54q45 -25 68 -55.5t16 -59.5q-5 -26 -29 -47q-28 -23 -55 -23q-4 0 -7.5 0.5t-6.5 1t-6 2t-5.5 2.5t-5.5 3t-4.5 3.5t-4.5 4t-4 4t-4.5 5l-4.5 4.5l-4 5q-3 2 -4 5q6 -2 13 -2q24 0 27 16q2 10 -6.5 21.5t-25.5 21.5t-40 19q-79 29 -170 29
q-136 0 -266 -50q-62 -23 -101 -51.5t-45 -56.5q-8 -36 33 -64q33 -22 82 -35q78 29 158 46.5t140 17.5h20q23 0 48 -8q27 -9 41 -28q6 -10 4 -19q-4 -15 -22 -31t-47 -28q-69 -29 -164 -29q-89 0 -163 14q-67 -32 -104 -62q-64 -51 -75 -96q-2 -1 0 -3l-1 -2
q-12 -57 64 -86q61 -24 160 -24q131 0 259 36q139 38 256 116q9 -17 9 -19q3 -14 0 -29q-2 -9 -5.5 -18t-9.5 -19t-13.5 -19t-18 -17t-22.5 -13q-220 -90 -449 -90q-167 0 -253 52q-87 50 -68 139l4 18q-37 -49 -80 -87q-142 -124 -354 -124q-87 0 -157.5 26.5t-114.5 74.5
q-46 48 -63.5 112.5t-1.5 138.5q23 108 115 204q86 91 203 145q117 55 220 55q32 0 63 -6q35 -9 42 -29q57 -6 108 -42q56 -40 83 -102q110 97 245 143q127 43 275 43zM348 634q-114 -42 -194 -114q-85 -77 -105 -171q-10 -41 -3 -94.5t32 -95.5q62 -105 213 -105
q154 0 267 92q50 41 83.5 92.5t44.5 105.5q6 28 5 78q-118 -60 -209 -60q-101 0 -154 59q-47 52 -32 123q9 46 52 90zM506 631q-54 0 -91 -31q-36 -28 -45 -71q-10 -44 25 -68.5t103 -24.5q80 0 180 61q-12 31 -30 56t-40 42t-48 26.5t-54 9.5zM1212 410q-29 0 -72 -11
q-6 -1 -33 -10l-25 -8q22 -7 57 -7q74 0 129 21q-22 15 -56 15zM789 405q0 -21 -4 -37q-10 -49 -38 -106q59 58 129 97q-52 17 -87 46z" />
    <glyph glyph-name="oe" unicode="&#x153;" horiz-adv-x="642" 
d="M182 432q43 0 73 -29q20 -21 34 -62q38 39 65 56q41 25 86 25q56 0 83.5 -27.5t17.5 -74.5q-13 -63 -78 -116q-71 -60 -163 -73q2 -47 19.5 -67.5t55.5 -20.5q71 0 138 68q31 31 51 63l3 4v1q5 11 18 11q8 0 13.5 -4t3.5 -12q-2 -9 -21 -39q-52 -79 -136 -128
q-45 -28 -99 -28q-50 0 -82 19t-52 63q-33 -36 -67 -55q-42 -24 -93 -24q-43 0 -73 18t-46 49q-30 58 -12 143q12 59 46 112.5t81 89.5q15 12 39 1q45 37 95 37zM162 363q-16 0 -27 -14.5t-15 -32.5q-7 -32 13 -69q24 -42 76 -65q14 59 14 87q0 45 -24 74q-16 20 -37 20z
M429 360q-28 0 -64 -49q-38 -52 -58 -127q62 18 99.5 50t46.5 74q5 20 -1 36t-23 16zM40 275q-19 -44 -27 -84q-13 -61 5 -103q20 -47 71 -47t100 90q-42 11 -70.5 29t-47.5 46t-31 69z" />
    <glyph glyph-name="Scaron" unicode="&#x160;" horiz-adv-x="898" 
d="M703 971q37 0 35 -11q-1 -5 -6 -9l-33 -28l-36 -30l-32 -26l-18 -16q-12 -11 -53 -11q-40 0 -48 11q-3 3 -32 45q-22 32 -33 54q-4 8 3.5 12t22.5 7q14 2 26.5 0t16.5 -9l1.5 -1.5t3 -3.5t3.5 -4l13 -17q7 -10 17 -21l16 -21q29 24 62 47q29 20 49 29q9 3 22 3zM495 734
q132 0 237 -36q121 -42 107 -108q-8 -39 -53.5 -65t-107.5 -26q-69 0 -117 33q-53 35 -40 96l2 10q40 -33 79 -51.5t88 -18.5q52 7 56 25q-1 4 -13 18q-32 29 -117 47q-48 9 -113 9q-141 0 -240 -30q-127 -38 -153 -108q-2 -22 25.5 -40.5t78.5 -34.5q41 -13 105 -28
q15 -3 36.5 -8t40.5 -9.5t35 -8.5q75 -17 122 -31q72 -21 116 -42q57 -29 84 -64t17 -83q-20 -92 -126 -145q-108 -54 -275 -54q-151 0 -278 42q-148 49 -213 140q6 25 27.5 37t49.5 12q26 0 36 -14q56 -71 181 -108q105 -31 227 -31q89 0 164 23q92 28 102 83q8 39 -46 74
q-50 30 -129 53q-63 18 -141 35q-221 50 -289 87q-42 22 -56 51t-5 72q20 85 190 146q149 51 306 51z" />
    <glyph glyph-name="scaron" unicode="&#x161;" horiz-adv-x="358" 
d="M294 627q37 0 36 -11q-2 -5 -7 -9l-33 -28l-36 -30l-32 -26l-18 -16q-12 -11 -53 -11q-40 0 -48 11q-3 3 -32 45q-22 32 -33 54q-2 5 1 9t9.5 6t15.5 4q14 2 26.5 0t16.5 -9l1.5 -1.5t3 -3.5t3.5 -4l13 -17q7 -10 17 -21l16 -21q29 24 62 47q30 20 49 29q9 3 22 3z
M165 444q-10 -25 -15 -51q-10 -45 0 -76q9 -26 28 -54l8 -10l6 -12l7 -12q4 -8 6 -13q13 -32 16 -66q66 6 103 21q8 -3 5 -12q-4 -10 -21 -21q-37 -23 -92 -34q-19 -59 -66 -96q-50 -38 -106 -38q-72 0 -116 63q-17 -20 -27 -30.5t-24 -21.5q-21 5 -29 15t-3 28q18 19 62 80
q-4 29 3 61q6 27 32 27q3 0 20 -2q10 17 17.5 31l15 28t13.5 25.5t11 21.5q14 30 30 60q0 12 1 17l3 14q4 18 29 35q34 23 83 22zM75 268q-8 -15 -15 -27q-3 -5 -12 -23q-13 -25 -26 -46q41 -11 63 -14q7 -1 23 -3.5t24 -4.5q-7 26 -15 42q-9 18 -15 28q-16 26 -27 48z
M-14 116l-4 -5q1 -37 14 -60q14 -29 44 -29q21 0 43 16q28 19 46 60q-71 3 -143 18z" />
    <glyph glyph-name="Ydieresis" unicode="&#x178;" horiz-adv-x="806" 
d="M541 922q23 10 46.5 4.5t28.5 -23.5t-8 -38t-38 -30q-23 -9 -45.5 -3.5t-28.5 23.5q-2 9 0.5 18.5t8.5 18.5t15.5 17t20.5 13zM387 921q19 9 40 5t28 -21t-3 -34.5t-31 -29.5q-20 -10 -41 -6t-28 21q-4 9 -3 18t6 18t13 16.5t19 12.5zM730 737q25 0 31 -20
q-30 -87 -51 -166q-8 -27 -21 -79l-44 -172q-24 -89 -51 -162q-17 -43 -36 -82q95 -2 146 -16q12 -11 8 -30q-6 -29 -42 -58q-33 18 -59 23q-29 5 -94 11q-97 -152 -237 -230q-135 -75 -277 -75q-85 0 -128 31q-37 26 -29 64q15 71 124 133q90 51 239 94q129 36 249 49
q18 34 37 74q-114 -89 -254 -89q-183 0 -246 130q-53 111 -13 301q25 117 76 245q40 23 79 23q18 0 41 -8q-21 -62 -49 -133q-28 -72 -46 -158q-30 -140 4 -220q43 -109 193 -109q188 0 277 246q22 96 45 182q30 114 50 175q49 26 78 26zM415 -15q-165 -18 -312 -87
q-63 -29 -102 -59.5t-44 -53.5q-4 -17 23 -28q25 -10 51 -10q85 0 188 60q114 67 196 178z" />
    <glyph glyph-name="Zcaron" unicode="&#x17d;" horiz-adv-x="709" 
d="M536 957q36 0 35 -11q-2 -5 -7 -9l-33 -28l-36 -30l-32 -26q-8 -8 -18 -16q-12 -11 -52 -11t-49 11q-2 3 -31 45q-23 32 -34 54q-1 4 0 7t5 5.5t9 4t12 2.5q9 1 18 1t16 -3t9 -7l1.5 -1.5l3.5 -3.5t3 -4l14 -17q6 -10 16 -21l17 -21q28 24 62 47q29 20 48 29q10 3 23 3z
M-11 746q43 -23 123 -32q56 -6 134 -6q62 0 205 13q133 12 181 12q39 0 60 -5q4 -1 15 -4.5t16 -5.5v-4v-4q0 -3 -1 -8q-5 -27 -39 -55q-8 -8 -21 -16l-66 -57l-117 -101q-162 -139 -281 -231q-107 -81 -210 -177q125 27 213 27q83 0 179 -24q124 -31 215 -46l-13 -20
q-16 -25 -33 -40q-25 -24 -43 -24h-2q-12 2 -40 12q-5 1 -10.5 3t-12 4t-10.5 4q-37 12 -39 13q-114 32 -192 32q-139 0 -279 -41q-9 -2 -14 -2q-29 0 -47 29q-15 26 -10 49q1 6 4 12q26 33 97 92l142 114l109 81q204 149 371 321h-10q-59 0 -224.5 -24t-236.5 -24
q-58 0 -97 14q-41 15 -28 79q5 22 12 40z" />
    <glyph glyph-name="zcaron" unicode="&#x17e;" horiz-adv-x="384" 
d="M353 627q37 0 35 -11q-2 -5 -6 -9l-33 -28l-37 -30l-31 -26q-9 -8 -19 -16q-12 -11 -52 -11t-49 11q-2 3 -31 45q-22 32 -34 54q-2 5 1.5 9t9.5 6t15 4q14 2 27 0t17 -9l1 -1.5t3 -3.5l4 -4l13 -17q7 -10 17 -21l16 -21q29 24 62 47q29 20 48 29q10 3 23 3zM196 447
q51 0 84 -25q35 -29 25 -75q-9 -42 -58 -93q-45 -44 -99 -85q19 -4 32 -9.5t23 -16.5t18 -29q56 33 90 45q24 9 47 16l-1 -5q-1 -3 -3 -5q-3 -5 -8 -9q-7 -7 -38 -33l-22 -18q-20 -17 -57 -42q0 -41 -6 -72q-14 -62 -47 -131.5t-79 -127.5q-109 -137 -224 -137
q-69 0 -100.5 31t-20.5 85q19 87 154 197q96 78 239 162q-3 25 -9 33t-21 8q-23 0 -64 -19q-40 -19 -62 -32q-31 17 -38 27q-9 12 -5 36q104 46 196 123q88 75 97 120q3 12 -6.5 18.5t-28.5 6.5q-16 0 -54 -8q-23 -6 -50 -17q-8 -3 -9.5 -9.5t6.5 -9.5q-6 -29 -46 -53
q-39 -24 -69 -24q-21 0 -33.5 13t-8.5 32q4 20 30 44t64 44q84 44 162 44zM143 4q-126 -87 -189 -144q-110 -98 -125 -170q-10 -44 38 -44q40 0 84.5 29t83.5 78q85 107 108 251z" />
    <glyph glyph-name="florin" unicode="&#x192;" horiz-adv-x="415" 
d="M293 622q51 0 71 -50q18 -44 6 -108q-2 -12 -13.5 -20.5t-23.5 -8.5q-22 0 -23 25q-1 52 -11 73q-4 10 -7 12q-6 6 -18 -5q-8 -8 -18 -27q-32 -60 -63 -155q9 1 25 1h20q28 0 40 -8q10 -8 7 -21q-2 -7 -13 -23l-19 -23q-18 -2 -24 -2q-14 0 -23 1q-6 0 -40 2l-54 -147
q-25 -72 -52.5 -124.5t-57.5 -81.5q-19 -19 -43 -25.5t-43.5 -3t-32.5 12.5q-36 24 -38 76q-2 22 3 48q6 29 33 29q12 0 19.5 -6.5t7.5 -18.5q-1 -21 7.5 -43t23.5 -25q23 14 54 91l80 214q-7 -1 -24 -4q-16 0 -24.5 11t-4.5 29t17 34q6 1 20 3q3 0 8.5 0.5t16 1t18.5 0.5
q44 125 72 173q53 93 121 93z" />
    <glyph glyph-name="circumflex" unicode="&#x2c6;" horiz-adv-x="322" 
d="M157 791q28 4 62 -1q14 -3 17 -9q2 -3 31 -45q10 -17 21 -30q10 -14 13 -23q3 -8 -4 -12t-22 -7q-35 -6 -46 14l-1 -2q-13 16 -21 28q-20 25 -30 36q-15 -12 -61 -45q-33 -23 -49 -30q-23 -7 -45 -1q-21 6 -6 19l34 28l66 56q3 3 7.5 6.5t6.5 5.5t5.5 4t6 3.5t6.5 2.5
t9 2z" />
    <glyph glyph-name="caron" unicode="&#x2c7;" horiz-adv-x="322" 
d="M298 792q37 0 36 -11q-2 -5 -7 -9l-33 -28l-36 -30l-32 -26q-8 -8 -18 -16q-12 -11 -52 -11t-49 11q-2 3 -31 45q-23 32 -34 54q-2 5 1.5 9t9.5 6t15 4q14 2 26.5 0t16.5 -9l1.5 -1.5l3.5 -3.5t3 -4l14 -17q6 -11 16 -21l17 -21q28 24 62 47q29 20 48 29q10 3 22 3z" />
    <glyph glyph-name="breve" unicode="&#x2d8;" horiz-adv-x="276" 
d="M70 780q9 0 12 -7q22 -54 67 -46q34 5 90 51q14 12 28 -11q11 -25 -5 -38q-93 -80 -166 -58q-12 4 -22 10t-18 14.5t-14 18t-9.5 20t-5.5 21.5q-2 12 25 22q8 3 18 3z" />
    <glyph glyph-name="dotaccent" unicode="&#x2d9;" horiz-adv-x="136" 
d="M55 756q20 9 40 5t28 -21q5 -12 1.5 -23.5t-13 -22t-23.5 -18.5q-20 -10 -40 -6t-28 21q-7 17 3 36t32 29z" />
    <glyph glyph-name="ring" unicode="&#x2da;" horiz-adv-x="181" 
d="M75 771q31 13 59 5.5t36 -30.5q7 -23 -9.5 -48.5t-47 -38.5t-58.5 -5.5t-37 30.5q-8 23 9.5 48.5t47.5 38.5zM84 734q-24 -12 -16 -32q8 -18 48 -2h-5q11 8 11.5 20t-9.5 16.5t-29 -2.5z" />
    <glyph glyph-name="ogonek" unicode="&#x2db;" horiz-adv-x="182" 
d="M11 22q5 -3 4 -5q0 -8 -13 -15q-45 -24 -66 -41q-24 -20 -20 -35q2 -15 27 -13q16 1 36 12q16 10 19 -9q1 -7 -1 -16q-1 -9 -8 -14q-27 -22 -72 -27q-24 -1 -43 9.5t-23 32.5q-8 42 35 76q27 22 67 35q2 0 9 2.5t12 3.5q1 0 5 1t5 2q3 1 7 1q16 2 20 0z" />
    <glyph glyph-name="tilde" unicode="&#x2dc;" horiz-adv-x="351" 
d="M152 767q24 -2 40 -19q26 -28 65 -24q32 3 52 20q9 6 16 1t11 -16q8 -28 -10 -40q-60 -36 -106 -32q-34 2 -53 24q-16 17 -40 17q-24 -1 -48.5 -12t-38.5 -22q-6 -6 -13.5 -3t-11.5 12q-4 7 -1 20q2 11 13 21t34 25q46 29 91 28z" />
    <glyph glyph-name="hungarumlaut" unicode="&#x2dd;" horiz-adv-x="366" 
d="M238 803q12 -8 16 -18t-6 -21l-1 -1q-12 -10 -24 -21q-46 -39 -91 -71q-28 -19 -47 -26q-14 -5 -30 11q-5 6 -6 12t4 9q30 19 79 66q47 43 60 59q10 11 22.5 10.5t23.5 -9.5zM385 803q6 -5 9.5 -9t6.5 -9t1.5 -10.5t-7.5 -10.5q-40 -37 -66 -57q-64 -50 -97 -62
q-14 -6 -28 11q-12 15 -4 21q36 23 80 65q41 38 59 60q10 11 23 10.5t23 -9.5z" />
    <glyph glyph-name="mu" unicode="&#x3bc;" horiz-adv-x="472" 
d="M325 419q23 0 29 -9q5 -11 4 -14q-43 -111 -61 -198q-18 -84 -7 -124q9 -33 29 -33q24 0 57 27q17 14 51 51l6 5h2q1 0 1 -2l-0.5 -1.5t-1.5 -3.5t-2 -3q-36 -54 -72 -87q-54 -51 -100 -51q-44 0 -57 33q-10 21 -8 66q-30 -40 -56 -61q-41 -31 -88 -31q-36 0 -67 16
q-4 -17 -10 -46l-10 -44l-10 -47q-3 -15 -8 -47q-2 0 -4.5 -0.5t-4.5 -1.5t-4.5 -1.5t-4.5 -0.5q-12 -3 -23 -3q-16 0 -26 4q-2 0 -4.5 2t-4 2t-4.5 1t-5 2q12 36 31 128l30 125q16 67 35 138q9 33 25 79l15 40q0 1 2 8t3 8.5t3 7t3 7t3.5 6t5 7t6 5.5t7.5 6t8 5
q23 11 42 11q33 0 22 -27q-10 -24 -26 -72q-19 -56 -29 -104q-13 -61 -9 -98q5 -50 44 -50q31 0 62 35t57 96l11 37q2 7 5 20t5 19q2 5 3.5 12t3.5 14t3 12q4 12 8 33q9 40 9 65q27 27 76 27z" />
    <glyph glyph-name="endash" unicode="&#x2013;" horiz-adv-x="552" 
d="M438 364q0 -17 -5 -41q-14 -68 -60 -68h-9q-20 4 -58 4q-104 0 -217 -7q-12 -1 -29 -2t-29.5 -2t-21.5 -1l-33 -2q-13 0 -20.5 12.5t-3.5 32.5q6 30 37 58l1 -1q1 -1 2 -1l1 -1q2 -3 7 -5q7 -4 42 -4q9 0 25 1q36 0 60 1q10 0 158 3q11 0 32 0.5t30 1.5q17 0 51 3
q10 2 14 3l12 6q5 5 14 9z" />
    <glyph glyph-name="emdash" unicode="&#x2014;" horiz-adv-x="618" 
d="M502 365q0 -30 -3 -45q-14 -64 -60 -64h-9q-16 4 -57 4q-39 0 -131 -2q-98 -4 -129 -5q-47 -3 -138 -7q-9 0 -15 5.5t-8.5 15.5t0.5 24q6 32 37 58q1 -1 3 -2.5t3 -2.5q1 -3 6 -5t14 -2q10 -1 29 0q24 0 70.5 0.5t67.5 1.5q18 0 52 0.5t49 1.5q51 0 71 1h46q12 1 27 1h13
q3 1 8 1q22 3 32 7t22 14z" />
    <glyph glyph-name="quoteleft" unicode="&#x2018;" horiz-adv-x="237" 
d="M103 721q14 0 16 -11q7 -23 9 -34q14 -67 37 -128q13 -40 31 -69q-17 -28 -46 -42q-30 -15 -48 -3q-2 4 -24 72q-24 71 -33 107q-9 30 -12 41q-4 18 -4 19q4 17 29 32q25 16 45 16z" />
    <glyph glyph-name="quoteright" unicode="&#x2019;" horiz-adv-x="215" 
d="M192 712q25 0 40 -9t14 -24q-12 -22 -80 -114q-45 -60 -51 -69q-34 -44 -37 -48q-9 -14 -38 -14t-44 13q-3 3 -5.5 5t-4 4t-1.5 4.5t-0.5 4t1 4t2.5 4.5t4 5.5t5 5.5t6.5 7t7.5 8q57 65 100 127q28 40 50 81q18 5 31 5z" />
    <glyph glyph-name="quotesinglbase" unicode="&#x201a;" horiz-adv-x="246" 
d="M28 118q24 0 39.5 -9t13.5 -23q-16 -28 -77 -110l-91 -120q-13 -15 -38 -15q-35 0 -48 12q-4 3 -6 5t-3 4.5t-1 4.5t1.5 4.5t2.5 5t4.5 6t6 6.5t7 8t8.5 9q60 71 100 128q25 36 49 80q12 4 32 4z" />
    <glyph glyph-name="quotedblleft" unicode="&#x201c;" horiz-adv-x="372" 
d="M245 763q3 0 6 -0.5t5 -1t3.5 -2.5t2 -4l1.5 -6t2 -6.5t2 -9t2 -11.5q13 -59 38 -131q13 -37 32 -71q-9 -17 -32.5 -32.5t-43.5 -15.5q-12 0 -17 5q-3 5 -9 26q-2 4 -4 10t-4 11t-4 11.5t-4 12.5q-19 56 -33 107q-9 30 -11 41q-5 18 -4 20q3 17 29 32q25 15 43 15z
M102 721q13 0 17 -10q3 -11 8 -34q14 -65 38 -129q12 -38 30 -69q-10 -18 -33 -33.5t-43 -15.5q-10 0 -17 5q-4 8 -25 72q-1 6 -3.5 13t-4.5 13l-4.5 13.5l-4.5 13.5q-19 57 -29 93q-4 18 -3 20q3 16 29 32q25 16 45 16z" />
    <glyph glyph-name="quotedblright" unicode="&#x201d;" horiz-adv-x="346" 
d="M199 755q24 0 40 -9t15 -24q-11 -18 -79 -109l-51 -68q-6 -8 -17 -23.5t-15 -20t-12 -12t-15.5 -9.5t-18.5 -2q-23 0 -39 9.5t-14 21.5q2 6 3 7q14 18 29 35q54 65 97 125q27 40 45 74q18 5 32 5zM324 711q24 0 40 -9t13 -23q-15 -26 -80 -115l-88 -116q-9 -14 -37 -14
q-15 0 -28 4.5t-20.5 11.5t-5.5 15l1 4q2 2 3 4q57 66 91 112q45 60 78 121q18 5 33 5z" />
    <glyph glyph-name="quotedblbase" unicode="&#x201e;" horiz-adv-x="368" 
d="M33 159q25 0 41 -9t15 -25q-8 -12 -81 -112l-51 -68q-34 -44 -37 -48q-13 -16 -39 -16q-22 0 -39.5 10t-14.5 22q0 2 11 15q2 3 7 9l8 9q1 2 18 22t28 34q70 90 103 152q18 5 31 5zM158 114q25 0 40.5 -8.5t14.5 -22.5q-23 -40 -79 -110l-51 -68q-6 -8 -13 -18t-11 -15
t-9 -12t-9 -10t-9.5 -6.5t-11.5 -4.5t-13 -1q-24 0 -40.5 9t-14.5 21q1 2 2.5 4.5t2.5 3.5q114 132 171 234q11 4 30 4z" />
    <glyph glyph-name="dagger" unicode="&#x2020;" horiz-adv-x="392" 
d="M219 749q21 0 39 -13q-19 -78 -44 -178h98q42 -4 37 -39q-2 -1 -5 -6q-8 -14 -20 -22q-10 -5 -18 -5q-26 0 -38 1q-6 1 -18 1.5t-18 0.5q-14 0 -35 2q-15 -60 -21 -88q-4 -14 -10.5 -43t-9.5 -43q-4 -14 -10.5 -42.5t-10.5 -43.5l-22 -95q-29 -126 -36 -159q-2 -8 -5 -21
q-2 -11 -5 -16q-1 -3 -2 -8q-2 -3 -5 -4h-1l-2 -1q-16 -5 -28 -5q-19 0 -31 12h-1q-9 14 -3 42l85 386q14 58 22 90q2 8 4.5 17.5t4 15t2.5 9.5q-63 0 -113 -8q-39 0 -30 44q0 3 2 6l9 12q27 3 55 4q36 1 91 3q6 20 9 41q12 67 21 99q11 38 33 49q13 5 30 5z" />
    <glyph glyph-name="daggerdbl" unicode="&#x2021;" horiz-adv-x="393" 
d="M221 750q19 0 39 -13l-46 -179q17 1 47 1h35h16q23 -1 33 -14q8 -10 4 -27q-2 -13 -13.5 -23t-27.5 -9q-6 0 -13.5 0.5t-14.5 1t-12 0.5q-6 1 -18 1.5t-18 0.5q-13 0 -34 2q-8 -36 -15 -55q71 0 136 -10q2 -9 0 -21q-6 -28 -21 -36q-3 -3 -12 -4h-15q-30 0 -102 5
q-1 -5 -3.5 -14t-4.5 -14q-3 -9 -6 -26q-13 -52 -21 -87l-22 -95q-8 -31 -20 -89l-15 -70q-2 -6 -4 -16q-4 -20 -10 -29q-5 -6 -11 -7q-8 -3 -23 -3q-17 0 -30 11q-10 15 -4 43l37 176l23 108q12 57 27 111q-76 -6 -115 -15q-17 3 -23 27q-3 21 6 38q56 12 148 16
q11 42 14 58h-5q-64 0 -108 -8q-20 0 -27 12q-7 11 -3 32q1 4 2 7q2 2 9 11q27 3 56 4q38 1 92 3l35 163q0 1 3 5q7 12 28 22q12 5 27 5z" />
    <glyph glyph-name="bullet" unicode="&#x2022;" horiz-adv-x="268" 
d="M87 449q42 0 68 -23q26 -22 18 -57q-8 -38 -49 -64q-40 -25 -87 -25q-44 0 -68 23.5t-17 56.5q8 35 48 62t87 27z" />
    <glyph glyph-name="ellipsis" unicode="&#x2026;" horiz-adv-x="720" 
d="M-20 104q16 0 27.5 -7t16.5 -19.5t2 -27.5q-3 -17 -15.5 -32t-30 -23.5t-35.5 -8.5q-25 0 -38.5 15t-8.5 38q5 26 30 45.5t52 19.5zM239 104q24 0 37 -15.5t8 -38.5q-5 -26 -29.5 -45t-51.5 -19q-25 0 -37.5 15t-7.5 38q5 26 29.5 45.5t51.5 19.5zM497 104q16 0 28 -7
t16.5 -19.5t1.5 -27.5q-5 -26 -29.5 -45t-51.5 -19q-25 0 -38 15t-8 38q5 26 29.5 45.5t51.5 19.5z" />
    <glyph glyph-name="perthousand" unicode="&#x2030;" horiz-adv-x="1074" 
d="M225 748q41 -1 65 -19.5t40 -49.5h11q42 0 101 20q47 16 70 33q13 10 29 10q28 0 49 -23q20 -23 15 -50q-3 -12 -13 -22l-76 -92l-81 -98l-162 -196l-138 -165q-53 -62 -86 -94q-16 -14 -36 -14q-22 0 -36 16t-9 42l255 288q166 191 247 298q-71 -30 -127 -37
q-1 -14 -2 -19l-4 -17q-21 -98 -94 -164q-69 -63 -146 -61q-32 1 -56.5 16t-40.5 41q-32 53 -15 133q18 87 83 153q70 72 157 71zM189 674q-39 -19 -65 -60q-31 -45 -41 -91q-7 -36 0 -68q9 -41 42 -45q39 0 78 52q39 51 51 108q2 7 4 25q-73 15 -69 79zM482 381
q55 0 89 -53q34 -56 16 -140q-17 -84 -77 -147q-63 -68 -141 -68q-55 0 -87 49q-36 55 -17 144q18 85 77 148q65 67 140 67zM837 381q55 0 89 -53q34 -54 16 -140q-17 -83 -77 -148q-63 -68 -140 -67q-67 0 -94 62q-27 56 -11 131q17 83 77 148q63 67 140 67zM470 311
q-29 0 -62 -43q-36 -49 -48 -105q-8 -37 -2 -73q7 -41 39 -42q27 0 63 44q36 47 48 105q9 39 1 74q-3 12 -8 20.5t-13 14t-18 5.5zM826 311q-31 0 -65 -46q-34 -45 -46 -102q-8 -39 -1 -73q9 -41 37 -42q31 0 66 47q34 45 46 102q9 42 2 74q-9 40 -39 40z" />
    <glyph glyph-name="guilsinglleft" unicode="&#x2039;" horiz-adv-x="257" 
d="M164 441q19 -1 27 -15.5t4 -34.5q-5 -23 -23 -38l-86 -69l-98 -83l11 -15l54 -71q22 -27 31 -40t24 -32q10 -13 11 -17q-16 -53 -64 -53q-7 0 -10 1l-46 60q-58 71 -82 108q-17 24 -21 39q-1 2 2 19q5 22 13 33q1 1 1.5 2t1.5 1l5 4q1 2 10 9l47 39q12 9 45 36l61 50z
" />
    <glyph glyph-name="guilsinglright" unicode="&#x203a;" horiz-adv-x="256" 
d="M-28 438q6 0 10 -3l-1 2l11 -14l66 -82q51 -65 70 -87l17 -21q4 -13 0 -32q-3 -12 -12 -32q-27 -28 -115 -101l-121 -99q-58 0 -46 57q1 1 4.5 4t10 9t12.5 11q5 5 11.5 10.5t12.5 10t14.5 11.5t14.5 12l66 54q33 27 57 50q-1 2 -28 40l-63 80q-3 3 -9 9.5t-8.5 9.5t-7 9
t-5.5 9t-4 9.5t-1.5 10t0.5 11.5q5 21 18.5 36.5t25.5 15.5z" />
    <glyph glyph-name="fraction" unicode="&#x2044;" horiz-adv-x="489" 
d="M495 727q13 -6 19 -20t1 -32q-51 -74 -194 -235l-258 -284l-104 -110q-48 -49 -62 -62q-17 -18 -38 -18q-38 0 -24 56l97 103q157 163 339 373q101 119 176 219q9 12 23 14t25 -4z" />
    <glyph glyph-name="Euro" unicode="&#x20ac;" horiz-adv-x="507" 
d="M319 634q64 0 104 -40q39 -40 29 -90q-6 -27 -25 -43.5t-43 -16.5q-20 0 -33 13q-15 14 -7 34q16 13 19 27q4 20 -7 34q-14 18 -50 18q-47 0 -99 -47q-47 -42 -79 -102q65 3 149 3q34 0 46 -9t9 -24q-3 -10 -8 -17q-1 0 -1.5 -2t-1.5 -2l-4 -6q-2 -2 -11 -12h-64
q-19 0 -51 -0.5t-45 -0.5q-14 -1 -43 -1l-2 -7q-1 -2 -2 -5l-1 -6q-1 -2 0 -7q74 2 110 -2q39 -4 78 -12q-13 -34 -24 -46q-16 -17 -47 -17q-8 0 -53 4q-23 2 -70 2q1 -57 21 -94q23 -45 58 -45q40 0 77 32q34 28 55 67q4 8 13.5 13t17.5 5q15 0 32 -13q16 -16 11 -39
q-30 -53 -84 -89q-64 -43 -131 -43q-76 0 -121 62q-40 54 -42 136q-3 -1 -7.5 -1.5t-7 -1t-6 -1.5t-5.5 -1q-5 -1 -12 -2.5t-8 -1.5q-36 11 -28 46q3 14 9 23q3 1 11.5 2.5t13.5 2.5q26 5 45 8l6 27q-5 0 -10 -1l-10 -2t-8 -1q-17 -2 -30.5 10.5t-8.5 33.5q3 14 14 28
q7 1 18 1q10 0 15 1h18q15 0 26 1q52 105 125 161t160 56z" />
    <glyph glyph-name="trademark" unicode="&#x2122;" horiz-adv-x="760" 
d="M310 583h-51h-38q-14 0 -40 -2v-2l-2 1q-8 -30 -11 -43l-9 -43q-19 -90 -17 -138q0 -10 -3 -33q-3 -2 -4 -2q-7 -6 -27 -11q-8 -2 -11 -2q-8 0 -17 6q-7 6 -9 15q3 63 22 154q12 58 23 90l-2 -1l1 3q-26 -4 -53 -4q-56 0 -85 14q-8 3 -9 14q-1 6 -1 8v3l-1 2l2 9l15 32
l20 -9q7 -3 33 -8q28 -5 66 -5h27q9 0 32 2q99 10 144 10h20q3 -1 10 -1t15 -6q5 -6 5 -12q-1 -5 0 -6q-1 -3 -2 -4q-7 -5 -10 -14q-3 -2 -3 -3l-4 -3q-9 -8 -26 -11zM687 613v-6v-4.5t-0.5 -7t-1.5 -7.5q-4 -22 -6.5 -37t-11.5 -58q-11 -42 -15 -61q-7 -34 -8 -59
q-4 -32 5 -36q8 -6 -8 -15q-10 -8 -23 -13t-22 -5q-14 0 -20 13q-4 36 11 103l6 31q3 12 9 32v2l-1 -1l-1 1l-1 -2v-1q-61 -108 -94 -147q-12 -15 -21 -20.5t-30 -12.5q-2 -1 -7 -1h-4q-3 2 -11 12q0 1 -1 4t-1 5q-3 6 -3 9l-1 2l-6 21q-1 10 -5 31q-1 3 -2 10t-2 9
q-5 24 -8 39q0 1 -2 9.5t-3 13.5l6 21v2l-1 -1l-1 1q-11 -52 -22 -88q-17 -44 -32 -65q-27 -35 -60 -35q-37 0 -48 36q-11 30 -2 73q12 53 45 86q5 6 24 10q21 0 29 -11q3 -1 4 -5q3 12 5 22q17 69 16 92v2q-1 3 -1 5l1 5q-1 1 0 6q6 11 26 20q16 5 24 5q6 0 10 -1
q6 -2 12 -8q9 -28 14 -62q5 -38 15 -84q6 -30 8 -55l2 -16t2 -17.5t2 -14.5l4 3q0 1 3 5q20 29 38 62l44 76q12 18 17 27q8 15 16 25l3 -1q1 2 7 13l3 6q5 9 8 17q3 6 10 12l11 10l15 3q9 1 18 -5q5 -1 8 -9q4 -1 5 -5q0 -1 0.5 -3.5t0.5 -5.5v-6zM596 588l3 1l-1 -2z
M183 578l-1 -1l-1 2zM113 571l-1 1h2zM403 488l1 -1h-2zM601 484l1 -1h-2zM336 471l3 1h-2zM329 446l5 25l-5 -4q-2 -1 -12 -8q-33 -36 -30 -80q-1 -10 3 -19q2 -9 3 -9q3 0 8 10q10 22 17 47q2 8 5.5 19t5.5 19zM139 322v1l1 1z" />
    <glyph glyph-name="partialdiff" unicode="&#x2202;" horiz-adv-x="498" 
d="M236 739q12 0 20 -8q48 -47 73 -123q42 -130 6 -297q-7 -33 -11.5 -51t-12.5 -54q-14 -68 -12 -98q2 -44 33 -44q36 0 82 54q30 35 47 70q3 7 9 7q3 0 6 -4.5t2 -11.5l-1 -4q-29 -77 -77 -130q-55 -60 -114 -60q-72 0 -74 85q-78 -90 -166 -90q-75 0 -106 44.5t-13 128.5
q23 109 114 190q24 21 50 37t49 24t41 8q47 0 76 -41q13 121 -25 213q-16 37 -37 59t-40 23q5 26 32 50q25 23 49 23zM164 349q-32 0 -76 -55q-42 -52 -55 -111q-10 -47 -1 -84q12 -46 47 -46q45 0 89 66q32 48 55 108q-18 3 -24 7q-4 2 -7 5q-2 1 -4 2.5l-2 1.5q2 8 3.5 12
t3.5 12q7 34 3 55q-8 27 -32 27z" />
    <glyph glyph-name="minus" unicode="&#x2212;" horiz-adv-x="376" 
d="M256 394l48 16q6 -29 -8 -57q-16 -32 -50 -32q-16 4 -55 4q-49 0 -140 -6q-80 -7 -105 -7q-11 1 -15 12.5t0 27.5q7 36 27 42l4 -3q2 -2 7 -2h7q1 -1 6 -1q5 -1 15 -1h9q7 0 19 1q27 0 46 1q5 0 116 3q9 0 24.5 0.5t22.5 1.5h22z" />
    <glyph glyph-name="integral" unicode="&#x222b;" horiz-adv-x="438" 
d="M308 621q51 0 71 -54q16 -43 5 -103q-2 -12 -11.5 -19.5t-20.5 -8.5t-19 5t-8 18q0 4 -0.5 12.5t-0.5 13.5q-3 32 -13 53q-5 10 -12 10q-11 0 -26 -28q-18 -35 -22 -47l-137 -369q-36 -91 -62 -128q-48 -70 -106 -70q-42 0 -65 32q-29 39 -17 103q6 28 35 28q19 0 24 -23
q1 -3 2 -7t1.5 -8t1.5 -7q2 -25 13 -38q4 -8 13 -9q9 1 26 31q6 9 13 25q1 4 3 8t3.5 7.5t2.5 5.5q12 29 44 111q8 23 26 73q20 55 26 72l41 112q29 82 61 129q49 71 108 70z" />
    <glyph glyph-name="v.001" horiz-adv-x="417" 
d="M56 414q17 0 23 -11q-15 -45 -28 -106q-25 -121 -18 -175q2 -27 10 -41q11 -20 30 -20t58 46q41 48 73 120q-70 38 -56 101q4 21 16.5 38t31 27t39.5 10q40 0 52 -41q9 -33 -2 -86q34 -8 81 9q6 2 14.5 6t12.5 6q2 0 3.5 1l3 2t2.5 1q2 2 4 2q4 0 7 -3q0 -4 -12 -15
q-28 -24 -79 -46q-26 -11 -56 -19q-32 -78 -88 -151q-72 -90 -131 -90q-66 0 -92 61q-20 45 -15 128q1 49 14 109q10 48 25 93q4 14 31 30q24 14 46 14zM221 335q-2 0 -5 -3t-4 -6q-1 -8 1 -15q3 -9 19 -24q0 34 -4 41q-6 7 -7 7z" />
    <glyph glyph-name="s.ss01" horiz-adv-x="394" 
d="M342 154q11 0 16 -5.5t3 -14.5q-1 -6 -10 -13q-44 -28 -91 -28h-16q-22 -57 -76 -91q-51 -32 -106 -32q-56 0 -81 35q-25 33 -15 76q0 2 1 5l-24 -31q-39 -51 -56 -66q-6 -5 -14 -5q-14 0 -24.5 13.5t-5.5 38.5l2 5q34 36 93 117q41 56 97 141q51 80 64 115q3 8 9 15
t14.5 10.5t18.5 3.5q13 0 34 -11q4 -2 7 -2l8 -3q7 -1 13 -2.5t12 -7t5 -12.5l-2 -5q-17 -33 -21 -56q-10 -44 11 -90q2 -5 7 -13l6 -12q15 -27 21 -43.5t8 -40.5q18 -3 31 -3q18 0 47 8q7 2 9 3q1 1 5 1zM77 237l-53 -75q34 22 84 22q21 0 48 -4q-18 33 -18 34
q-16 27 -19 38q-5 13 -8 32q-7 -9 -34 -47zM76 33q35 0 58 21.5t28 55.5q-50 19 -65 19q-29 0 -47 -14.5t-22 -31.5q-4 -21 10 -35.5t38 -14.5z" />
    </font>
</defs>
</svg>
